999
DXF generated by OpenJsCad
  0
SECTION
  2
HEADER
  0
ENDSEC
  0
SECTION
  2
TABLES
  0
TABLE
  2
LTYPE
  70
1
  0
LTYPE
  2
CONTINUOUS
  3
Solid Line
  72
65
  73
0
  40
0.0
  0
ENDTAB
  0
TABLE
  2
LAYER
  70
1
  0
LAYER
  2
OpenJsCad
  62
7
  6
continuous
  0
ENDTAB
  0
TABLE
  2
STYLE
  70
0
  0
ENDTAB
  0
TABLE
  2
VIEW
  70
0
  0
ENDTAB
  0
ENDSEC
  0
SECTION
  2
BLOCKS
  0
ENDSEC
  0
SECTION
  2
ENTITIES
  0
LWPOLYLINE
  8
OpenJsCad
  90
1141
  70
1
 10
127.37637136657207
 20
-14.67020399227776
 30
0.0
 10
127.57615898275105
 20
-13.408794628014402
 30
0.0
 10
127.64299895906676
 20
-12.1334119037327
 30
0.0
 10
126.63033035654065
 20
-11.465233650824267
 30
0.0
 10
124.95529136412775
 20
-10.442079211776871
 30
0.0
 10
123.36555106530955
 20
-9.545663197501938
 30
0.0
 10
121.86776871325277
 20
-8.768702859179893
 30
0.0
 10
120.46819636819883
 20
-8.103610202040194
 30
0.0
 10
120.10983918763712
 20
-7.948404511575616
 30
0.0
 10
119.83490329637257
 20
-7.802662149317094
 30
0.0
 10
119.71638327288397
 20
-7.652692140189447
 30
0.0
 10
119.8604885484569
 20
-4.902999679543197
 30
0.0
 10
119.99403544144641
 20
-4.766239937739133
 30
0.0
 10
120.28269943028432
 20
-4.650034593578044
 30
0.0
 10
120.65531690504453
 20
-4.533137661531004
 30
0.0
 10
122.11674335972668
 20
-4.017983598019994
 30
0.0
 10
123.68753517352796
 20
-3.4018404172961993
 30
0.0
 10
125.36226769707402
 20
-2.6765081741717314
 30
0.0
 10
127.1350794118246
 20
-1.834047933985609
 30
0.0
 10
128.21204415575215
 20
-1.2753827242816893
 30
0.0
 10
128.2788841320677
 20
7.993605777301127e-15
 30
0.0
 10
128.21204415575207
 20
1.2753827242817195
 30
0.0
 10
127.13507941182264
 20
1.8340479339866274
 30
0.0
 10
125.3622676970733
 20
2.676508174172185
 30
0.0
 10
123.68753517352863
 20
3.401840417297239
 30
0.0
 10
122.11674335972725
 20
4.017983598021347
 30
0.0
 10
120.65531690503778
 20
4.533137661535047
 30
0.0
 10
120.28269943029206
 20
4.6500345936027765
 30
0.0
 10
119.99403544144698
 20
4.766239937740566
 30
0.0
 10
119.86048854845768
 20
4.902999679544881
 30
0.0
 10
119.71638327288302
 20
7.65269214019104
 30
0.0
 10
119.83490329637183
 20
7.802662149318457
 30
0.0
 10
120.10983918762683
 20
7.948404511599403
 30
0.0
 10
120.46819636820511
 20
8.10361020204492
 30
0.0
 10
121.86776871325205
 20
8.768702859181179
 30
0.0
 10
123.36555106530876
 20
9.5456631975029
 30
0.0
 10
124.9552913641284
 20
10.442079211777397
 30
0.0
 10
126.63033035654247
 20
11.465233650825482
 30
0.0
 10
127.64299895906642
 20
12.133411903732712
 30
0.0
 10
127.57615898275084
 20
13.408794628014407
 30
0.0
 10
127.37637136657206
 20
14.670203992277905
 30
0.0
 10
126.24690993234299
 20
15.113235305833559
 30
0.0
 10
124.3957487913887
 20
15.765771176469666
 30
0.0
 10
122.65437276310581
 20
16.312072756603634
 30
0.0
 10
121.02778141138116
 20
16.76064818610554
 30
0.0
 10
119.52051254111687
 20
17.120219520270467
 30
0.0
 10
119.13771724721568
 20
17.19752694669136
 30
0.0
 10
118.8384878238587
 20
17.282922102640512
 30
0.0
 10
118.69137722907473
 20
17.40497320877147
 30
0.0
 10
118.26064024990767
 20
20.12453946340856
 30
0.0
 10
118.36283487371654
 20
20.286076637056087
 30
0.0
 10
118.62103041223
 20
20.459759233637193
 30
0.0
 10
118.96120106236486
 20
20.651573216457784
 30
0.0
 10
120.28358529028492
 20
21.459317572888118
 30
0.0
 10
121.69194816371683
 20
22.388582528751712
 30
0.0
 10
123.17927871042161
 20
23.446260992736736
 30
0.0
 10
124.73819290277386
 20
24.638899736503742
 30
0.0
 10
125.67547035477088
 20
25.409270331850166
 30
0.0
 10
125.47568273859189
 20
26.670679696113634
 30
0.0
 10
125.14513639748037
 20
27.904295435397106
 30
0.0
 10
123.9755528887802
 20
28.226838909021964
 30
0.0
 10
122.06632403046162
 20
28.682301090558028
 30
0.0
 10
120.27738337761276
 20
29.043586613267994
 30
0.0
 10
118.61281376320046
 20
29.319679605271638
 30
0.0
 10
117.07621643052026
 20
29.519728671305547
 30
0.0
 10
116.68743730280865
 20
29.556599595738113
 30
0.0
 10
116.38092086511985
 20
29.61024895629996
 30
0.0
 10
116.22185834300254
 20
29.716254209297958
 30
0.0
 10
115.50920890472433
 20
32.375898120934345
 30
0.0
 10
115.59395846316919
 20
32.54723262402367
 30
0.0
 10
115.83258480459028
 20
32.746952552031374
 30
0.0
 10
116.1508419434536
 20
32.97327327309161
 30
0.0
 10
117.38154973591897
 20
33.914819512615594
 30
0.0
 10
118.68506281236587
 20
34.986207864703424
 30
0.0
 10
120.0536881022422
 20
36.1935606318141
 30
0.0
 10
121.47939770441744
 20
37.54261688064762
 30
0.0
 10
122.3310149979852
 20
38.40673947698017
 30
0.0
 10
122.00046865687388
 20
39.64035521626368
 30
0.0
 10
121.5427851257147
 20
40.83266157837695
 30
0.0
 10
120.34589374421563
 20
41.031183358277346
 30
0.0
 10
118.39951507943634
 20
41.28458171174086
 30
0.0
 10
116.582609810174
 20
41.45689285723618
 30
0.0
 10
114.89829930610314
 20
41.55747847914499
 30
0.0
 10
113.34920879293755
 20
41.59581349761744
 30
0.0
 10
112.95870537689596
 20
41.59184395449786
 30
0.0
 10
112.64826018310934
 20
41.61315972605124
 30
0.0
 10
112.47898845593701
 20
41.701957710181404
 30
0.0
 10
111.4922344949249
 20
44.27253966355494
 30
0.0
 10
111.55861045410846
 20
44.45179431941617
 30
0.0
 10
111.77505315830479
 20
44.67536340552513
 30
0.0
 10
112.06790989408354
 20
44.93371124764441
 30
0.0
 10
113.19345735897782
 20
45.9987435926306
 30
0.0
 10
114.37783907639654
 20
47.20051698595477
 30
0.0
 10
115.61276416436527
 20
48.54431604661984
 30
0.0
 10
116.88964880361314
 20
50.03500925794947
 30
0.0
 10
117.646275441471
 20
50.98341634727345
 30
0.0
 10
117.18859191031181
 20
52.175722709386676
 30
0.0
 10
116.60878566564872
 20
53.313656536320295
 30
0.0
 10
115.39769980379212
 20
53.3859815763323
 30
0.0
 10
113.43549626450935
 20
53.43453981633571
 30
0.0
 10
111.61053277317546
 20
53.41598870764789
 30
0.0
 10
109.92493503779328
 20
53.33996492233935
 30
0.0
 10
108.38032350397253
 20
53.21616588676586
 30
0.0
 10
107.99237423674525
 20
53.171399367239225
 30
0.0
 10
107.68140158936876
 20
53.160148009730385
 30
0.0
 10
107.5037752336067
 20
53.23076583569642
 30
0.0
 10
106.25372783274908
 20
55.68412199699707
 30
0.0
 10
106.30100296377245
 20
55.86933285410915
 30
0.0
 10
106.49289063918329
 20
56.114301628627125
 30
0.0
 10
106.75713837219611
 20
56.40184607878442
 30
0.0
 10
107.76519377595798
 20
57.578695811988815
 30
0.0
 10
108.81746780040461
 20
58.89768736576481
 30
0.0
 10
109.9051625887773
 20
60.363209776267574
 30
0.0
 10
111.0192324497849
 20
61.97920760332239
 30
0.0
 10
111.67257867215437
 20
63.00150823910032
 30
0.0
 10
111.09277242749114
 20
64.13944206603384
 30
0.0
 10
110.39719594787265
 20
65.21053591665182
 30
0.0
 10
109.18518451579709
 20
65.15587180850211
 30
0.0
 10
107.22865441460472
 20
64.99905792080646
 30
0.0
 10
105.41562738310849
 20
64.78984780776437
 30
0.0
 10
103.7472101779378
 20
64.53804754773931
 30
0.0
 10
102.22400071065724
 20
64.25347082626021
 30
0.0
 10
101.84285604559958
 20
64.16839780168247
 30
0.0
 10
101.5347630260331
 20
64.12470258733879
 30
0.0
 10
101.35072815320572
 20
64.17636655146167
 30
0.0
 10
99.85108309341562
 20
66.48561743718845
 30
0.0
 10
99.87873944005035
 20
66.67475528664299
 30
0.0
 10
100.04396972514883
 20
66.93843982041335
 30
0.0
 10
100.27671330193543
 20
67.2520304814402
 30
0.0
 10
101.1562321786121
 20
68.52780379091416
 30
0.0
 10
102.06486957567238
 20
69.94956235766209
 30
0.0
 10
102.99341705273278
 20
71.52075154779281
 30
0.0
 10
103.93246615296883
 20
73.2443487802103
 30
0.0
 10
104.47537376191599
 20
74.32934242274634
 30
0.0
 10
103.77979728229751
 20
75.40043627336432
 30
0.0
 10
102.97607144919323
 20
76.39295501929857
 30
0.0
 10
101.77641349777822
 20
76.21190067439522
 30
0.0
 10
99.84699298789515
 20
75.85143274476954
 30
0.0
 10
98.06576631979394
 20
75.45385577715169
 30
0.0
 10
96.43280917287338
 20
75.02903781875155
 30
0.0
 10
94.94769037380857
 20
74.5868012934789
 30
0.0
 10
94.57752621163056
 20
74.46235384170998
 30
0.0
 10
94.27568835146909
 20
74.3866935044436
 30
0.0
 10
94.08726128615483
 20
74.418837565521
 30
0.0
 10
92.35444899252825
 20
76.5586825397281
 30
0.0
 10
92.36218354605316
 20
76.74967514766682
 30
0.0
 10
92.49894614325906
 20
77.02918645775803
 30
0.0
 10
92.69763557648743
 20
77.36538756474918
 30
0.0
 10
93.4389817332149
 20
78.72610681114139
 30
0.0
 10
94.19402728142198
 20
80.23505530648184
 30
0.0
 10
94.95325408670043
 20
81.89469699868097
 30
0.0
 10
95.70699400771406
 20
83.70700954449688
 30
0.0
 10
96.13351479386455
 20
84.84280877639387
 30
0.0
 10
95.32978896076028
 20
85.8353275223281
 30
0.0
 10
94.4267195625881
 20
86.73839692050032
 30
0.0
 10
93.25255879539392
 20
86.43293600813415
 30
0.0
 10
91.37138701168365
 20
85.87276339864816
 30
0.0
 10
89.64147619909883
 20
85.29117551291012
 30
0.0
 10
88.0618701306483
 20
84.69799425058598
 30
0.0
 10
86.63111327214288
 20
84.1029431574346
 30
0.0
 10
86.27598520886718
 20
83.94048475079839
 30
0.0
 10
85.98370950687024
 20
83.83368824109735
 30
0.0
 10
85.79295469542764
 20
83.84596022206956
 30
0.0
 10
83.84596022206782
 20
85.79295469542818
 30
0.0
 10
83.83368824109591
 20
85.98370950687075
 30
0.0
 10
83.94048475077484
 20
86.27598520887797
 30
0.0
 10
84.10294315743612
 20
86.63111327215059
 30
0.0
 10
84.6979942505846
 20
88.06187013064876
 30
0.0
 10
85.29117551290891
 20
89.64147619909902
 30
0.0
 10
85.87276339864833
 20
91.37138701168446
 30
0.0
 10
86.4329360081347
 20
93.25255879539606
 30
0.0
 10
86.73839692050024
 20
94.42671956258806
 30
0.0
 10
85.83532752232807
 20
95.32978896076021
 30
0.0
 10
84.84280877639388
 20
96.13351479386458
 30
0.0
 10
83.70700954449482
 20
95.70699400771329
 30
0.0
 10
81.89469699868017
 20
94.9532540867002
 30
0.0
 10
80.23505530648151
 20
94.19402728142317
 30
0.0
 10
78.72610681114078
 20
93.43898173321622
 30
0.0
 10
77.36538756474167
 20
92.69763557648511
 30
0.0
 10
77.02918645774484
 20
92.49894614328136
 30
0.0
 10
76.74967514766615
 20
92.36218354605454
 30
0.0
 10
76.55868253972737
 20
92.35444899252994
 30
0.0
 10
74.41883756551921
 20
94.0872612861552
 30
0.0
 10
74.3866935044421
 20
94.27568835146944
 30
0.0
 10
74.46235384168543
 20
94.57752621163883
 30
0.0
 10
74.58680129347958
 20
94.9476903738164
 30
0.0
 10
75.02903781875011
 20
96.4328091728737
 30
0.0
 10
75.45385577715048
 20
98.06576631979401
 30
0.0
 10
75.85143274476961
 20
99.84699298789599
 30
0.0
 10
76.21190067439555
 20
101.77641349778037
 30
0.0
 10
76.39295501929845
 20
102.97607144919313
 30
0.0
 10
75.40043627336422
 20
103.77979728229738
 30
0.0
 10
74.32934242274636
 20
104.47537376191602
 30
0.0
 10
73.24434878020837
 20
103.93246615296783
 30
0.0
 10
71.52075154779205
 20
102.99341705273247
 30
0.0
 10
69.94956235766166
 20
102.06486957567351
 30
0.0
 10
68.52780379091344
 20
101.15623217861335
 30
0.0
 10
67.252030481433
 20
100.27671330193232
 30
0.0
 10
66.9384398203979
 20
100.0439697251696
 30
0.0
 10
66.6747552866422
 20
99.87873944005165
 30
0.0
 10
66.48561743718757
 20
99.85108309341723
 30
0.0
 10
64.17636655145984
 20
101.35072815320586
 30
0.0
 10
64.12470258733728
 20
101.5347630260333
 30
0.0
 10
64.16839780165722
 20
101.84285604560522
 30
0.0
 10
64.25347082626011
 20
102.22400071066508
 30
0.0
 10
64.53804754773788
 20
103.74721017793796
 30
0.0
 10
64.78984780776317
 20
105.4156273831084
 30
0.0
 10
64.99905792080645
 20
107.22865441460554
 30
0.0
 10
65.15587180850223
 20
109.18518451579925
 30
0.0
 10
65.21053591665184
 20
110.39719594787267
 30
0.0
 10
64.13944206603385
 20
111.09277242749116
 30
0.0
 10
63.001508239100225
 20
111.67257867215424
 30
0.0
 10
61.979207603320546
 20
111.01923244978369
 30
0.0
 10
60.363209776266835
 20
109.90516258877689
 30
0.0
 10
58.89768736576425
 20
108.8174678004057
 30
0.0
 10
57.57869581198794
 20
107.76519377595913
 30
0.0
 10
56.40184607877755
 20
106.75713837219227
 30
0.0
 10
56.11430162860958
 20
106.49289063920234
 30
0.0
 10
55.86933285410821
 20
106.30100296377366
 30
0.0
 10
55.68412199699601
 20
106.25372783275057
 30
0.0
 10
53.23076583569457
 20
107.50377523360666
 30
0.0
 10
53.16014800972885
 20
107.6814015893688
 30
0.0
 10
53.171399367213496
 20
107.99237423674822
 30
0.0
 10
53.21616588676491
 20
108.38032350398034
 30
0.0
 10
53.339964922337884
 20
109.92493503779328
 30
0.0
 10
53.41598870764668
 20
111.61053277317525
 30
0.0
 10
53.43453981633559
 20
113.43549626451016
 30
0.0
 10
53.38598157633217
 20
115.3976998037943
 30
0.0
 10
53.31365653632029
 20
116.60878566564874
 30
0.0
 10
52.175722709386754
 20
117.18859191031198
 30
0.0
 10
50.98341634727345
 20
117.64627544147106
 30
0.0
 10
50.035009257947756
 20
116.88964880361176
 30
0.0
 10
48.54431604661914
 20
115.6127641643648
 30
0.0
 10
47.2005169859541
 20
114.37783907639756
 30
0.0
 10
45.99874359262961
 20
113.1934573589789
 30
0.0
 10
44.93371124763798
 20
112.06790989407902
 30
0.0
 10
44.67536340550569
 20
111.77505315832191
 30
0.0
 10
44.45179431941511
 20
111.55861045410957
 30
0.0
 10
44.272539663553715
 20
111.4922344949263
 30
0.0
 10
41.70195771017957
 20
112.4789884559368
 30
0.0
 10
41.6131597260497
 20
112.64826018310923
 30
0.0
 10
41.59184395447195
 20
112.95870537689623
 30
0.0
 10
41.59581349761569
 20
113.3492087929452
 30
0.0
 10
41.55747847914352
 20
114.898299306103
 30
0.0
 10
41.456892857234976
 20
116.58260981017368
 30
0.0
 10
41.28458171174064
 20
118.39951507943715
 30
0.0
 10
41.03118335827698
 20
120.34589374421779
 30
0.0
 10
40.83266157837693
 20
121.5427851257147
 30
0.0
 10
39.640355216263686
 20
122.00046865687389
 30
0.0
 10
38.40673947698017
 20
122.33101499798525
 30
0.0
 10
37.54261688064607
 20
121.47939770441589
 30
0.0
 10
36.19356063181347
 20
120.05368810224167
 30
0.0
 10
34.986207864702656
 20
118.68506281236681
 30
0.0
 10
33.9148195126145
 20
117.38154973591992
 30
0.0
 10
32.973273273085695
 20
116.15084194344841
 30
0.0
 10
32.746952552010264
 20
115.83258480460528
 30
0.0
 10
32.547232624022506
 20
115.5939584631702
 30
0.0
 10
32.375898120933
 20
115.50920890472558
 30
0.0
 10
29.716254209296164
 20
116.22185834300214
 30
0.0
 10
29.610248956298452
 20
116.38092086511956
 30
0.0
 10
29.556599595712324
 20
116.6874373028062
 30
0.0
 10
29.519728671303007
 20
117.07621643052771
 30
0.0
 10
29.319679605270213
 20
118.61281376320018
 30
0.0
 10
29.04358661326686
 20
120.27738337761231
 30
0.0
 10
28.682301090557743
 20
122.06632403046241
 30
0.0
 10
28.226838909021392
 20
123.97555288878232
 30
0.0
 10
27.90429543539714
 20
125.14513639748051
 30
0.0
 10
26.670679696113627
 20
125.47568273859186
 30
0.0
 10
25.40927033185011
 20
125.67547035477077
 30
0.0
 10
24.63889973650234
 20
124.73819290277216
 30
0.0
 10
23.446260992736143
 20
123.179278710421
 30
0.0
 10
22.388582528750835
 20
121.69194816371768
 30
0.0
 10
21.459317572886913
 20
120.28358529028574
 30
0.0
 10
20.651573216452427
 20
118.9612010623591
 30
0.0
 10
20.459759233614605
 20
118.62103041224269
 30
0.0
 10
20.286076637054805
 20
118.36283487371739
 30
0.0
 10
20.12453946340707
 20
118.26064024990876
 30
0.0
 10
17.40497320876971
 20
118.69137722907412
 30
0.0
 10
17.282922102639024
 20
118.83848782385826
 30
0.0
 10
17.197526946665953
 20
119.13771724721055
 30
0.0
 10
17.12021952026715
 20
119.52051254112398
 30
0.0
 10
16.760648186104135
 20
121.02778141138072
 30
0.0
 10
16.312072756602525
 20
122.65437276310523
 30
0.0
 10
15.76577117646929
 20
124.39574879138944
 30
0.0
 10
15.113235305832749
 20
126.24690993234502
 30
0.0
 10
14.670203992277854
 20
127.37637136657196
 30
0.0
 10
13.408794628014391
 20
127.57615898275095
 30
0.0
 10
12.133411903732704
 20
127.64299895906673
 30
0.0
 10
11.465233650824274
 20
126.63033035654065
 30
0.0
 10
10.442079211776878
 20
124.95529136412775
 30
0.0
 10
9.545663197501945
 20
123.36555106530955
 30
0.0
 10
8.7687028591799
 20
121.86776871325277
 30
0.0
 10
8.103610202040201
 20
120.46819636819883
 30
0.0
 10
7.948404511575623
 20
120.10983918763712
 30
0.0
 10
7.802662149317101
 20
119.83490329637257
 30
0.0
 10
7.652692140189454
 20
119.71638327288397
 30
0.0
 10
4.902999679543204
 20
119.8604885484569
 30
0.0
 10
4.76623993773914
 20
119.99403544144641
 30
0.0
 10
4.650034593578051
 20
120.28269943028432
 30
0.0
 10
4.533137661531011
 20
120.65531690504453
 30
0.0
 10
4.017983598020001
 20
122.11674335972668
 30
0.0
 10
3.401840417296207
 20
123.68753517352796
 30
0.0
 10
2.676508174171739
 20
125.36226769707402
 30
0.0
 10
1.8340479339856168
 20
127.1350794118246
 30
0.0
 10
1.2753827242816973
 20
128.21204415575212
 30
0.0
 10
-1.9539925233402755e-14
 20
128.27888413206767
 30
0.0
 10
-1.2753827242817293
 20
128.21204415575207
 30
0.0
 10
-1.834047933986638
 20
127.13507941182264
 30
0.0
 10
-2.6765081741721954
 20
125.3622676970733
 30
0.0
 10
-3.4018404172972496
 20
123.68753517352863
 30
0.0
 10
-4.017983598021358
 20
122.11674335972725
 30
0.0
 10
-4.533137661535058
 20
120.65531690503778
 30
0.0
 10
-4.650034593602787
 20
120.28269943029206
 30
0.0
 10
-4.766239937740575
 20
119.99403544144698
 30
0.0
 10
-4.90299967954489
 20
119.86048854845768
 30
0.0
 10
-7.652692140191049
 20
119.71638327288302
 30
0.0
 10
-7.802662149318466
 20
119.83490329637183
 30
0.0
 10
-7.9484045115994135
 20
120.10983918762683
 30
0.0
 10
-8.10361020204493
 20
120.46819636820511
 30
0.0
 10
-8.76870285918119
 20
121.86776871325205
 30
0.0
 10
-9.545663197502911
 20
123.36555106530876
 30
0.0
 10
-10.442079211777404
 20
124.9552913641284
 30
0.0
 10
-11.465233650825493
 20
126.63033035654247
 30
0.0
 10
-12.133411903732723
 20
127.64299895906642
 30
0.0
 10
-13.408794628014409
 20
127.57615898275084
 30
0.0
 10
-14.670203992277912
 20
127.3763713665721
 30
0.0
 10
-15.113235305833559
 20
126.24690993234299
 30
0.0
 10
-15.765771176469666
 20
124.3957487913887
 30
0.0
 10
-16.312072756603634
 20
122.65437276310581
 30
0.0
 10
-16.76064818610554
 20
121.02778141138116
 30
0.0
 10
-17.120219520270467
 20
119.52051254111687
 30
0.0
 10
-17.19752694669136
 20
119.13771724721568
 30
0.0
 10
-17.282922102640512
 20
118.8384878238587
 30
0.0
 10
-17.40497320877147
 20
118.69137722907473
 30
0.0
 10
-20.12453946340856
 20
118.26064024990767
 30
0.0
 10
-20.286076637056087
 20
118.36283487371654
 30
0.0
 10
-20.459759233637193
 20
118.62103041223
 30
0.0
 10
-20.651573216457784
 20
118.96120106236486
 30
0.0
 10
-21.459317572888118
 20
120.28358529028492
 30
0.0
 10
-22.388582528751712
 20
121.69194816371683
 30
0.0
 10
-23.446260992736736
 20
123.17927871042161
 30
0.0
 10
-24.638899736503742
 20
124.73819290277386
 30
0.0
 10
-25.409270331850166
 20
125.67547035477091
 30
0.0
 10
-26.67067969611363
 20
125.47568273859191
 30
0.0
 10
-27.90429543539712
 20
125.1451363974804
 30
0.0
 10
-28.226838909021957
 20
123.97555288878021
 30
0.0
 10
-28.682301090558017
 20
122.06632403046163
 30
0.0
 10
-29.043586613267987
 20
120.27738337761278
 30
0.0
 10
-29.31967960527163
 20
118.61281376320048
 30
0.0
 10
-29.519728671305536
 20
117.07621643052028
 30
0.0
 10
-29.556599595738106
 20
116.68743730280866
 30
0.0
 10
-29.610248956299948
 20
116.38092086511986
 30
0.0
 10
-29.71625420929795
 20
116.22185834300255
 30
0.0
 10
-32.37589812093434
 20
115.50920890472435
 30
0.0
 10
-32.547232624023664
 20
115.5939584631692
 30
0.0
 10
-32.74695255203137
 20
115.8325848045903
 30
0.0
 10
-32.9732732730916
 20
116.1508419434536
 30
0.0
 10
-33.91481951261559
 20
117.38154973591898
 30
0.0
 10
-34.98620786470342
 20
118.68506281236589
 30
0.0
 10
-36.193560631814094
 20
120.05368810224222
 30
0.0
 10
-37.54261688064761
 20
121.47939770441744
 30
0.0
 10
-38.406739476980164
 20
122.33101499798524
 30
0.0
 10
-39.640355216263664
 20
122.0004686568739
 30
0.0
 10
-40.83266157837695
 20
121.54278512571477
 30
0.0
 10
-41.031183358277325
 20
120.34589374421564
 30
0.0
 10
-41.28458171174084
 20
118.39951507943636
 30
0.0
 10
-41.456892857236156
 20
116.58260981017402
 30
0.0
 10
-41.557478479144976
 20
114.89829930610316
 30
0.0
 10
-41.59581349761742
 20
113.34920879293756
 30
0.0
 10
-41.59184395449785
 20
112.95870537689598
 30
0.0
 10
-41.61315972605123
 20
112.64826018310936
 30
0.0
 10
-41.70195771018139
 20
112.47898845593703
 30
0.0
 10
-44.27253966355492
 20
111.49223449492492
 30
0.0
 10
-44.45179431941616
 20
111.55861045410848
 30
0.0
 10
-44.67536340552512
 20
111.7750531583048
 30
0.0
 10
-44.933711247644396
 20
112.06790989408356
 30
0.0
 10
-45.998743592630596
 20
113.19345735897784
 30
0.0
 10
-47.200516985954756
 20
114.37783907639655
 30
0.0
 10
-48.54431604661982
 20
115.61276416436529
 30
0.0
 10
-50.035009257949454
 20
116.88964880361316
 30
0.0
 10
-50.98341634727348
 20
117.64627544147113
 30
0.0
 10
-52.175722709386726
 20
117.18859191031194
 30
0.0
 10
-53.313656536320266
 20
116.60878566564871
 30
0.0
 10
-53.38598157633228
 20
115.39769980379212
 30
0.0
 10
-53.434539816335686
 20
113.43549626450935
 30
0.0
 10
-53.41598870764788
 20
111.61053277317546
 30
0.0
 10
-53.33996492233933
 20
109.92493503779326
 30
0.0
 10
-53.21616588676583
 20
108.38032350397253
 30
0.0
 10
-53.171399367239204
 20
107.99237423674525
 30
0.0
 10
-53.16014800973037
 20
107.68140158936876
 30
0.0
 10
-53.230765835696396
 20
107.5037752336067
 30
0.0
 10
-55.68412199699705
 20
106.25372783274908
 30
0.0
 10
-55.869332854109125
 20
106.30100296377245
 30
0.0
 10
-56.1143016286271
 20
106.49289063918329
 30
0.0
 10
-56.4018460787844
 20
106.75713837219611
 30
0.0
 10
-57.5786958119888
 20
107.76519377595798
 30
0.0
 10
-58.89768736576479
 20
108.81746780040461
 30
0.0
 10
-60.36320977626756
 20
109.9051625887773
 30
0.0
 10
-61.97920760332237
 20
111.01923244978488
 30
0.0
 10
-63.001508239100296
 20
111.67257867215434
 30
0.0
 10
-64.13944206603381
 20
111.09277242749113
 30
0.0
 10
-65.21053591665184
 20
110.39719594787267
 30
0.0
 10
-65.1558718085021
 20
109.18518451579709
 30
0.0
 10
-64.99905792080645
 20
107.22865441460472
 30
0.0
 10
-64.78984780776436
 20
105.41562738310849
 30
0.0
 10
-64.5380475477393
 20
103.7472101779378
 30
0.0
 10
-64.25347082626021
 20
102.22400071065724
 30
0.0
 10
-64.16839780168246
 20
101.84285604559958
 30
0.0
 10
-64.12470258733877
 20
101.5347630260331
 30
0.0
 10
-64.17636655146165
 20
101.35072815320571
 30
0.0
 10
-66.48561743718844
 20
99.85108309341562
 30
0.0
 10
-66.67475528664298
 20
99.87873944005035
 30
0.0
 10
-66.93843982041332
 20
100.04396972514883
 30
0.0
 10
-67.2520304814402
 20
100.27671330193543
 30
0.0
 10
-68.52780379091415
 20
101.1562321786121
 30
0.0
 10
-69.94956235766207
 20
102.06486957567238
 30
0.0
 10
-71.5207515477928
 20
102.99341705273278
 30
0.0
 10
-73.24434878021029
 20
103.93246615296883
 30
0.0
 10
-74.3293424227463
 20
104.47537376191593
 30
0.0
 10
-75.40043627336428
 20
103.77979728229744
 30
0.0
 10
-76.39295501929857
 20
102.97607144919324
 30
0.0
 10
-76.21190067439522
 20
101.77641349777822
 30
0.0
 10
-75.85143274476954
 20
99.84699298789515
 30
0.0
 10
-75.45385577715169
 20
98.06576631979394
 30
0.0
 10
-75.02903781875155
 20
96.43280917287338
 30
0.0
 10
-74.5868012934789
 20
94.94769037380857
 30
0.0
 10
-74.46235384170998
 20
94.57752621163056
 30
0.0
 10
-74.3866935044436
 20
94.27568835146909
 30
0.0
 10
-74.418837565521
 20
94.08726128615483
 30
0.0
 10
-76.5586825397281
 20
92.35444899252825
 30
0.0
 10
-76.74967514766682
 20
92.36218354605316
 30
0.0
 10
-77.02918645775803
 20
92.49894614325906
 30
0.0
 10
-77.36538756474918
 20
92.69763557648743
 30
0.0
 10
-78.72610681114139
 20
93.4389817332149
 30
0.0
 10
-80.23505530648184
 20
94.19402728142198
 30
0.0
 10
-81.89469699868097
 20
94.95325408670043
 30
0.0
 10
-83.70700954449688
 20
95.70699400771406
 30
0.0
 10
-84.84280877639387
 20
96.13351479386453
 30
0.0
 10
-85.83532752232811
 20
95.32978896076023
 30
0.0
 10
-86.73839692050029
 20
94.42671956258806
 30
0.0
 10
-86.43293600813416
 20
93.25255879539391
 30
0.0
 10
-85.87276339864817
 20
91.37138701168362
 30
0.0
 10
-85.29117551291013
 20
89.64147619909882
 30
0.0
 10
-84.69799425058599
 20
88.06187013064827
 30
0.0
 10
-84.10294315743461
 20
86.63111327214285
 30
0.0
 10
-83.9404847507984
 20
86.27598520886716
 30
0.0
 10
-83.83368824109736
 20
85.98370950687021
 30
0.0
 10
-83.84596022206958
 20
85.79295469542762
 30
0.0
 10
-85.7929546954282
 20
83.84596022206779
 30
0.0
 10
-85.98370950687078
 20
83.83368824109589
 30
0.0
 10
-86.27598520887798
 20
83.94048475077483
 30
0.0
 10
-86.6311132721506
 20
84.10294315743609
 30
0.0
 10
-88.06187013064877
 20
84.69799425058457
 30
0.0
 10
-89.64147619909903
 20
85.29117551290888
 30
0.0
 10
-91.37138701168448
 20
85.8727633986483
 30
0.0
 10
-93.25255879539607
 20
86.43293600813469
 30
0.0
 10
-94.42671956258812
 20
86.73839692050024
 30
0.0
 10
-95.32978896076024
 20
85.83532752232811
 30
0.0
 10
-96.13351479386455
 20
84.8428087763939
 30
0.0
 10
-95.70699400771328
 20
83.70700954449484
 30
0.0
 10
-94.95325408670018
 20
81.89469699868019
 30
0.0
 10
-94.19402728142316
 20
80.23505530648153
 30
0.0
 10
-93.43898173321621
 20
78.7261068111408
 30
0.0
 10
-92.6976355764851
 20
77.36538756474168
 30
0.0
 10
-92.49894614328134
 20
77.02918645774486
 30
0.0
 10
-92.36218354605452
 20
76.74967514766617
 30
0.0
 10
-92.35444899252992
 20
76.55868253972739
 30
0.0
 10
-94.08726128615518
 20
74.41883756551923
 30
0.0
 10
-94.27568835146943
 20
74.38669350444212
 30
0.0
 10
-94.57752621163881
 20
74.46235384168544
 30
0.0
 10
-94.94769037381639
 20
74.5868012934796
 30
0.0
 10
-96.43280917287368
 20
75.02903781875013
 30
0.0
 10
-98.065766319794
 20
75.4538557771505
 30
0.0
 10
-99.84699298789597
 20
75.85143274476962
 30
0.0
 10
-101.77641349778035
 20
76.21190067439557
 30
0.0
 10
-102.97607144919311
 20
76.39295501929848
 30
0.0
 10
-103.7797972822974
 20
75.40043627336422
 30
0.0
 10
-104.47537376191599
 20
74.32934242274631
 30
0.0
 10
-103.93246615296785
 20
73.24434878020834
 30
0.0
 10
-102.99341705273248
 20
71.52075154779203
 30
0.0
 10
-102.06486957567353
 20
69.94956235766165
 30
0.0
 10
-101.15623217861337
 20
68.52780379091341
 30
0.0
 10
-100.27671330193235
 20
67.25203048143297
 30
0.0
 10
-100.04396972516962
 20
66.93843982039789
 30
0.0
 10
-99.87873944005167
 20
66.67475528664218
 30
0.0
 10
-99.85108309341724
 20
66.48561743718756
 30
0.0
 10
-101.35072815320588
 20
64.17636655145982
 30
0.0
 10
-101.53476302603332
 20
64.12470258733725
 30
0.0
 10
-101.84285604560523
 20
64.16839780165719
 30
0.0
 10
-102.2240007106651
 20
64.2534708262601
 30
0.0
 10
-103.74721017793797
 20
64.53804754773786
 30
0.0
 10
-105.41562738310841
 20
64.78984780776315
 30
0.0
 10
-107.22865441460556
 20
64.99905792080644
 30
0.0
 10
-109.18518451579926
 20
65.15587180850221
 30
0.0
 10
-110.39719594787265
 20
65.21053591665179
 30
0.0
 10
-111.0927724274911
 20
64.13944206603385
 30
0.0
 10
-111.67257867215429
 20
63.001508239100275
 30
0.0
 10
-111.01923244978367
 20
61.979207603320575
 30
0.0
 10
-109.90516258877688
 20
60.363209776266864
 30
0.0
 10
-108.81746780040568
 20
58.89768736576428
 30
0.0
 10
-107.76519377595912
 20
57.57869581198797
 30
0.0
 10
-106.75713837219226
 20
56.40184607877758
 30
0.0
 10
-106.49289063920233
 20
56.11430162860961
 30
0.0
 10
-106.30100296377364
 20
55.86933285410823
 30
0.0
 10
-106.25372783275056
 20
55.68412199699604
 30
0.0
 10
-107.50377523360663
 20
53.2307658356946
 30
0.0
 10
-107.68140158936879
 20
53.16014800972888
 30
0.0
 10
-107.9923742367482
 20
53.17139936721352
 30
0.0
 10
-108.38032350398032
 20
53.21616588676494
 30
0.0
 10
-109.92493503779325
 20
53.33996492233791
 30
0.0
 10
-111.61053277317524
 20
53.415988707646704
 30
0.0
 10
-113.43549626451015
 20
53.434539816335615
 30
0.0
 10
-115.39769980379428
 20
53.3859815763322
 30
0.0
 10
-116.60878566564868
 20
53.313656536320295
 30
0.0
 10
-117.18859191031193
 20
52.17572270938673
 30
0.0
 10
-117.64627544147113
 20
50.98341634727348
 30
0.0
 10
-116.88964880361176
 20
50.03500925794776
 30
0.0
 10
-115.6127641643648
 20
48.544316046619144
 30
0.0
 10
-114.37783907639756
 20
47.2005169859541
 30
0.0
 10
-113.1934573589789
 20
45.998743592629616
 30
0.0
 10
-112.06790989407902
 20
44.93371124763799
 30
0.0
 10
-111.77505315832191
 20
44.6753634055057
 30
0.0
 10
-111.55861045410957
 20
44.451794319415114
 30
0.0
 10
-111.49223449492628
 20
44.27253966355372
 30
0.0
 10
-112.4789884559368
 20
41.70195771017958
 30
0.0
 10
-112.64826018310922
 20
41.61315972604971
 30
0.0
 10
-112.95870537689623
 20
41.591843954471955
 30
0.0
 10
-113.3492087929452
 20
41.59581349761569
 30
0.0
 10
-114.898299306103
 20
41.557478479143526
 30
0.0
 10
-116.58260981017368
 20
41.45689285723498
 30
0.0
 10
-118.39951507943715
 20
41.28458171174065
 30
0.0
 10
-120.34589374421779
 20
41.031183358276984
 30
0.0
 10
-121.54278512571469
 20
40.83266157837694
 30
0.0
 10
-122.00046865687389
 20
39.640355216263664
 30
0.0
 10
-122.33101499798528
 20
38.40673947698015
 30
0.0
 10
-121.4793977044159
 20
37.54261688064605
 30
0.0
 10
-120.05368810224168
 20
36.193560631813455
 30
0.0
 10
-118.68506281236682
 20
34.98620786470264
 30
0.0
 10
-117.38154973591993
 20
33.914819512614486
 30
0.0
 10
-116.15084194344844
 20
32.973273273085674
 30
0.0
 10
-115.83258480460529
 20
32.74695255201025
 30
0.0
 10
-115.59395846317021
 20
32.5472326240225
 30
0.0
 10
-115.5092089047256
 20
32.37589812093299
 30
0.0
 10
-116.22185834300215
 20
29.71625420929615
 30
0.0
 10
-116.38092086511958
 20
29.610248956298435
 30
0.0
 10
-116.68743730280622
 20
29.55659959571231
 30
0.0
 10
-117.07621643052772
 20
29.519728671302992
 30
0.0
 10
-118.6128137632002
 20
29.319679605270196
 30
0.0
 10
-120.27738337761232
 20
29.043586613266843
 30
0.0
 10
-122.06632403046243
 20
28.68230109055773
 30
0.0
 10
-123.97555288878233
 20
28.226838909021374
 30
0.0
 10
-125.14513639748054
 20
27.90429543539712
 30
0.0
 10
-125.47568273859187
 20
26.67067969611366
 30
0.0
 10
-125.67547035477077
 20
25.40927033185015
 30
0.0
 10
-124.73819290277214
 20
24.638899736502374
 30
0.0
 10
-123.179278710421
 20
23.44626099273618
 30
0.0
 10
-121.69194816371768
 20
22.388582528750867
 30
0.0
 10
-120.28358529028574
 20
21.459317572886945
 30
0.0
 10
-118.9612010623591
 20
20.65157321645246
 30
0.0
 10
-118.62103041224269
 20
20.45975923361464
 30
0.0
 10
-118.36283487371738
 20
20.28607663705484
 30
0.0
 10
-118.26064024990876
 20
20.124539463407103
 30
0.0
 10
-118.69137722907412
 20
17.404973208769746
 30
0.0
 10
-118.83848782385826
 20
17.282922102639056
 30
0.0
 10
-119.13771724721055
 20
17.197526946665985
 30
0.0
 10
-119.52051254112398
 20
17.120219520267185
 30
0.0
 10
-121.02778141138072
 20
16.760648186104167
 30
0.0
 10
-122.65437276310523
 20
16.31207275660256
 30
0.0
 10
-124.39574879138944
 20
15.765771176469322
 30
0.0
 10
-126.24690993234502
 20
15.113235305832784
 30
0.0
 10
-127.37637136657193
 20
14.670203992277884
 30
0.0
 10
-127.57615898275093
 20
13.408794628014395
 30
0.0
 10
-127.6429989590667
 20
12.13341190373271
 30
0.0
 10
-126.63033035654065
 20
11.465233650824283
 30
0.0
 10
-124.95529136412775
 20
10.442079211776887
 30
0.0
 10
-123.36555106530955
 20
9.545663197501954
 30
0.0
 10
-121.86776871325277
 20
8.768702859179907
 30
0.0
 10
-120.46819636819883
 20
8.103610202040208
 30
0.0
 10
-120.10983918763712
 20
7.948404511575631
 30
0.0
 10
-119.83490329637257
 20
7.802662149317109
 30
0.0
 10
-119.71638327288397
 20
7.652692140189462
 30
0.0
 10
-119.8604885484569
 20
4.902999679543212
 30
0.0
 10
-119.99403544144641
 20
4.766239937739148
 30
0.0
 10
-120.28269943028432
 20
4.650034593578059
 30
0.0
 10
-120.65531690504453
 20
4.533137661531019
 30
0.0
 10
-122.11674335972668
 20
4.017983598020009
 30
0.0
 10
-123.68753517352796
 20
3.4018404172962144
 30
0.0
 10
-125.36226769707402
 20
2.676508174171747
 30
0.0
 10
-127.1350794118246
 20
1.8340479339856246
 30
0.0
 10
-128.21204415575212
 20
1.2753827242817035
 30
0.0
 10
-128.27888413206767
 20
4.3520742565306136e-14
 30
0.0
 10
-128.2120441557522
 20
-1.2753827242816707
 30
0.0
 10
-127.13507941182266
 20
-1.834047933986574
 30
0.0
 10
-125.3622676970733
 20
-2.6765081741721315
 30
0.0
 10
-123.68753517352864
 20
-3.4018404172971857
 30
0.0
 10
-122.11674335972727
 20
-4.017983598021294
 30
0.0
 10
-120.6553169050378
 20
-4.533137661534996
 30
0.0
 10
-120.28269943029207
 20
-4.650034593602726
 30
0.0
 10
-119.994035441447
 20
-4.766239937740515
 30
0.0
 10
-119.86048854845768
 20
-4.9029996795448305
 30
0.0
 10
-119.71638327288304
 20
-7.6526921401909895
 30
0.0
 10
-119.83490329637185
 20
-7.802662149318407
 30
0.0
 10
-120.10983918762685
 20
-7.948404511599352
 30
0.0
 10
-120.46819636820511
 20
-8.10361020204487
 30
0.0
 10
-121.86776871325206
 20
-8.768702859181126
 30
0.0
 10
-123.36555106530878
 20
-9.545663197502849
 30
0.0
 10
-124.95529136412841
 20
-10.442079211777342
 30
0.0
 10
-126.63033035654249
 20
-11.465233650825427
 30
0.0
 10
-127.6429989590667
 20
-12.133411903732668
 30
0.0
 10
-127.57615898275114
 20
-13.408794628014446
 30
0.0
 10
-127.37637136657204
 20
-14.670203992277928
 30
0.0
 10
-126.24690993234297
 20
-15.11323530583358
 30
0.0
 10
-124.39574879138868
 20
-15.76577117646969
 30
0.0
 10
-122.6543727631058
 20
-16.31207275660365
 30
0.0
 10
-121.02778141138114
 20
-16.760648186105563
 30
0.0
 10
-119.52051254111687
 20
-17.12021952027049
 30
0.0
 10
-119.13771724721566
 20
-17.19752694669138
 30
0.0
 10
-118.8384878238587
 20
-17.28292210264053
 30
0.0
 10
-118.69137722907472
 20
-17.404973208771487
 30
0.0
 10
-118.26064024990765
 20
-20.124539463408578
 30
0.0
 10
-118.36283487371652
 20
-20.28607663705611
 30
0.0
 10
-118.62103041222998
 20
-20.45975923363721
 30
0.0
 10
-118.96120106236485
 20
-20.651573216457805
 30
0.0
 10
-120.2835852902849
 20
-21.459317572888143
 30
0.0
 10
-121.69194816371682
 20
-22.388582528751733
 30
0.0
 10
-123.1792787104216
 20
-23.446260992736754
 30
0.0
 10
-124.73819290277385
 20
-24.638899736503763
 30
0.0
 10
-125.67547035477088
 20
-25.409270331850188
 30
0.0
 10
-125.47568273859189
 20
-26.670679696113673
 30
0.0
 10
-125.14513639748053
 20
-27.904295435397202
 30
0.0
 10
-123.97555288878021
 20
-28.226838909022007
 30
0.0
 10
-122.06632403046163
 20
-28.68230109055807
 30
0.0
 10
-120.27738337761276
 20
-29.043586613268037
 30
0.0
 10
-118.61281376320046
 20
-29.31967960527168
 30
0.0
 10
-117.07621643052026
 20
-29.519728671305582
 30
0.0
 10
-116.68743730280865
 20
-29.55659959573815
 30
0.0
 10
-116.38092086511985
 20
-29.6102489563
 30
0.0
 10
-116.22185834300255
 20
-29.716254209297993
 30
0.0
 10
-115.50920890472435
 20
-32.37589812093438
 30
0.0
 10
-115.5939584631692
 20
-32.547232624023714
 30
0.0
 10
-115.83258480459028
 20
-32.746952552031416
 30
0.0
 10
-116.1508419434536
 20
-32.97327327309164
 30
0.0
 10
-117.38154973591897
 20
-33.91481951261564
 30
0.0
 10
-118.68506281236587
 20
-34.986207864703466
 30
0.0
 10
-120.0536881022422
 20
-36.193560631814144
 30
0.0
 10
-121.47939770441744
 20
-37.542616880647664
 30
0.0
 10
-122.3310149979854
 20
-38.40673947698028
 30
0.0
 10
-122.00046865687409
 20
-39.64035521626374
 30
0.0
 10
-121.54278512571474
 20
-40.83266157837697
 30
0.0
 10
-120.34589374421563
 20
-41.031183358277346
 30
0.0
 10
-118.39951507943634
 20
-41.28458171174086
 30
0.0
 10
-116.582609810174
 20
-41.45689285723618
 30
0.0
 10
-114.89829930610314
 20
-41.55747847914499
 30
0.0
 10
-113.34920879293755
 20
-41.59581349761744
 30
0.0
 10
-112.95870537689596
 20
-41.59184395449786
 30
0.0
 10
-112.64826018310934
 20
-41.61315972605124
 30
0.0
 10
-112.47898845593701
 20
-41.701957710181404
 30
0.0
 10
-111.4922344949249
 20
-44.27253966355494
 30
0.0
 10
-111.55861045410846
 20
-44.45179431941617
 30
0.0
 10
-111.77505315830479
 20
-44.67536340552513
 30
0.0
 10
-112.06790989408354
 20
-44.93371124764441
 30
0.0
 10
-113.19345735897782
 20
-45.9987435926306
 30
0.0
 10
-114.37783907639654
 20
-47.20051698595477
 30
0.0
 10
-115.61276416436527
 20
-48.54431604661984
 30
0.0
 10
-116.88964880361314
 20
-50.03500925794947
 30
0.0
 10
-117.64627544147102
 20
-50.98341634727347
 30
0.0
 10
-117.18859191031181
 20
-52.17572270938672
 30
0.0
 10
-116.60878566564868
 20
-53.313656536320316
 30
0.0
 10
-115.39769980379211
 20
-53.38598157633232
 30
0.0
 10
-113.43549626450934
 20
-53.43453981633573
 30
0.0
 10
-111.61053277317545
 20
-53.41598870764792
 30
0.0
 10
-109.92493503779326
 20
-53.33996492233937
 30
0.0
 10
-108.38032350397253
 20
-53.21616588676588
 30
0.0
 10
-107.99237423674523
 20
-53.17139936723925
 30
0.0
 10
-107.68140158936876
 20
-53.16014800973041
 30
0.0
 10
-107.50377523360669
 20
-53.23076583569644
 30
0.0
 10
-106.25372783274906
 20
-55.68412199699709
 30
0.0
 10
-106.30100296377243
 20
-55.869332854109174
 30
0.0
 10
-106.49289063918327
 20
-56.114301628627146
 30
0.0
 10
-106.7571383721961
 20
-56.401846078784445
 30
0.0
 10
-107.76519377595797
 20
-57.578695811988844
 30
0.0
 10
-108.8174678004046
 20
-58.89768736576483
 30
0.0
 10
-109.90516258877729
 20
-60.3632097762676
 30
0.0
 10
-111.01923244978488
 20
-61.979207603322415
 30
0.0
 10
-111.6725786721543
 20
-63.00150823910031
 30
0.0
 10
-111.0927724274911
 20
-64.1394420660338
 30
0.0
 10
-110.39719594787267
 20
-65.21053591665184
 30
0.0
 10
-109.18518451579709
 20
-65.1558718085021
 30
0.0
 10
-107.22865441460472
 20
-64.99905792080645
 30
0.0
 10
-105.41562738310849
 20
-64.78984780776436
 30
0.0
 10
-103.7472101779378
 20
-64.5380475477393
 30
0.0
 10
-102.22400071065724
 20
-64.25347082626021
 30
0.0
 10
-101.84285604559958
 20
-64.16839780168246
 30
0.0
 10
-101.5347630260331
 20
-64.12470258733877
 30
0.0
 10
-101.35072815320571
 20
-64.17636655146165
 30
0.0
 10
-99.85108309341562
 20
-66.48561743718844
 30
0.0
 10
-99.87873944005035
 20
-66.67475528664298
 30
0.0
 10
-100.04396972514883
 20
-66.93843982041332
 30
0.0
 10
-100.27671330193543
 20
-67.2520304814402
 30
0.0
 10
-101.1562321786121
 20
-68.52780379091415
 30
0.0
 10
-102.06486957567238
 20
-69.94956235766207
 30
0.0
 10
-102.99341705273278
 20
-71.5207515477928
 30
0.0
 10
-103.93246615296883
 20
-73.24434878021029
 30
0.0
 10
-104.47537376191593
 20
-74.3293424227463
 30
0.0
 10
-103.77979728229744
 20
-75.40043627336428
 30
0.0
 10
-102.97607144919319
 20
-76.39295501929854
 30
0.0
 10
-101.77641349777822
 20
-76.21190067439522
 30
0.0
 10
-99.84699298789515
 20
-75.85143274476954
 30
0.0
 10
-98.06576631979394
 20
-75.45385577715169
 30
0.0
 10
-96.43280917287338
 20
-75.02903781875155
 30
0.0
 10
-94.94769037380857
 20
-74.5868012934789
 30
0.0
 10
-94.57752621163056
 20
-74.46235384170998
 30
0.0
 10
-94.27568835146909
 20
-74.3866935044436
 30
0.0
 10
-94.08726128615483
 20
-74.418837565521
 30
0.0
 10
-92.35444899252825
 20
-76.5586825397281
 30
0.0
 10
-92.36218354605316
 20
-76.74967514766682
 30
0.0
 10
-92.49894614325906
 20
-77.02918645775803
 30
0.0
 10
-92.69763557648743
 20
-77.36538756474918
 30
0.0
 10
-93.4389817332149
 20
-78.72610681114139
 30
0.0
 10
-94.19402728142198
 20
-80.23505530648184
 30
0.0
 10
-94.95325408670043
 20
-81.89469699868097
 30
0.0
 10
-95.70699400771406
 20
-83.70700954449688
 30
0.0
 10
-96.13351479386453
 20
-84.84280877639388
 30
0.0
 10
-95.32978896076028
 20
-85.83532752232809
 30
0.0
 10
-94.42671956258816
 20
-86.73839692050029
 30
0.0
 10
-93.25255879539395
 20
-86.43293600813412
 30
0.0
 10
-91.37138701168368
 20
-85.87276339864815
 30
0.0
 10
-89.64147619909886
 20
-85.29117551291009
 30
0.0
 10
-88.06187013064833
 20
-84.69799425058595
 30
0.0
 10
-86.63111327214291
 20
-84.10294315743457
 30
0.0
 10
-86.27598520886721
 20
-83.94048475079836
 30
0.0
 10
-85.98370950687027
 20
-83.83368824109732
 30
0.0
 10
-85.79295469542767
 20
-83.84596022206952
 30
0.0
 10
-83.84596022206783
 20
-85.79295469542815
 30
0.0
 10
-83.83368824109593
 20
-85.98370950687072
 30
0.0
 10
-83.94048475077487
 20
-86.27598520887794
 30
0.0
 10
-84.10294315743614
 20
-86.63111327215056
 30
0.0
 10
-84.69799425058463
 20
-88.06187013064873
 30
0.0
 10
-85.29117551290894
 20
-89.64147619909899
 30
0.0
 10
-85.87276339864835
 20
-91.37138701168443
 30
0.0
 10
-86.43293600813473
 20
-93.25255879539603
 30
0.0
 10
-86.73839692050029
 20
-94.42671956258805
 30
0.0
 10
-85.83532752232809
 20
-95.32978896076023
 30
0.0
 10
-84.84280877639394
 20
-96.13351479386459
 30
0.0
 10
-83.70700954449484
 20
-95.70699400771328
 30
0.0
 10
-81.89469699868019
 20
-94.95325408670018
 30
0.0
 10
-80.23505530648153
 20
-94.19402728142316
 30
0.0
 10
-78.7261068111408
 20
-93.43898173321621
 30
0.0
 10
-77.36538756474168
 20
-92.6976355764851
 30
0.0
 10
-77.02918645774486
 20
-92.49894614328134
 30
0.0
 10
-76.74967514766617
 20
-92.36218354605452
 30
0.0
 10
-76.55868253972739
 20
-92.35444899252992
 30
0.0
 10
-74.41883756551923
 20
-94.08726128615518
 30
0.0
 10
-74.38669350444212
 20
-94.27568835146943
 30
0.0
 10
-74.46235384168544
 20
-94.57752621163881
 30
0.0
 10
-74.5868012934796
 20
-94.94769037381639
 30
0.0
 10
-75.02903781875013
 20
-96.43280917287368
 30
0.0
 10
-75.4538557771505
 20
-98.065766319794
 30
0.0
 10
-75.85143274476962
 20
-99.84699298789597
 30
0.0
 10
-76.21190067439557
 20
-101.77641349778035
 30
0.0
 10
-76.39295501929848
 20
-102.97607144919311
 30
0.0
 10
-75.40043627336426
 20
-103.77979728229735
 30
0.0
 10
-74.32934242274636
 20
-104.47537376191593
 30
0.0
 10
-73.24434878020841
 20
-103.93246615296782
 30
0.0
 10
-71.52075154779209
 20
-102.99341705273244
 30
0.0
 10
-69.9495623576617
 20
-102.06486957567348
 30
0.0
 10
-68.52780379091348
 20
-101.15623217861334
 30
0.0
 10
-67.25203048143304
 20
-100.27671330193232
 30
0.0
 10
-66.93843982039795
 20
-100.04396972516959
 30
0.0
 10
-66.67475528664224
 20
-99.87873944005163
 30
0.0
 10
-66.48561743718761
 20
-99.85108309341722
 30
0.0
 10
-64.17636655145988
 20
-101.35072815320585
 30
0.0
 10
-64.12470258733731
 20
-101.53476302603327
 30
0.0
 10
-64.16839780165726
 20
-101.8428560456052
 30
0.0
 10
-64.25347082626016
 20
-102.22400071066507
 30
0.0
 10
-64.53804754773792
 20
-103.74721017793794
 30
0.0
 10
-64.78984780776321
 20
-105.41562738310839
 30
0.0
 10
-64.9990579208065
 20
-107.22865441460553
 30
0.0
 10
-65.15587180850227
 20
-109.18518451579924
 30
0.0
 10
-65.21053591665188
 20
-110.39719594787262
 30
0.0
 10
-64.13944206603382
 20
-111.09277242749116
 30
0.0
 10
-63.001508239100275
 20
-111.67257867215439
 30
0.0
 10
-61.97920760332054
 20
-111.0192324497837
 30
0.0
 10
-60.36320977626683
 20
-109.9051625887769
 30
0.0
 10
-58.89768736576424
 20
-108.81746780040571
 30
0.0
 10
-57.57869581198793
 20
-107.76519377595915
 30
0.0
 10
-56.401846078777545
 20
-106.75713837219229
 30
0.0
 10
-56.11430162860957
 20
-106.49289063920236
 30
0.0
 10
-55.8693328541082
 20
-106.30100296377367
 30
0.0
 10
-55.684121996996
 20
-106.25372783275058
 30
0.0
 10
-53.230765835694555
 20
-107.50377523360667
 30
0.0
 10
-53.160148009728836
 20
-107.68140158936882
 30
0.0
 10
-53.17139936721348
 20
-107.99237423674823
 30
0.0
 10
-53.2161658867649
 20
-108.38032350398035
 30
0.0
 10
-53.33996492233788
 20
-109.92493503779329
 30
0.0
 10
-53.41598870764667
 20
-111.61053277317527
 30
0.0
 10
-53.43453981633558
 20
-113.43549626451018
 30
0.0
 10
-53.385981576332156
 20
-115.39769980379431
 30
0.0
 10
-53.313656536320245
 20
-116.60878566564868
 30
0.0
 10
-52.17572270938673
 20
-117.1885919103119
 30
0.0
 10
-50.98341634727346
 20
-117.64627544147106
 30
0.0
 10
-50.03500925794777
 20
-116.88964880361176
 30
0.0
 10
-48.54431604661915
 20
-115.61276416436479
 30
0.0
 10
-47.20051698595412
 20
-114.37783907639756
 30
0.0
 10
-45.99874359262962
 20
-113.1934573589789
 30
0.0
 10
-44.933711247637994
 20
-112.06790989407902
 30
0.0
 10
-44.6753634055057
 20
-111.77505315832191
 30
0.0
 10
-44.45179431941512
 20
-111.55861045410957
 30
0.0
 10
-44.27253966355373
 20
-111.49223449492628
 30
0.0
 10
-41.701957710179585
 20
-112.4789884559368
 30
0.0
 10
-41.613159726049716
 20
-112.64826018310922
 30
0.0
 10
-41.59184395447196
 20
-112.95870537689623
 30
0.0
 10
-41.595813497615694
 20
-113.3492087929452
 30
0.0
 10
-41.55747847914353
 20
-114.898299306103
 30
0.0
 10
-41.45689285723499
 20
-116.58260981017368
 30
0.0
 10
-41.28458171174066
 20
-118.39951507943715
 30
0.0
 10
-41.03118335827699
 20
-120.34589374421779
 30
0.0
 10
-40.83266157837693
 20
-121.54278512571469
 30
0.0
 10
-39.640355216263714
 20
-122.00046865687385
 30
0.0
 10
-38.40673947698022
 20
-122.33101499798526
 30
0.0
 10
-37.542616880646115
 20
-121.47939770441587
 30
0.0
 10
-36.19356063181351
 20
-120.05368810224167
 30
0.0
 10
-34.9862078647027
 20
-118.68506281236681
 30
0.0
 10
-33.91481951261454
 20
-117.38154973591992
 30
0.0
 10
-32.97327327308573
 20
-116.15084194344841
 30
0.0
 10
-32.746952552010306
 20
-115.83258480460528
 30
0.0
 10
-32.54723262402255
 20
-115.59395846317018
 30
0.0
 10
-32.375898120933044
 20
-115.50920890472558
 30
0.0
 10
-29.716254209296206
 20
-116.22185834300214
 30
0.0
 10
-29.61024895629849
 20
-116.38092086511956
 30
0.0
 10
-29.556599595712367
 20
-116.6874373028062
 30
0.0
 10
-29.51972867130305
 20
-117.0762164305277
 30
0.0
 10
-29.319679605270252
 20
-118.61281376320018
 30
0.0
 10
-29.0435866132669
 20
-120.27738337761231
 30
0.0
 10
-28.682301090557786
 20
-122.0663240304624
 30
0.0
 10
-28.226838909021435
 20
-123.97555288878232
 30
0.0
 10
-27.90429543539718
 20
-125.14513639748053
 30
0.0
 10
-26.670679696113616
 20
-125.47568273859189
 30
0.0
 10
-25.40927033185009
 20
-125.67547035477071
 30
0.0
 10
-24.638899736502328
 20
-124.73819290277217
 30
0.0
 10
-23.44626099273613
 20
-123.17927871042102
 30
0.0
 10
-22.388582528750824
 20
-121.6919481637177
 30
0.0
 10
-21.459317572886903
 20
-120.28358529028576
 30
0.0
 10
-20.651573216452412
 20
-118.96120106235911
 30
0.0
 10
-20.459759233614598
 20
-118.6210304122427
 30
0.0
 10
-20.286076637054794
 20
-118.3628348737174
 30
0.0
 10
-20.12453946340706
 20
-118.26064024990879
 30
0.0
 10
-17.4049732087697
 20
-118.69137722907413
 30
0.0
 10
-17.28292210263901
 20
-118.83848782385827
 30
0.0
 10
-17.197526946665942
 20
-119.13771724721056
 30
0.0
 10
-17.12021952026714
 20
-119.520512541124
 30
0.0
 10
-16.76064818610412
 20
-121.02778141138073
 30
0.0
 10
-16.312072756602515
 20
-122.65437276310524
 30
0.0
 10
-15.765771176469277
 20
-124.39574879138945
 30
0.0
 10
-15.113235305832736
 20
-126.24690993234503
 30
0.0
 10
-14.670203992277841
 20
-127.37637136657195
 30
0.0
 10
-13.408794628014403
 20
-127.57615898275094
 30
0.0
 10
-12.133411903732721
 20
-127.64299895906679
 30
0.0
 10
-11.46523365082429
 20
-126.63033035654065
 30
0.0
 10
-10.442079211776894
 20
-124.95529136412775
 30
0.0
 10
-9.54566319750196
 20
-123.36555106530955
 30
0.0
 10
-8.768702859179916
 20
-121.86776871325277
 30
0.0
 10
-8.103610202040215
 20
-120.46819636819883
 30
0.0
 10
-7.948404511575638
 20
-120.10983918763712
 30
0.0
 10
-7.802662149317116
 20
-119.83490329637257
 30
0.0
 10
-7.652692140189469
 20
-119.71638327288397
 30
0.0
 10
-4.902999679543219
 20
-119.8604885484569
 30
0.0
 10
-4.766239937739155
 20
-119.99403544144641
 30
0.0
 10
-4.6500345935780665
 20
-120.28269943028432
 30
0.0
 10
-4.533137661531026
 20
-120.65531690504453
 30
0.0
 10
-4.017983598020016
 20
-122.11674335972668
 30
0.0
 10
-3.401840417296222
 20
-123.68753517352796
 30
0.0
 10
-2.6765081741717545
 20
-125.36226769707402
 30
0.0
 10
-1.8340479339856324
 20
-127.1350794118246
 30
0.0
 10
-1.2753827242817142
 20
-128.21204415575215
 30
0.0
 10
5.861977570020827e-14
 20
-128.2788841320677
 30
0.0
 10
1.2753827242817692
 20
-128.2120441557521
 30
0.0
 10
1.8340479339866789
 20
-127.13507941182266
 30
0.0
 10
2.6765081741722363
 20
-125.3622676970733
 30
0.0
 10
3.4018404172972887
 20
-123.68753517352863
 30
0.0
 10
4.017983598021397
 20
-122.11674335972725
 30
0.0
 10
4.533137661535095
 20
-120.65531690503778
 30
0.0
 10
4.6500345936028245
 20
-120.28269943029206
 30
0.0
 10
4.766239937740614
 20
-119.994035441447
 30
0.0
 10
4.902999679544929
 20
-119.86048854845768
 30
0.0
 10
7.652692140191088
 20
-119.71638327288302
 30
0.0
 10
7.802662149318505
 20
-119.83490329637183
 30
0.0
 10
7.948404511599451
 20
-120.10983918762683
 30
0.0
 10
8.103610202044967
 20
-120.46819636820511
 30
0.0
 10
8.768702859181229
 20
-121.86776871325205
 30
0.0
 10
9.54566319750295
 20
-123.36555106530876
 30
0.0
 10
10.442079211777447
 20
-124.9552913641284
 30
0.0
 10
11.465233650825532
 20
-126.63033035654247
 30
0.0
 10
12.133411903732775
 20
-127.64299895906666
 30
0.0
 10
13.408794628014434
 20
-127.57615898275111
 30
0.0
 10
14.670203992277912
 20
-127.376371366572
 30
0.0
 10
15.11323530583357
 20
-126.24690993234297
 30
0.0
 10
15.765771176469679
 20
-124.39574879138868
 30
0.0
 10
16.31207275660364
 20
-122.6543727631058
 30
0.0
 10
16.76064818610555
 20
-121.02778141138114
 30
0.0
 10
17.12021952027048
 20
-119.52051254111687
 30
0.0
 10
17.19752694669137
 20
-119.13771724721566
 30
0.0
 10
17.28292210264052
 20
-118.83848782385869
 30
0.0
 10
17.40497320877148
 20
-118.69137722907472
 30
0.0
 10
20.124539463408567
 20
-118.26064024990765
 30
0.0
 10
20.286076637056098
 20
-118.36283487371652
 30
0.0
 10
20.459759233637204
 20
-118.62103041222998
 30
0.0
 10
20.65157321645779
 20
-118.96120106236485
 30
0.0
 10
21.459317572888132
 20
-120.2835852902849
 30
0.0
 10
22.388582528751723
 20
-121.69194816371682
 30
0.0
 10
23.446260992736743
 20
-123.1792787104216
 30
0.0
 10
24.638899736503753
 20
-124.73819290277385
 30
0.0
 10
25.40927033185018
 20
-125.6754703547709
 30
0.0
 10
26.670679696113616
 20
-125.47568273859191
 30
0.0
 10
27.904295435397138
 20
-125.14513639748051
 30
0.0
 10
28.226838909021943
 20
-123.97555288878021
 30
0.0
 10
28.682301090558003
 20
-122.06632403046163
 30
0.0
 10
29.043586613267973
 20
-120.27738337761278
 30
0.0
 10
29.319679605271617
 20
-118.61281376320048
 30
0.0
 10
29.519728671305522
 20
-117.07621643052028
 30
0.0
 10
29.556599595738092
 20
-116.68743730280866
 30
0.0
 10
29.610248956299934
 20
-116.38092086511986
 30
0.0
 10
29.716254209297936
 20
-116.22185834300255
 30
0.0
 10
32.37589812093432
 20
-115.50920890472435
 30
0.0
 10
32.54723262402365
 20
-115.5939584631692
 30
0.0
 10
32.74695255203136
 20
-115.8325848045903
 30
0.0
 10
32.973273273091586
 20
-116.1508419434536
 30
0.0
 10
33.91481951261557
 20
-117.38154973591898
 30
0.0
 10
34.9862078647034
 20
-118.68506281236589
 30
0.0
 10
36.19356063181408
 20
-120.05368810224222
 30
0.0
 10
37.54261688064759
 20
-121.47939770441744
 30
0.0
 10
38.40673947698017
 20
-122.33101499798526
 30
0.0
 10
39.640355216263735
 20
-122.0004686568739
 30
0.0
 10
40.83266157837701
 20
-121.54278512571472
 30
0.0
 10
41.03118335827739
 20
-120.34589374421562
 30
0.0
 10
41.284581711740906
 20
-118.39951507943633
 30
0.0
 10
41.45689285723622
 20
-116.58260981017399
 30
0.0
 10
41.55747847914503
 20
-114.89829930610313
 30
0.0
 10
41.595813497617485
 20
-113.34920879293753
 30
0.0
 10
41.591843954497904
 20
-112.95870537689595
 30
0.0
 10
41.613159726051286
 20
-112.64826018310933
 30
0.0
 10
41.701957710181446
 20
-112.478988455937
 30
0.0
 10
44.27253966355497
 20
-111.4922344949249
 30
0.0
 10
44.45179431941621
 20
-111.55861045410845
 30
0.0
 10
44.67536340552517
 20
-111.77505315830477
 30
0.0
 10
44.933711247644446
 20
-112.06790989408353
 30
0.0
 10
45.998743592630646
 20
-113.19345735897782
 30
0.0
 10
47.20051698595482
 20
-114.37783907639653
 30
0.0
 10
48.54431604661988
 20
-115.61276416436526
 30
0.0
 10
50.03500925794951
 20
-116.88964880361313
 30
0.0
 10
50.98341634727355
 20
-117.64627544147108
 30
0.0
 10
52.17572270938675
 20
-117.1885919103119
 30
0.0
 10
53.31365653632028
 20
-116.60878566564861
 30
0.0
 10
53.38598157633232
 20
-115.39769980379211
 30
0.0
 10
53.43453981633573
 20
-113.43549626450934
 30
0.0
 10
53.41598870764792
 20
-111.61053277317545
 30
0.0
 10
53.33996492233937
 20
-109.92493503779326
 30
0.0
 10
53.21616588676588
 20
-108.38032350397253
 30
0.0
 10
53.17139936723925
 20
-107.99237423674523
 30
0.0
 10
53.16014800973041
 20
-107.68140158936876
 30
0.0
 10
53.23076583569644
 20
-107.50377523360669
 30
0.0
 10
55.68412199699709
 20
-106.25372783274906
 30
0.0
 10
55.869332854109174
 20
-106.30100296377243
 30
0.0
 10
56.114301628627146
 20
-106.49289063918327
 30
0.0
 10
56.401846078784445
 20
-106.7571383721961
 30
0.0
 10
57.578695811988844
 20
-107.76519377595797
 30
0.0
 10
58.89768736576483
 20
-108.8174678004046
 30
0.0
 10
60.3632097762676
 20
-109.90516258877729
 30
0.0
 10
61.979207603322415
 20
-111.01923244978488
 30
0.0
 10
63.00150823910033
 20
-111.67257867215432
 30
0.0
 10
64.13944206603381
 20
-111.09277242749113
 30
0.0
 10
65.21053591665176
 20
-110.39719594787263
 30
0.0
 10
65.15587180850208
 20
-109.1851845157971
 30
0.0
 10
64.99905792080644
 20
-107.22865441460473
 30
0.0
 10
64.78984780776435
 20
-105.4156273831085
 30
0.0
 10
64.53804754773928
 20
-103.74721017793782
 30
0.0
 10
64.2534708262602
 20
-102.22400071065725
 30
0.0
 10
64.16839780168245
 20
-101.84285604559959
 30
0.0
 10
64.12470258733876
 20
-101.53476302603312
 30
0.0
 10
64.17636655146164
 20
-101.35072815320572
 30
0.0
 10
66.48561743718842
 20
-99.85108309341564
 30
0.0
 10
66.67475528664296
 20
-99.87873944005037
 30
0.0
 10
66.93843982041331
 20
-100.04396972514884
 30
0.0
 10
67.25203048144019
 20
-100.27671330193544
 30
0.0
 10
68.52780379091413
 20
-101.15623217861211
 30
0.0
 10
69.94956235766206
 20
-102.06486957567239
 30
0.0
 10
71.52075154779278
 20
-102.9934170527328
 30
0.0
 10
73.24434878021027
 20
-103.93246615296884
 30
0.0
 10
74.32934242274627
 20
-104.47537376191595
 30
0.0
 10
75.40043627336422
 20
-103.77979728229748
 30
0.0
 10
76.39295501929844
 20
-102.97607144919317
 30
0.0
 10
76.21190067439517
 20
-101.77641349777825
 30
0.0
 10
75.85143274476948
 20
-99.84699298789518
 30
0.0
 10
75.45385577715165
 20
-98.06576631979398
 30
0.0
 10
75.02903781875149
 20
-96.43280917287342
 30
0.0
 10
74.58680129347883
 20
-94.94769037380861
 30
0.0
 10
74.46235384170993
 20
-94.5775262116306
 30
0.0
 10
74.38669350444353
 20
-94.2756883514691
 30
0.0
 10
74.41883756552096
 20
-94.08726128615487
 30
0.0
 10
76.55868253972804
 20
-92.35444899252829
 30
0.0
 10
76.74967514766676
 20
-92.36218354605319
 30
0.0
 10
77.02918645775799
 20
-92.4989461432591
 30
0.0
 10
77.36538756474913
 20
-92.69763557648747
 30
0.0
 10
78.72610681114134
 20
-93.43898173321494
 30
0.0
 10
80.23505530648178
 20
-94.19402728142202
 30
0.0
 10
81.89469699868091
 20
-94.95325408670047
 30
0.0
 10
83.70700954449681
 20
-95.7069940077141
 30
0.0
 10
84.84280877639374
 20
-96.1335147938645
 30
0.0
 10
85.83532752232806
 20
-95.32978896076017
 30
0.0
 10
86.73839692050029
 20
-94.42671956258809
 30
0.0
 10
86.43293600813415
 20
-93.25255879539392
 30
0.0
 10
85.87276339864816
 20
-91.37138701168364
 30
0.0
 10
85.29117551291012
 20
-89.64147619909882
 30
0.0
 10
84.69799425058598
 20
-88.06187013064829
 30
0.0
 10
84.1029431574346
 20
-86.63111327214287
 30
0.0
 10
83.94048475079839
 20
-86.27598520886717
 30
0.0
 10
83.83368824109735
 20
-85.98370950687023
 30
0.0
 10
83.84596022206956
 20
-85.79295469542764
 30
0.0
 10
85.79295469542818
 20
-83.8459602220678
 30
0.0
 10
85.98370950687075
 20
-83.8336882410959
 30
0.0
 10
86.27598520887797
 20
-83.94048475077483
 30
0.0
 10
86.63111327215059
 20
-84.1029431574361
 30
0.0
 10
88.06187013064876
 20
-84.69799425058459
 30
0.0
 10
89.64147619909902
 20
-85.2911755129089
 30
0.0
 10
91.37138701168446
 20
-85.87276339864832
 30
0.0
 10
93.25255879539606
 20
-86.4329360081347
 30
0.0
 10
94.42671956258812
 20
-86.73839692050026
 30
0.0
 10
95.32978896076025
 20
-85.83532752232813
 30
0.0
 10
96.13351479386453
 20
-84.8428087763939
 30
0.0
 10
95.70699400771328
 20
-83.70700954449485
 30
0.0
 10
94.95325408670018
 20
-81.8946969986802
 30
0.0
 10
94.19402728142316
 20
-80.23505530648154
 30
0.0
 10
93.43898173321621
 20
-78.72610681114081
 30
0.0
 10
92.6976355764851
 20
-77.3653875647417
 30
0.0
 10
92.49894614328134
 20
-77.02918645774487
 30
0.0
 10
92.36218354605452
 20
-76.74967514766618
 30
0.0
 10
92.35444899252992
 20
-76.5586825397274
 30
0.0
 10
94.08726128615518
 20
-74.41883756551923
 30
0.0
 10
94.27568835146943
 20
-74.38669350444212
 30
0.0
 10
94.57752621163881
 20
-74.46235384168546
 30
0.0
 10
94.94769037381639
 20
-74.58680129347961
 30
0.0
 10
96.43280917287368
 20
-75.02903781875014
 30
0.0
 10
98.065766319794
 20
-75.45385577715051
 30
0.0
 10
99.84699298789597
 20
-75.85143274476964
 30
0.0
 10
101.77641349778035
 20
-76.21190067439558
 30
0.0
 10
102.97607144919311
 20
-76.39295501929851
 30
0.0
 10
103.77979728229738
 20
-75.4004362733643
 30
0.0
 10
104.4753737619159
 20
-74.32934242274635
 30
0.0
 10
103.9324661529678
 20
-73.24434878020841
 30
0.0
 10
102.99341705273243
 20
-71.52075154779209
 30
0.0
 10
102.06486957567347
 20
-69.9495623576617
 30
0.0
 10
101.15623217861332
 20
-68.52780379091348
 30
0.0
 10
100.2767133019323
 20
-67.25203048143304
 30
0.0
 10
100.04396972516957
 20
-66.93843982039795
 30
0.0
 10
99.87873944005163
 20
-66.67475528664224
 30
0.0
 10
99.8510830934172
 20
-66.48561743718761
 30
0.0
 10
101.35072815320584
 20
-64.17636655145988
 30
0.0
 10
101.53476302603326
 20
-64.12470258733731
 30
0.0
 10
101.84285604560519
 20
-64.16839780165726
 30
0.0
 10
102.22400071066505
 20
-64.25347082626016
 30
0.0
 10
103.74721017793793
 20
-64.53804754773792
 30
0.0
 10
105.41562738310837
 20
-64.78984780776321
 30
0.0
 10
107.22865441460551
 20
-64.9990579208065
 30
0.0
 10
109.18518451579922
 20
-65.15587180850227
 30
0.0
 10
110.39719594787262
 20
-65.21053591665188
 30
0.0
 10
111.09277242749116
 20
-64.13944206603382
 30
0.0
 10
111.67257867215429
 20
-63.00150823910023
 30
0.0
 10
111.0192324497837
 20
-61.97920760332054
 30
0.0
 10
109.9051625887769
 20
-60.363209776266835
 30
0.0
 10
108.81746780040571
 20
-58.89768736576425
 30
0.0
 10
107.76519377595915
 20
-57.578695811987934
 30
0.0
 10
106.75713837219229
 20
-56.401846078777545
 30
0.0
 10
106.49289063920236
 20
-56.114301628609574
 30
0.0
 10
106.30100296377367
 20
-55.8693328541082
 30
0.0
 10
106.25372783275058
 20
-55.684121996996005
 30
0.0
 10
107.50377523360667
 20
-53.23076583569456
 30
0.0
 10
107.68140158936882
 20
-53.16014800972884
 30
0.0
 10
107.99237423674823
 20
-53.17139936721349
 30
0.0
 10
108.38032350398035
 20
-53.216165886764905
 30
0.0
 10
109.92493503779329
 20
-53.339964922337884
 30
0.0
 10
111.61053277317527
 20
-53.415988707646676
 30
0.0
 10
113.43549626451018
 20
-53.43453981633558
 30
0.0
 10
115.39769980379431
 20
-53.38598157633216
 30
0.0
 10
116.60878566564867
 20
-53.31365653632024
 30
0.0
 10
117.18859191031189
 20
-52.17572270938673
 30
0.0
 10
117.6462754414711
 20
-50.98341634727349
 30
0.0
 10
116.88964880361176
 20
-50.03500925794778
 30
0.0
 10
115.61276416436479
 20
-48.54431604661916
 30
0.0
 10
114.37783907639756
 20
-47.20051698595412
 30
0.0
 10
113.1934573589789
 20
-45.99874359262963
 30
0.0
 10
112.06790989407902
 20
-44.933711247638
 30
0.0
 10
111.77505315832191
 20
-44.675363405505706
 30
0.0
 10
111.55861045410957
 20
-44.45179431941513
 30
0.0
 10
111.49223449492628
 20
-44.27253966355374
 30
0.0
 10
112.4789884559368
 20
-41.70195771017959
 30
0.0
 10
112.64826018310922
 20
-41.61315972604972
 30
0.0
 10
112.95870537689623
 20
-41.59184395447197
 30
0.0
 10
113.3492087929452
 20
-41.5958134976157
 30
0.0
 10
114.898299306103
 20
-41.55747847914354
 30
0.0
 10
116.58260981017368
 20
-41.456892857235
 30
0.0
 10
118.39951507943715
 20
-41.284581711740664
 30
0.0
 10
120.34589374421779
 20
-41.031183358277
 30
0.0
 10
121.54278512571472
 20
-40.83266157837696
 30
0.0
 10
122.00046865687389
 20
-39.640355216263735
 30
0.0
 10
122.33101499798575
 20
-38.40673947698036
 30
0.0
 10
121.47939770441587
 20
-37.542616880646115
 30
0.0
 10
120.05368810224167
 20
-36.19356063181352
 30
0.0
 10
118.68506281236681
 20
-34.98620786470271
 30
0.0
 10
117.38154973591992
 20
-33.91481951261456
 30
0.0
 10
116.15084194344841
 20
-32.973273273085745
 30
0.0
 10
115.83258480460528
 20
-32.746952552010306
 30
0.0
 10
115.59395846317018
 20
-32.54723262402256
 30
0.0
 10
115.50920890472558
 20
-32.37589812093305
 30
0.0
 10
116.22185834300214
 20
-29.716254209296213
 30
0.0
 10
116.38092086511956
 20
-29.610248956298502
 30
0.0
 10
116.6874373028062
 20
-29.556599595712377
 30
0.0
 10
117.0762164305277
 20
-29.519728671303056
 30
0.0
 10
118.61281376320018
 20
-29.319679605270263
 30
0.0
 10
120.27738337761231
 20
-29.04358661326691
 30
0.0
 10
122.0663240304624
 20
-28.682301090557797
 30
0.0
 10
123.97555288878232
 20
-28.226838909021446
 30
0.0
 10
125.14513639748051
 20
-27.904295435397188
 30
0.0
 10
125.47568273859186
 20
-26.6706796961135
 30
0.0
 10
125.67547035477085
 20
-25.409270331850003
 30
0.0
 10
124.73819290277217
 20
-24.638899736502225
 30
0.0
 10
123.17927871042103
 20
-23.44626099273603
 30
0.0
 10
121.69194816371771
 20
-22.38858252875072
 30
0.0
 10
120.28358529028577
 20
-21.459317572886803
 30
0.0
 10
118.96120106235912
 20
-20.651573216452313
 30
0.0
 10
118.6210304122427
 20
-20.459759233614495
 30
0.0
 10
118.3628348737174
 20
-20.286076637054695
 30
0.0
 10
118.26064024990879
 20
-20.12453946340696
 30
0.0
 10
118.69137722907413
 20
-17.4049732087696
 30
0.0
 10
118.83848782385827
 20
-17.28292210263891
 30
0.0
 10
119.13771724721056
 20
-17.19752694666584
 30
0.0
 10
119.520512541124
 20
-17.12021952026704
 30
0.0
 10
121.02778141138073
 20
-16.76064818610402
 30
0.0
 10
122.65437276310524
 20
-16.31207275660241
 30
0.0
 10
124.39574879138945
 20
-15.765771176469173
 30
0.0
 10
126.24690993234503
 20
-15.11323530583263
 30
0.0
 10
127.37637136657207
 20
-14.67020399227776
 30
0.0
  0
LWPOLYLINE
  8
OpenJsCad
  90
181
  70
1
 10
121.33619873179335
 20
8.448654265562197
 30
0.0
 10
120.98982640966084
 20
7.497004131779053
 30
0.0
 10
120.81396857290383
 20
6.499664779341746
 30
0.0
 10
121.17385861417115
 20
5.996649363571
 30
0.0
 10
123.06981437568905
 20
4.138851240079224
 30
0.0
 10
124.69001777881157
 20
3.02874374924599
 30
0.0
 10
125.84971179120892
 20
2.50225368501275
 30
0.0
 10
127.65091166405931
 20
2.039194440788192
 30
0.0
 10
128.32888413206763
 20
1.376732995045833
 30
0.0
 10
128.32888413206766
 20
-1.3767329950458578
 30
0.0
 10
127.65091166405932
 20
-2.0391944407882185
 30
0.0
 10
125.84971179120896
 20
-2.502253685012762
 30
0.0
 10
124.69001777881155
 20
-3.0287437492460216
 30
0.0
 10
123.06981437568905
 20
-4.138851240079127
 30
0.0
 10
121.17385861417131
 20
-5.9966493635707785
 30
0.0
 10
120.81396857290383
 20
-6.4996647793417415
 30
0.0
 10
120.98982640966082
 20
-7.4970041317790495
 30
0.0
 10
121.33619873179335
 20
-8.44865426556218
 30
0.0
 10
121.89938035798525
 20
-8.704333373481173
 30
0.0
 10
124.47022527365709
 20
-9.365255862769168
 30
0.0
 10
126.42841632547581
 20
-9.516535449200891
 30
0.0
 10
127.69598583294525
 20
-9.392642213468298
 30
0.0
 10
129.48740030223928
 20
-8.893063345998794
 30
0.0
 10
130.40577240547208
 20
-9.127785553035281
 30
0.0
 10
131.78250540051795
 20
-11.512357048911142
 30
0.0
 10
131.5265947430275
 20
-12.42505172395596
 30
0.0
 10
130.19823951795803
 20
-13.726672729336823
 30
0.0
 10
129.45716007472183
 20
-14.762473506001628
 30
0.0
 10
128.60907651373628
 20
-16.533956495555753
 30
0.0
 10
127.89602972155627
 20
-19.090834746361452
 30
0.0
 10
127.83586351113509
 20
-19.70640389554804
 30
0.0
 10
128.48683054143987
 20
-20.482196192574165
 30
0.0
 10
129.262622838466
 20
-21.133163222878963
 30
0.0
 10
129.87819198765231
 20
-21.072997012457797
 30
0.0
 10
132.4350702384582
 20
-20.359950220277724
 30
0.0
 10
134.20655322801244
 20
-19.511866659292245
 30
0.0
 10
135.24235400467722
 20
-18.770787216056043
 30
0.0
 10
136.5439750100581
 20
-17.442431990986588
 30
0.0
 10
137.45666968510292
 20
-17.186521333496124
 30
0.0
 10
139.8412411809788
 20
-18.563254328541944
 30
0.0
 10
140.07596338801528
 20
-19.48162643177477
 30
0.0
 10
139.5763845205458
 20
-21.27304090106876
 30
0.0
 10
139.4524912848132
 20
-22.540610408538253
 30
0.0
 10
139.6037708712448
 20
-24.498801460356894
 30
0.0
 10
140.26469336053276
 20
-27.06964637602855
 30
0.0
 10
140.52037246845185
 20
-27.632828002220705
 30
0.0
 10
141.472022602235
 20
-27.979200324353222
 30
0.0
 10
142.4693619546723
 20
-28.155058161110226
 30
0.0
 10
142.97237737044304
 20
-27.7951681198429
 30
0.0
 10
144.83017549393483
 20
-25.89921235832501
 30
0.0
 10
145.94028298476806
 20
-24.27900895520249
 30
0.0
 10
146.4667730490013
 20
-23.119314942805133
 30
0.0
 10
146.92983229322587
 20
-21.318115069954743
 30
0.0
 10
147.5922937389682
 20
-20.640142601946415
 30
0.0
 10
150.34575972905992
 20
-20.64014260194639
 30
0.0
 10
151.00822117480226
 20
-21.318115069954725
 30
0.0
 10
151.4712804190268
 20
-23.119314942805087
 30
0.0
 10
151.99777048326007
 20
-24.279008955202496
 30
0.0
 10
153.10787797409319
 20
-25.899212358325002
 30
0.0
 10
154.96567609758483
 20
-27.79516811984274
 30
0.0
 10
155.4686915133558
 20
-28.155058161110226
 30
0.0
 10
156.4660308657931
 20
-27.979200324353222
 30
0.0
 10
157.41768099957622
 20
-27.63282800222071
 30
0.0
 10
157.67336010749523
 20
-27.0696463760288
 30
0.0
 10
158.33428259678323
 20
-24.498801460356955
 30
0.0
 10
158.48556218321494
 20
-22.540610408538235
 30
0.0
 10
158.36166894748234
 20
-21.273040901068796
 30
0.0
 10
157.86209008001285
 20
-19.48162643177478
 30
0.0
 10
158.09681228704932
 20
-18.56325432854196
 30
0.0
 10
160.48138378292518
 20
-17.186521333496092
 30
0.0
 10
161.39407845797
 20
-17.44243199098656
 30
0.0
 10
162.69569946335088
 20
-18.770787216056007
 30
0.0
 10
163.73150024001566
 20
-19.511866659292235
 30
0.0
 10
165.5029832295698
 20
-20.359950220277774
 30
0.0
 10
168.0598614803755
 20
-21.072997012457783
 30
0.0
 10
168.67543062956207
 20
-21.133163222878967
 30
0.0
 10
169.45122292658823
 20
-20.482196192574172
 30
0.0
 10
170.10218995689303
 20
-19.706403895548043
 30
0.0
 10
170.04202374647184
 20
-19.090834746361722
 30
0.0
 10
169.3289769542918
 20
-16.53395649555584
 30
0.0
 10
168.4808933933063
 20
-14.762473506001598
 30
0.0
 10
167.7398139500701
 20
-13.726672729336832
 30
0.0
 10
166.41145872500064
 20
-12.425051723955944
 30
0.0
 10
166.15554806751018
 20
-11.512357048911134
 30
0.0
 10
167.532281062556
 20
-9.127785553035244
 30
0.0
 10
168.45065316578882
 20
-8.89306334599876
 30
0.0
 10
170.2420676350828
 20
-9.392642213468264
 30
0.0
 10
171.5096371425523
 20
-9.516535449200864
 30
0.0
 10
173.46782819437095
 20
-9.36525586276925
 30
0.0
 10
176.0386731100426
 20
-8.704333373481287
 30
0.0
 10
176.60185473623477
 20
-8.448654265562183
 30
0.0
 10
176.94822705836728
 20
-7.497004131779057
 30
0.0
 10
177.12408489512427
 20
-6.4996647793417495
 30
0.0
 10
176.76419485385696
 20
-5.996649363571003
 30
0.0
 10
174.86823909233905
 20
-4.1388512400792274
 30
0.0
 10
173.24803568921655
 20
-3.0287437492459937
 30
0.0
 10
172.0883416768192
 20
-2.502253685012752
 30
0.0
 10
170.28714180396878
 20
-2.0391944407881946
 30
0.0
 10
169.60916933596047
 20
-1.3767329950458356
 30
0.0
 10
169.60916933596044
 20
1.3767329950458551
 30
0.0
 10
170.28714180396878
 20
2.039194440788216
 30
0.0
 10
172.08834167681914
 20
2.50225368501276
 30
0.0
 10
173.24803568921655
 20
3.028743749246019
 30
0.0
 10
174.86823909233905
 20
4.1388512400791235
 30
0.0
 10
176.7641948538568
 20
5.996649363570775
 30
0.0
 10
177.12408489512427
 20
6.499664779341739
 30
0.0
 10
176.94822705836728
 20
7.497004131779057
 30
0.0
 10
176.60185473623477
 20
8.448654265562187
 30
0.0
 10
176.03867311004285
 20
8.70433337348118
 30
0.0
 10
173.467828194371
 20
9.365255862769173
 30
0.0
 10
171.5096371425523
 20
9.516535449200893
 30
0.0
 10
170.24206763508283
 20
9.392642213468301
 30
0.0
 10
168.45065316578882
 20
8.893063345998797
 30
0.0
 10
167.532281062556
 20
9.127785553035283
 30
0.0
 10
166.15554806751015
 20
11.512357048911145
 30
0.0
 10
166.4114587250006
 20
12.425051723955963
 30
0.0
 10
167.73981395007004
 20
13.726672729336826
 30
0.0
 10
168.48089339330627
 20
14.762473506001633
 30
0.0
 10
169.32897695429182
 20
16.533956495555756
 30
0.0
 10
170.04202374647184
 20
19.090834746361455
 30
0.0
 10
170.10218995689303
 20
19.706403895548043
 30
0.0
 10
169.45122292658823
 20
20.482196192574158
 30
0.0
 10
168.6754306295621
 20
21.133163222878956
 30
0.0
 10
168.0598614803758
 20
21.072997012457794
 30
0.0
 10
165.5029832295699
 20
20.359950220277724
 30
0.0
 10
163.73150024001566
 20
19.511866659292238
 30
0.0
 10
162.6956994633509
 20
18.77078721605604
 30
0.0
 10
161.39407845797
 20
17.442431990986584
 30
0.0
 10
160.4813837829252
 20
17.18652133349612
 30
0.0
 10
158.09681228704932
 20
18.563254328541944
 30
0.0
 10
157.86209008001282
 20
19.481626431774774
 30
0.0
 10
158.36166894748231
 20
21.27304090106876
 30
0.0
 10
158.48556218321494
 20
22.540610408538253
 30
0.0
 10
158.3342825967833
 20
24.49880146035689
 30
0.0
 10
157.67336010749534
 20
27.069646376028555
 30
0.0
 10
157.41768099957625
 20
27.632828002220705
 30
0.0
 10
156.4660308657931
 20
27.97920032435322
 30
0.0
 10
155.4686915133558
 20
28.155058161110222
 30
0.0
 10
154.96567609758506
 20
27.795168119842895
 30
0.0
 10
153.10787797409327
 20
25.899212358325006
 30
0.0
 10
151.99777048326004
 20
24.27900895520249
 30
0.0
 10
151.4712804190268
 20
23.119314942805133
 30
0.0
 10
151.00822117480226
 20
21.318115069954743
 30
0.0
 10
150.3457597290599
 20
20.64014260194642
 30
0.0
 10
147.5922937389682
 20
20.640142601946394
 30
0.0
 10
146.92983229322584
 20
21.318115069954725
 30
0.0
 10
146.4667730490013
 20
23.11931494280509
 30
0.0
 10
145.94028298476803
 20
24.279008955202496
 30
0.0
 10
144.83017549393492
 20
25.899212358325002
 30
0.0
 10
142.97237737044327
 20
27.795168119842742
 30
0.0
 10
142.4693619546723
 20
28.155058161110226
 30
0.0
 10
141.472022602235
 20
27.979200324353222
 30
0.0
 10
140.52037246845185
 20
27.632828002220712
 30
0.0
 10
140.26469336053287
 20
27.069646376028796
 30
0.0
 10
139.60377087124488
 20
24.49880146035695
 30
0.0
 10
139.45249128481316
 20
22.54061040853823
 30
0.0
 10
139.57638452054576
 20
21.273040901068796
 30
0.0
 10
140.07596338801525
 20
19.48162643177478
 30
0.0
 10
139.84124118097876
 20
18.563254328541955
 30
0.0
 10
137.4566696851029
 20
17.18652133349609
 30
0.0
 10
136.5439750100581
 20
17.442431990986556
 30
0.0
 10
135.24235400467722
 20
18.770787216056
 30
0.0
 10
134.2065532280124
 20
19.511866659292227
 30
0.0
 10
132.4350702384583
 20
20.359950220277767
 30
0.0
 10
129.8781919876526
 20
21.072997012457776
 30
0.0
 10
129.262622838466
 20
21.133163222878963
 30
0.0
 10
128.4868305414399
 20
20.482196192574182
 30
0.0
 10
127.8358635111351
 20
19.706403895548053
 30
0.0
 10
127.89602972155626
 20
19.09083474636173
 30
0.0
 10
128.60907651373634
 20
16.533956495555852
 30
0.0
 10
129.4571600747218
 20
14.762473506001609
 30
0.0
 10
130.198239517958
 20
13.726672729336842
 30
0.0
 10
131.52659474302746
 20
12.425051723955958
 30
0.0
 10
131.78250540051795
 20
11.512357048911145
 30
0.0
 10
130.4057724054721
 20
9.127785553035256
 30
0.0
 10
129.48740030223928
 20
8.893063345998772
 30
0.0
 10
127.6959858329453
 20
9.392642213468278
 30
0.0
 10
126.42841632547581
 20
9.516535449200878
 30
0.0
 10
124.47022527365716
 20
9.365255862769263
 30
0.0
 10
121.8993803579855
 20
8.704333373481303
 30
0.0
 10
121.33619873179335
 20
8.448654265562197
 30
0.0
  0
LWPOLYLINE
  8
OpenJsCad
  90
31
  70
1
 10
148.06104573453496
 20
1.782013048376736
 30
0.0
 10
148.451388643809
 20
1.9318516525781366
 30
0.0
 10
148.86435482152817
 20
1.9972590695091477
 30
0.0
 10
149.28189566409452
 20
1.9753766811902758
 30
0.0
 10
149.68576263310464
 20
1.8671608529944037
 30
0.0
 10
150.0583048040441
 20
1.6773411358908485
 30
0.0
 10
150.38324029638716
 20
1.4142135623730954
 30
0.0
 10
150.6463678699049
 20
1.089278070030054
 30
0.0
 10
150.83618758700845
 20
0.7167358990905998
 30
0.0
 10
150.94440341520433
 20
0.31286893008046046
 30
0.0
 10
150.9662858035232
 20
-0.10467191248588775
 30
0.0
 10
150.90087838659218
 20
-0.5176380902050425
 30
0.0
 10
150.7510397823908
 20
-0.907980999479094
 30
0.0
 10
150.52331865692798
 20
-1.258640782099675
 30
0.0
 10
150.2276675161137
 20
-1.5542919229139418
 30
0.0
 10
149.87700773349314
 20
-1.782013048376736
 30
0.0
 10
149.4866648242191
 20
-1.9318516525781368
 30
0.0
 10
149.07369864649993
 20
-1.9972590695091479
 30
0.0
 10
148.65615780393358
 20
-1.9753766811902755
 30
0.0
 10
148.25229083492346
 20
-1.8671608529944035
 30
0.0
 10
147.879748663984
 20
-1.6773411358908477
 30
0.0
 10
147.55481317164094
 20
-1.414213562373095
 30
0.0
 10
147.2916855981232
 20
-1.0892780700300542
 30
0.0
 10
147.10186588101965
 20
-0.7167358990906005
 30
0.0
 10
146.99365005282377
 20
-0.3128689300804619
 30
0.0
 10
146.9717676645049
 20
0.10467191248588753
 30
0.0
 10
147.03717508143592
 20
0.5176380902050417
 30
0.0
 10
147.1870136856373
 20
0.9079809994790935
 30
0.0
 10
147.41473481110012
 20
1.258640782099675
 30
0.0
 10
147.7103859519144
 20
1.5542919229139418
 30
0.0
 10
148.06104573453496
 20
1.782013048376736
 30
0.0
  0
ENDSEC
  0
EOF
