<?xml version="1.0" encoding="UTF-8"?>
<!-- Generated by OpenJSCAD.org -->
<!DOCTYPE svg PUBLIC "-//W3C//DTD SVG 1.1 Tiny//EN" "http://www.w3.org/Graphics/SVG/1.1/DTD/svg11-tiny.dtd">
<svg width="305.403mm" height="256.558mm" viewBox="0 0 305.403 256.558" version="1.1" baseProfile="tiny" xmlns="http://www.w3.org/2000/svg" xmlns:xlink="http://www.w3.org/1999/xlink">
  <g>
    <path d="M254.52579406441487 143.39211943790255L252.67463292345928 144.0446553085391L250.93325689517508 144.59095688867234L249.30666554345055 145.03953231817394L247.79939667319383 145.39910365233695L247.4166013792804 145.47641107873577L247.1173719559281 145.56180623470883L246.97026136114397 145.68385734083952L246.53952438197862 148.40342359547688L246.64171900578725 148.5649607691246L246.89991454431254 148.73864336568442L247.24008519442896 148.93045734852222L248.5624694223556 149.73820170495674L249.97083229578755 150.66746666082065L251.45816284249088 151.72514512480595L253.017077034842 152.91778386857214L253.95435448684069 153.68815446391991L253.75456687066168 154.94956382818341L253.42402052955515 156.18317956746841L252.25443702085215 156.50572304109136L250.34520816253223 156.9611852226277L248.55626750968213 157.32247074533683L246.89169789527 157.59856373734019L245.35510056259753 157.79861280337298L244.96632143487602 157.8354837277823L244.65980499718938 157.88913308836842L244.50074247507197 157.99513834136613L243.78809303679543 160.65478225300296L243.87284259524 160.8261167560925L244.11146893667512 161.02583668408022L244.42972607551826 161.25215740515566L245.66043386798975 162.1937036446845L246.96394694443666 163.26509199677264L248.3325722343115 164.47244476388343L249.7582818364857 165.82150101271603L250.60989913010144 166.6856236090626L250.27935278894398 167.91923934833375L249.82166925778478 169.11154571044696L248.62477787628762 169.3100674903469L246.67839921150699 169.56346584381058L244.8614939422435 169.73577698930492L243.17718343817285 169.83636261121347L241.62809292501504 169.8746976296856L241.23758950896607 169.87072808654187L240.92714431517905 169.89204385811965L240.75787258800665 169.9808418422495L239.7711186269961 172.55142379562366L239.8374945861794 172.73067845148506L240.05393729039173 172.9542475375756L240.34679402614887 173.21259537970792L241.47234149104872 174.27762772469956L242.65672320846738 175.47940111802404L243.89164829643462 176.8232001786891L245.16853293568158 178.3138933900177L245.92515957354104 179.26230047934345L245.46747604238078 180.45460684145618L244.88766979771768 181.59254066838974L243.67658393586413 181.6648657084021L241.71438039658 181.7134239484055L239.8894169052451 181.6948728397166L238.20381916986312 181.6188490544078L236.65920763605018 181.49505001883483L236.27125836881805 181.45028349928342L235.96028572143865 181.43903214179875L235.78265936567652 181.5096499677645L234.53261196482043 183.96300612906592L234.5798870958435 184.1482169861781L234.7717747712722 184.3931857606795L235.03602250426212 184.68073021084746L236.04407790802898 185.85757994405785L237.09635193247556 187.17657149783417L238.18404672084674 188.64209390833676L239.29811658185355 190.25809173539045L239.9514628042241 191.28039237117014L239.37165655956136 192.418326198104L238.67608007994278 193.48942004872202L237.46406864786906 193.4347559405722L235.50753854667533 193.27794205287643L233.6945115151782 193.06873193983313L232.02609431000775 192.81693167980785L230.5028848427349 192.53235495833007L230.121740177675 192.4472819337272L229.8136471581031 192.40358671940723L229.62961228527567 192.4552506835298L228.12996722548704 194.76450156925753L228.15762357212145 194.95363941871216L228.3228538572394 195.21732395246786L228.55559743400215 195.53091461350294L229.43511631068316 196.8066879229834L230.3437537077433 198.22844648973162L231.27230118480225 199.799635679862L232.21135028503764 201.52323291227833L232.75425789398577 202.6082265548163L232.05868141436736 203.6793204054343L231.25495558126306 204.67183915136854L230.0552976298502 204.4907848064655L228.12587711996582 204.13031687683957L226.34465045186383 203.7327399092204L224.7116933049435 203.30792195082006L223.22657450588622 202.86568542554954L222.85641034370866 202.74123797375537L222.55457248353926 202.66557763651204L222.36614541822502 202.69772169758915L220.63333312459974 204.83756667179733L220.64106767812436 205.0285592797361L220.77783027535116 205.3080705898148L220.97651970855492 205.64427169681161L221.71786586528606 207.00499094321071L222.472911413493 208.51393943855146L223.23213821877002 210.1735811307501L223.9858781397831 211.98589367656479L224.4123989259344 213.12169290846384L223.60867309283083 214.1142116543988L222.7056036946586 215.0172810525708L221.5314429274659 214.71182014020462L219.6502711437543 214.15164753071824L217.92036033116887 213.5700596449788L216.34075426271858 212.9768783826545L214.9099974042204 212.38182728950602L214.5548693409478 212.21936888284475L214.2625936389406 212.11257237316582L214.07183882749803 212.12484435413774L212.12484435413938 214.07183882749757L212.11257237316718 214.26259363894013L212.21936888286822 214.5548693409371L212.38182728950443 214.9099974042128L212.9768783826558 216.3407542627182L213.57005964497995 217.92036033116875L214.15164753071798 219.65027114375357L214.711820140204 221.53144292746384L215.0172810525701 222.705603694658L214.1142116543977 223.60867309282986L213.12169290846342 224.4123989259342L211.98589367656666 223.985878139784L210.17358113075073 223.2321382187704L208.51393943855163 222.47291141349194L207.00499094321117 221.71786586528486L205.64427169681898 220.9765197085574L205.30807058982782 220.77783027532902L205.0285592797366 220.6410676781231L204.83756667179787 220.6333331245982L202.6977216975908 222.3661454182248L202.66557763651338 222.554572483539L202.74123797377976 222.85641034370053L202.86568542554866 223.22657450587855L203.3079219508213 224.71169330494334L203.7327399092215 226.3446504518639L204.13031687683932 228.12587711996508L204.490784806465 230.05529762984816L204.67183915136826 231.2549555812631L203.67932040543394 232.05868141436724L202.608226554816 232.75425789398574L201.5232329122801 232.21135028503875L199.7996356798626 231.2723011848027L198.22844648973188 230.3437537077423L196.80668792298397 229.43511631068202L195.53091461351002 228.55559743400536L195.21732395248313 228.32285385721877L194.95363941871278 228.1576235721203L194.76450156925824 228.12996722548556L192.45525068353146 229.62961228527564L192.4035867194086 229.81364715810304L192.44728193375227 230.1217401776695L192.53235495833002 230.50288484272716L192.8169316798091 232.02609431000775L193.06873193983418 233.69451151517842L193.27794205287626 235.50753854667465L193.4347559405719 237.464068647867L193.48942004872166 238.67608007994264L192.41832619810336 239.37165655956045L191.2803923711699 239.9514628042237L190.25809173539224 239.2981165818548L188.64209390833744 238.18404672084722L187.17657149783466 237.09635193247453L185.85757994405867 236.04407790802787L184.68073021085428 235.03602250426601L184.39318576069698 234.7717747712532L184.14821698617902 234.57988709584237L183.9630061290669 234.53261196481898L181.50964996776628 235.7826593656766L181.43903214180025 235.96028572143868L181.45028349930908 236.27125836881515L181.4950500188357 236.65920763604245L181.6188490544092 238.20381916986318L181.69487283971776 239.88941690524535L181.71342394840556 241.71438039657926L181.66486570840215 243.67658393586203L181.59254066839011 244.88766979771853L180.4546068414566 245.46747604238186L179.2623004793434 245.92515957354104L178.31389339001936 245.16853293568306L176.82320017868972 243.89164829643516L175.47940111802467 242.65672320846645L174.2776277247005 241.47234149104776L173.2125953797143 240.34679402615345L172.954247537595 240.05393729037468L172.73067845148603 239.83749458617837L172.5514237956248 239.77111862699482L169.98084184225127 240.75787258800693L169.89204385812113 240.92714431517925L169.87072808656774 241.23758950896587L169.87469762968732 241.62809292500745L169.83636261121487 243.17718343817305L169.73577698930606 244.8614939422439L169.56346584381075 246.67839921150625L169.31006749034722 248.62477787628552L169.11154571044682 249.82166925778458L167.91923934833343 250.2793527889433L166.68562360904988 250.6098991300547L165.82150101271742 249.75828183648736L164.4724447638839 248.33257223431212L163.26509199677324 246.9639469444358L162.1937036446854 245.6604338679889L161.25215740516143 244.42972607552352L161.0258366841012 244.11146893666023L160.82611675609348 243.87284259523912L160.65478225300416 243.78809303679427L157.99513834136778 244.50074247507246L157.88913308836976 244.65980499718978L157.8354837278079 244.96632143487858L157.79861280337536 245.3551005625902L157.59856373734146 246.8916978952704L157.3224707453378 248.5562675096827L156.96118522262785 250.34520816253155L156.50572304109178 252.25443702085013L156.18317956746696 253.42402052955043L154.94956382818327 253.75456687066065L153.68815446391986 253.95435448683975L152.9177838685736 253.01707703484377L151.72514512480657 251.4581628424915L150.66746666082156 249.97083229578675L149.73820170495796 248.5624694223548L148.93045734852763 247.24008519443476L148.73864336570705 246.89991454429992L148.56496076912595 246.64171900578646L148.4034235954784 246.53952438197757L145.6838573408413 246.97026136114465L145.56180623471036 247.1173719559286L145.4764110787612 247.41660137928557L145.39910365234033 247.79939667318678L145.0395323181754 249.30666554345106L144.59095688867347 250.9332568951757L144.04465530853952 252.6746329234586L143.3921194379034 254.52579406441288L142.94908812434772 255.65525549864182L141.68767876008422 255.85504311482052L140.41229603580257 255.92188309113612L139.74411778289536 254.9092144886124L138.72096334384727 253.2341754961983L137.8245473295728 251.6444351973787L137.04758699125105 250.14665284532197L136.3824943341148 248.74708050027505L136.22728864366928 248.38872331969674L136.08154628138834 248.11378742844175L135.9315762722609 247.99526740495293L133.18188381161477 248.1393726805276L133.04512406981044 248.2729195735169L132.92891872567264 248.561583562362L132.81202179360494 248.9342010371077L132.29686773009124 250.39562749179717L131.6807245493671 251.96641930559855L130.95539230624206 253.6411518291432L130.11293206605652 255.41396354389258L129.5542668563516 256.49092828782204L128.27888413206975 256.5577682641406L127.00350140778798 256.4909282878248L126.4448361980842 255.4139635438945L125.60237595789808 253.64115182914395L124.8770437147736 251.96641930559787L124.26090053404982 250.3956274917966L123.7457464705388 248.93420103711446L123.62884953849176 248.56158356235426L123.51264419433068 248.27291957351633L123.37588445252662 248.13937268052683L120.62619199188036 247.9952674049539L120.47622198275272 248.1137874284425L120.3304796204942 248.38872331970703L120.17527393002962 248.74708050026874L119.51018127288992 250.1466528453227L118.73322093456787 251.64443519737947L117.83680492029293 253.23417549619768L116.81365048124555 254.9092144886106L116.1454722283371 255.92188309113695L114.87008950405571 255.85504311481913L113.60868013979224 255.65525549864032L113.1656488262371 254.52579406441495L112.51311295560056 252.67463292345937L111.96681137546732 250.93325689517516L111.51823594596571 249.30666554345066L111.15866461180269 247.79939667319394L111.08135718540389 247.41660137928048L110.99596202943083 247.1173719559282L110.87391092330013 246.97026136114405L108.15434466866277 246.5395243819787L107.99280749501504 246.6417190057873L107.81912489845524 246.89991454431262L107.62731091561741 247.240085194429L106.81956655918293 248.56246942235566L105.89030160331902 249.9708322957876L104.8326231393337 251.45816284249094L103.63998439556751 253.0170770348421L102.86961380021974 253.95435448684066L101.60820443595603 253.75456687066247L100.37458869667249 253.42402052955106L100.0520452230484 252.25443702085224L99.59658304151205 250.34520816253232L99.23529751880294 248.55626750968224L98.95920452679958 246.8916978952701L98.75915546076678 245.3551005625976L98.72228453635746 244.96632143487614L98.66863517577134 244.6598049971895L98.56262992277362 244.50074247507206L95.90298601113679 243.7880930367955L95.73165150804729 243.87284259524012L95.53193158005953 244.11146893667518L95.3056108589841 244.42972607551832L94.36406461945529 245.66043386798984L93.29267626736714 246.9639469444367L92.08532350025632 248.33257223431158L90.73626725142373 249.7582818364858L89.87214465508961 250.60989913005517L88.63852891580626 250.27935278894347L87.44622255369302 249.82166925778432L87.24770077379284 248.6247778762877L86.99430242032918 246.67839921150707L86.82199127483484 244.8614939422436L86.72140565292631 243.1771834381729L86.68307063445414 241.62809292501512L86.68704017759788 241.23758950896615L86.66572440602012 240.92714431517913L86.57692642189025 240.7578725880067L84.0063444685161 239.7711186269962L83.82708981265472 239.8374945861795L83.60352072656414 240.05393729039184L83.34517288443183 240.34679402614893L82.28014053944021 241.47234149104884L81.07836714611571 242.6567232084675L79.73456808545069 243.8916482964347L78.24387487412207 245.1685329356817L77.2954677847964 245.92515957354095L76.10316142268306 245.46747604238192L74.96522759574954 244.88766979771873L74.89290255573768 243.67658393586424L74.84434431573425 241.7143803965801L74.86289542442316 239.88941690524518L74.93891920973195 238.2038191698632L75.06271824530494 236.65920763605027L75.10748476485635 236.27125836881817L75.118736122341 235.96028572143874L75.04811829637528 235.78265936567658L72.59476213507384 234.5326119648205L72.40955127796164 234.5798870958436L72.16458250346027 234.77177477127228L71.8770380532923 235.0360225042622L70.7001883200819 236.04407790802907L69.38119676630559 237.0963519324756L67.915674355803 238.18404672084682L66.2996765287493 239.2981165818536L65.27737589296953 239.95146280422438L64.13944206603539 239.37165655956207L63.0683482154174 238.67608007994343L63.123012323567565 237.46406864786917L63.27982621126334 235.50753854667545L63.489036324306625 233.6945115151783L63.740836584331916 232.02609431000786L64.02541330580968 230.502884842735L64.11048633041257 230.12174017767512L64.15418154473252 229.8136471581032L64.10251758060996 229.62961228527575L61.79326669488222 228.12996722548712L61.604128845427596 228.15762357212157L61.34044431167189 228.32285385723952L61.026853650636795 228.55559743400224L59.75108034115635 229.43511631068327L58.32932177440813 230.34375370774342L56.758132584277746 231.27230118480236L55.03453535186142 232.21135028503772L53.94954170932351 232.75425789398585L52.8784478587047 232.05868141436832L51.8859291127706 231.25495558126397L52.06698345767427 230.05529762985026L52.42745138730021 228.12587711996588L52.82502835491934 226.3446504518639L53.24984631331971 224.7116933049436L53.69208283859024 223.2265745058863L53.81653029038439 222.85641034370872L53.89219062762771 222.55457248353935L53.86004656655061 222.3661454182251L51.72020159234245 220.63333312459986L51.52920898440367 220.64106767812444L51.24969767432498 220.77783027535128L50.91349656732815 220.97651970855503L49.55277732092904 221.71786586528611L48.04382882558831 222.47291141349308L46.384187133389645 223.2321382187701L44.571874587574996 223.9858781397832L43.436075355675996 224.41239892593438L42.443556609741265 223.6086730928306L41.540487211569115 222.70560369465838L41.8459481239351 221.53144292746595L42.40612073342149 219.65027114375437L42.9877086191609 217.92036033116892L43.580889881485206 216.34075426271863L44.17594097463369 214.90999740422046L44.33839938129496 214.55486934094785L44.445195890973906 214.26259363894064L44.432923910002 214.07183882749808L42.48592943664217 212.12484435413944L42.295174625199564 212.11257237316724L42.00289892320262 212.21936888286828L41.64777085992692 212.38182728950449L40.217014001421504 212.97687838265585L38.63740793297097 213.57005964498L36.907497120386154 214.15164753071807L35.02632533667588 214.71182014020405L33.85216456948167 215.0172810525702L32.94909517130925 214.11421165439822L32.145369338205015 213.12169290846396L32.571890124355775 211.9858936765668L33.32563004536941 210.1735811307509L34.08485685064785 208.51393943855174L34.83990239885493 207.0049909432113L35.581248555582405 205.6442716968191L35.77993798881077 205.30807058982793L35.916700586016674 205.02855927973673L35.924435139541586 204.83756667179802L34.191622845915006 202.6977216975909L34.00319578060075 202.66557763651352L33.70135792043928 202.7412379737799L33.331193758261264 202.8656854255488L31.846074959196457 203.30792195082148L30.213117812275897 203.7327399092216L28.431891144174685 204.13031687683946L26.502470634291612 204.49078480646514L25.30281268287662 204.67183915136843L24.499086849771658 203.67932040543468L23.803510370153248 202.60822655481667L24.346417979101005 201.5232329122802L25.285467079337053 199.79963567986272L26.21401455639746 198.228446489732L27.122651953457733 196.80668792298405L28.002170830134403 195.5309146135101L28.234914406921007 195.21732395248324L28.40014469201948 194.9536394187129L28.42780103865421 194.76450156925836L26.928155978864126 192.45525068353157L26.74412110603673 192.40358671940868L26.43602808647026 192.44728193375238L26.054883421412597 192.53235495833013L24.53167395413203 192.81693167980922L22.863256748961348 193.06873193983427L21.050229717465115 193.27794205287637L19.093699616272744 193.43475594057202L17.881688184197174 193.48942004872174L17.18611170457777 192.4183261981042L16.60630545991465 191.2803923711707L17.259651682284954 190.25809173539233L18.373721543292547 188.64209390833753L19.461416331665234 187.17657149783474L20.513690356111866 185.85757994405876L21.52174575987374 184.68073021085436L21.78599349288656 184.39318576069707L21.9778811682974 184.14821698617908L22.02515629932077 183.96300612906703L20.775108898463145 181.50964996776636L20.597482542701073 181.43903214180034L20.2865098953246 181.45028349930917L19.8985606280973 181.4950500188358L18.353949094276572 181.61884905440928L16.668351358894384 181.69487283971785L14.843387867560494 181.71342394840565L12.881184328277726 181.66486570840223L11.670098466421067 181.59254066839026L11.090292221759242 180.45460684145618L10.632608690599909 179.262300479343L11.389235328456692 178.3138933900194L12.66611996770456 176.82320017868977L13.901045055673293 175.4794011180247L15.08542677309201 174.27762772470052L16.210974237986292 173.21259537971434L16.503830973765048 172.95424753759505L16.720273677961373 172.73067845148609L16.786649637144933 172.55142379562486L15.79989567613282 169.98084184225132L15.63062394896049 169.89204385812116L15.32017875517387 169.8707280865678L14.929675339132288 169.87469762968738L13.380584825966693 169.8363626112149L11.696274321895828 169.7357769893061L9.879369052633493 169.56346584381077L7.932990387854204 169.31006749034725L6.736099006355076 169.1115457104469L6.278415475196027 167.91923934833358L5.947869134084684 166.6856236090501L6.799486427652397 165.8215010127176L8.225196029827629 164.47244476388406L9.593821319703963 163.26509199677338L10.897334396150868 162.19370364468557L12.128042188616234 161.25215740516157L12.44629932747955 161.02583668410134L12.684925668900632 160.82611675609363L12.769675227345488 160.6547822530043L12.057025789067282 157.99513834136792L11.897963266949986 157.88913308836993L11.591446829261187 157.83548372780808L11.202667701549572 157.7986128033755L9.66607036886937 157.5985637373416L8.00150075445707 157.32247074533797L6.212560101608204 156.961185222628L4.30333124328962 156.50572304109193L3.1337477345893348 156.1831795674671L2.8032013934789006 154.94956382818344L2.6034137772998065 153.68815446391997L3.5406912292959873 152.91778386857368L5.099605421648235 151.72514512480666L6.586935968353018 150.66746666082165L7.99529884178493 149.73820170495807L9.317683069704984 148.93045734852774L9.65785371983985 148.73864336570713L9.916049258353311 148.56496076912603L10.018243882162182 148.4034235954785L9.587506902995116 145.6838573408414L9.440396308211135 145.56180623471045L9.141166884854172 145.4764110787613L8.758371590952962 145.39910365234041L7.251102720688692 145.03953231817547L5.624511368964036 144.59095688867356L3.88313534068115 144.0446553085396L2.0319741997268608 143.3921194379035L0.9025127654977894 142.94908812434784L0.7027251493177715 141.68767876008442L0.6358851730022934 140.41229603580263L1.648553775527347 139.74411778289536L3.3235927679414203 138.72096334384727L4.913333066761055 137.82454732957277L6.411115418817772 137.04758699125105L7.8106877638647205 136.3824943341148L8.169044944442987 136.22728864366928L8.443980835697985 136.0815462813883L8.562500859186798 135.9315762722609L8.418395583612153 133.18188381161474L8.284848690622837 133.04512406981044L7.996184701777764 132.92891872567264L7.623567227032041 132.8120217936049L6.162140772342568 132.2968677300912L4.5913489585411895 131.6807245493671L2.916616434996527 130.95539230624206L1.143804720247175 130.1129320660565L0.06683997631753869 129.5542668563516L0 128.27888413206978L0.06683997631577654 127.00350140778812L1.1438047202452282 126.44483619808429L2.9166164349958166 125.60237595789818L4.591348958541872 124.8770437147737L6.16214077234315 124.26090053404991L7.623567227025305 123.7457464705389L7.996184701785509 123.62884953849186L8.28484869062342 123.51264419433078L8.418395583612934 123.3758844525267L8.56250085918586 120.62619199188046L8.44398083569726 120.4762219827528L8.169044944432713 120.33047962049429L7.810687763871002 120.1752739300297L6.411115418817062 119.51018127289001L4.913333066760288 118.73322093456797L3.3235927679420882 117.83680492029303L1.6485537755291801 116.81365048124563L0.6358851730031319 116.14547222833721L0.7027251493198889 114.87008950405568L0.9025127654987841 113.60868013979218L2.0319741997248144 113.16564882623713L3.883135340680397 112.5131129556006L5.624511368964605 111.96681137546736L7.2511027206891185 111.51823594596576L8.758371590945856 111.15866461180273L9.141166884859288 111.08135718540393L9.440396308211575 110.99596202943087L9.587506902995713 110.87391092330017L10.018243882161073 108.15434466866282L9.916049258352459 107.99280749501509L9.657853719827145 107.81912489845527L9.31768306971074 107.62731091561746L7.995298841784091 106.81956655918297L6.586935968352151 105.89030160331905L5.099605421648832 104.83262313933375L3.5406912292976926 103.63998439556755L2.60341377729911 102.86961380021978L2.803201393477565 101.60820443595617L3.1337477345889226 100.37458869667273L4.303331243287502 100.05204522304854L6.212560101607409 99.59658304151219L8.00150075445751 99.23529751880308L9.66607036886964 98.95920452679972L11.202667701542111 98.75915546076692L11.591446829263617 98.7222845363576L11.897963266950256 98.66863517577148L12.05702578906768 98.56262992277377L12.769675227344237 95.90298601113693L12.684925668899623 95.73165150804742L12.446299327464544 95.53193158005968L12.128042188621393 95.30561085898424L10.897334396149901 94.36406461945543L9.59382131970301 93.29267626736728L8.225196029828155 92.08532350025646L6.799486427653932 90.73626725142387L5.9478691340844705 89.87214465508974L6.278415475195729 88.63852891580618L6.736099006354948 87.4462225536929L7.932990387852044 87.24770077379293L9.879369052632683 86.99430242032926L11.696274321896155 86.82199127483494L13.380584825966835 86.72140565292639L14.929675339124628 86.68307063445423L15.3201787551736 86.68704017759796L15.630623948960618 86.66572440602022L15.799895676133033 86.57692642189033L16.786649637143555 84.0063444685162L16.720273677960265 83.8270898126548L16.503830973747924 83.60352072656423L16.21097423799081 83.34517288443193L15.08542677309093 82.28014053944031L13.90104505567227 81.07836714611582L12.66611996770503 79.73456808545077L11.38923532845807 78.24387487412216L10.632608690598701 77.29546778479643L11.090292221758375 76.10316142268346L11.670098466421592 74.96522759574985L12.881184328275552 74.89290255573772L14.843387867559684 74.8443443157343L16.668351358894597 74.86289542442321L18.353949094276587 74.938919209732L19.898560628089513 75.06271824530498L20.28650989532163 75.1074847648564L20.597482542701044 75.11873612234103L20.775108898463202 75.04811829637532L22.025156299319278 72.59476213507388L21.977881168296193 72.4095512779617L21.785993492867505 72.16458250346031L21.521745759877575 71.87703805329234L20.513690356110715 70.70018832008195L19.461416331664154 69.38119676630564L18.37372154329296 67.91567435580305L17.25965168228616 66.29967652874934L16.606305459915603 65.27737589296967L17.1861117045776 64.13944206603531L17.881688184196165 63.06834821541746L19.09369961627057 63.12301232356771L21.050229717464276 63.27982621126348L22.86325674896142 63.48903632430677L24.53167395413186 63.74083658433206L26.05488342140474 64.02541330580982L26.436028086464603 64.11048633041273L26.744121106036516 64.15418154473267L26.928155978863956 64.1025175806101L28.42780103865259 61.79326669488236L28.40014469201816 61.60412884542774L28.234914406900216 61.34044431167203L28.002170830137487 61.02685365063695L27.12265195345647 59.75108034115651L26.214014556396307 58.32932177440827L25.28546707933735 56.75813258427789L24.346417979101986 55.03453535186158L23.80351037015383 53.94954170932358L24.499086849772098 52.87844785870544L25.30281268287645 51.88592911277118L26.50247063428948 52.066983457674354L28.43189114417386 52.427451387300295L30.21311781227584 52.825028354919425L31.84607495919616 53.24984631331979L33.33119375825345 53.69208283859032L33.70135792043102 53.81653029038448L34.00319578060041 53.8921906276278L34.19162284591465 53.86004656655069L35.92443513953991 51.720201592342534L35.91670058601531 51.52920898440375L35.77993798878849 51.24969767432506L35.581248555584736 50.91349656732824L34.839902398853624 49.552777320929124L34.08485685064667 48.04382882558839L33.32563004536965 46.38418713338973L32.57189012435656 44.57187458757508L32.14536933820537 43.43607535567608L32.949095171309466 42.44355660974169L33.85216456948159 41.54048721156957L35.026325336673764 41.84594812393523L36.90749712038536 42.406120733421616L38.6374079329708 42.98770861916104L40.21701400142106 43.58088988148535L41.647770859919234 44.17594097463383L42.00289892319185 44.33839938129509L42.29517462519905 44.445195890974034L42.48592943664164 44.43292391000213L44.432923910000255 42.485929436642294L44.44519589097247 42.29517462519971L44.33839938127143 42.002898923202764L44.175940974635225 41.647770859927064L43.58088988148384 40.217014001421646L42.987708619159704 38.6374079329711L42.40612073342166 36.907497120386296L41.84594812393567 35.02632533667601L41.540487211569484 33.8521645694818L42.44355660974105 32.94909517130891L43.436075355675385 32.1453693382047L44.57187458757295 32.57189012435586L46.38418713338886 33.32563004536949L48.043828825587994 34.08485685064794L49.55277732092844 34.83990239885502L50.91349656732065 35.58124855558249L51.249697674311804 35.77993798881086L51.52920898440301 35.91670058601676L51.72020159234174 35.92443513954167L53.86004656654883 34.19162284591509L53.892190627626235 34.003195780600834L53.81653029035985 33.701357920439364L53.692082838590935 33.33119375826135L53.24984631331829 31.846074959196542L52.825028354918146 30.213117812275982L52.427451387300295 28.43189114417477L52.06698345767461 26.502470634291697L51.885929112771294 25.302812682876734L52.87844785870524 24.499086849772027L53.94954170932327 23.803510370153575L55.034535351859546 24.34641797910109L56.758132584277035 25.28546707933714L58.32932177440776 26.214014556397544L59.751080341155685 27.12265195345782L61.02685365062963 28.00217083013449L61.34044431165651 28.234914406921092L61.60412884542686 28.400144692019566L61.793266694881396 28.427801038654295L64.10251758060818 26.92815597886421L64.15418154473106 26.744121106036815L64.11048633038737 26.436028086470344L64.02541330580962 26.054883421412683L63.74083658433054 24.531673954132117L63.489036324305474 22.863256748961433L63.279826211263384 21.0502297174652L63.123012323567735 19.09369961627283L63.068348215418 17.88168818419726L64.13944206603601 17.186111704578792L65.27737589296952 16.606305459915575L66.29967652874745 17.25965168228504L67.91567435580228 18.373721543292618L69.38119676630504 19.461416331665305L70.70018832008103 20.513690356111937L71.87703805328543 21.52174575987381L72.16458250344273 21.785993492886632L72.4095512779607 21.977881168297472L72.59476213507278 22.02515629932084L75.04811829637345 20.775108898463216L75.11873612233947 20.597482542701158L75.10748476483063 20.28650989532467L75.06271824530401 19.898560628097385L74.9389192097305 18.353949094276658L74.86289542442196 16.668351358894455L74.84434431573415 14.843387867560565L74.89290255573755 12.881184328277797L74.96522759574954 11.670098466421152L76.10316142268289 11.090292221757394L77.29546778479614 10.632608690598275L78.24387487412038 11.389235328456763L79.73456808545001 12.666119967704631L81.07836714611508 13.901045055673364L82.28014053943923 15.085426773092081L83.34517288442544 16.210974237986363L83.60352072654472 16.50383097376512L83.82708981265367 16.720273677961444L84.00634446851491 16.786649637145004L86.57692642188844 15.799895676132891L86.6657244060186 15.630623948960562L86.68704017757199 15.320178755173941L86.6830706344524 14.92967533913236L86.72140565292486 13.380584825966764L86.82199127483368 11.696274321895899L86.99430242032899 9.879369052633564L87.2477007737925 7.932990387854275L87.44622255369289 6.736099006355204L88.63852891580663 6.27841547519769L89.87214465509008 5.947869134086176L90.73626725142222 6.799486427652482L92.08532350025574 8.2251960298277L93.29267626736642 9.593821319704034L94.36406461945424 10.897334396150939L95.30561085897824 12.12804218861632L95.53193158003847 12.446299327479622L95.73165150804617 12.684925668900718L95.9029860111355 12.769675227345573L98.56262992277189 12.057025789067367L98.66863517576988 11.897963266950057L98.72228453633173 11.591446829261258L98.7591554607643 11.202667701549643L98.9592045267982 9.666070368869441L99.23529751880184 8.00150075445714L99.59658304151182 6.21256010160829L100.05204522304788 4.303331243289705L100.37458869667272 3.13374773458942L101.60820443595583 2.8032013934756463L102.86961380021933 2.6034137772969075L103.63998439556609 3.5406912292960584L104.8326231393331 5.099605421648306L105.89030160331812 6.586935968353089L106.81956655918171 7.995298841785001L107.62731091561204 9.317683069705055L107.81912489843265 9.65785371983992L107.99280749501375 9.916049258353382L108.15434466866128 10.018243882162253L110.87391092329837 9.587506902995187L110.99596202942932 9.44039630821122L111.08135718537847 9.141166884854243L111.15866461179937 8.758371590953047L111.51823594596429 7.251102720688763L111.9668113754662 5.624511368964107L112.51311295560016 3.8831353406812212L113.16564882623628 2.031974199726932L113.60868013979194 0.9025127654978888L114.87008950405544 0.7027251493193489L116.14547222833713 0.6358851730037429L116.81365048124434 1.6485537755274464L117.83680492029242 3.32359276794152L118.73322093456693 4.9133330667611546L119.51018127288864 6.411115418817872L120.1752739300249 7.810687763864806L120.33047962047041 8.169044944443087L120.47622198275137 8.443980835698085L120.62619199187878 8.562500859186898L123.37588445252494 8.418395583612238L123.51264419432925 8.284848690622937L123.62884953846705 7.996184701777864L123.74574647053478 7.62356722703214L124.26090053404847 6.162140772342667L124.87704371477258 4.591348958541289L125.60237595789764 2.9166164349966124L126.4448361980832 1.1438047202472745L127.00350140778811 0.06683997631785132L128.27888413206992 0L129.55426685635163 0.06683997631577654L130.11293206605546 1.1438047202453134L130.95539230624158 2.916616434995902L131.68072454936603 4.591348958541957L132.29686773008984 6.1621407723432355L132.81202179360085 7.62356722702539L132.9289187256479 7.9961847017855945L133.04512406980896 8.284848690623505L133.18188381161303 8.41839558361302L135.9315762722593 8.562500859185946L136.08154628138692 8.443980835697346L136.22728864364547 8.169044944432798L136.38249433411005 7.810687763871087L137.04758699124974 6.411115418817147L137.82454732957177 4.913333066760373L138.7209633438467 3.3235927679421735L139.7441177828941 1.6485537755292654L140.41229603580254 0.6358851730031176L141.68767876008408 0.7027251493198463L142.94908812434755 0.9025127654987557L143.39211943790258 2.0319741997248997L144.04465530853912 3.8831353406804823L144.59095688867237 5.62451136896469L145.03953231817397 7.251102720689204L145.39910365233698 8.758371590945941L145.4764110787358 9.141166884859373L145.56180623470885 9.44039630821166L145.68385734083955 9.587506902995798L148.4034235954769 10.018243882161158L148.56496076912464 9.91604925835253L148.73864336568442 9.65785371982723L148.93045734852225 9.317683069710824L149.73820170495674 7.995298841784177L150.66746666082068 6.586935968352236L151.72514512480598 5.099605421648917L152.91778386857217 3.5406912292977637L153.68815446391994 2.6034137772992096L154.9495638281835 2.8032013934779343L156.183179567467 3.133747734589292L156.50572304109122 4.303331243287602L156.9611852226276 6.212560101607508L157.3224707453367 8.00150075445761L157.59856373734004 9.66607036886974L157.79861280337283 11.202667701542211L157.83548372778216 11.591446829263717L157.88913308836828 11.897963266950356L157.995138341366 12.05702578906778L160.65478225300285 12.769675227344337L160.82611675609235 12.684925668899723L161.0258366840801 12.446299327464644L161.25215740515551 12.128042188621507L162.19370364468432 10.89733439615L163.2650919967725 9.59382131970311L164.4724447638833 8.225196029828254L165.8215010127159 6.799486427654031L166.68562360905 5.947869134084684L167.9192393483331 6.278415475197178L169.11154571044636 6.736099006356241L169.3100674903468 7.932990387852129L169.5634658438105 9.879369052632768L169.7357769893048 11.69627432189624L169.83636261121336 13.38058482596692L169.87469762968553 14.929675339124714L169.8707280865418 15.320178755173686L169.89204385811954 15.63062394896069L169.9808418422494 15.799895676133119L172.55142379562355 16.786649637143626L172.73067845148495 16.72027367796035L172.95424753757553 16.50383097374801L173.2125953797078 16.210974237990897L174.27762772469944 15.085426773091015L175.47940111802393 13.901045055672355L176.82320017868898 12.666119967705114L178.3138933900176 11.389235328458156L179.2623004793433 10.632608690598815L180.4546068414558 11.09029222175944L181.5925406683894 11.67009846642253L181.664865708402 12.881184328275623L181.71342394840542 14.843387867559755L181.6948728397165 16.668351358894668L181.61884905440772 18.353949094276643L181.49505001883475 19.898560628089584L181.45028349928333 20.2865098953217L181.4390321417987 20.597482542701115L181.5096499677644 20.77510889846326L183.96300612906583 22.02515629931935L184.14821698617806 21.977881168296264L184.39318576067942 21.785993492867576L184.6807302108474 21.521745759877646L185.85757994405776 20.513690356110786L187.1765714978341 19.461416331664225L188.64209390833668 18.37372154329303L190.2580917353904 17.259651682286233L191.28039237117002 16.606305459915674L192.41832619810475 17.186111704577115L193.48942004872265 17.881688184195767L193.43475594057207 19.09369961627067L193.27794205287628 21.050229717464376L193.06873193983301 22.86325674896152L192.8169316798077 24.53167395413196L192.53235495832996 26.05488342140484L192.44728193372706 26.436028086464702L192.40358671940712 26.744121106036616L192.45525068352967 26.928155978864055L194.7645015692574 28.42780103865269L194.95363941871204 28.400144692018273L195.21732395246772 28.234914406900316L195.53091461350283 28.0021708301376L196.80668792298326 27.122651953456568L198.22844648973148 26.214014556396407L199.79963567986186 25.28546707933745L201.52323291227822 24.346417979102085L202.60822655481627 23.80351037015383L203.67932040543474 24.49908684977173L204.67183915136889 25.302812682876066L204.4907848064654 26.50247063428955L204.13031687683946 28.43189114417393L203.7327399092203 30.21311781227591L203.30792195081995 31.846074959196216L202.86568542554943 33.33119375825352L202.74123797375526 33.70135792043109L202.66557763651196 34.00319578060048L202.69772169758903 34.19162284591472L204.83756667179722 35.92443513953998L205.028559279736 35.91670058601538L205.3080705898147 35.77993798878856L205.6442716968115 35.58124855558481L207.0049909432106 34.839902398853695L208.51393943855135 34.084856850646744L210.17358113075 33.32563004536972L211.98589367656467 32.57189012435663L213.12169290846373 32.14536933820533L214.1142116543982 32.94909517130938L215.01728105257035 33.85216456948159L214.71182014020454 35.026325336673864L214.15164753071815 36.90749712038546L213.57005964497876 38.6374079329709L212.97687838265443 40.21701400142116L212.38182728950596 41.64777085991933L212.21936888284466 42.00289892319195L212.11257237316573 42.29517462519917L212.12484435413765 42.48592943664174L214.07183882749746 44.432923910000355L214.26259363894007 44.44519589097257L214.55486934093702 44.33839938127153L214.90999740421273 44.175940974635324L216.34075426271812 43.58088988148394L217.92036033116867 42.987708619159804L219.65027114375349 42.40612073342176L221.53144292746376 41.84594812393577L222.70560369465798 41.54048721156957L223.60867309283014 42.44355660974175L224.41239892593444 43.436075355676024L223.9858781397839 44.571874587573035L223.23213821877027 46.38418713338895L222.47291141349183 48.04382882558808L221.71786586528475 49.55277732092853L220.97651970855725 50.913496567320735L220.77783027532888 51.24969767431189L220.641067678123 51.5292089844031L220.6333331245981 51.72020159234182L222.36614541822468 53.86004656654892L222.55457248353892 53.89219062762632L222.8564103437004 53.816530290359935L223.2265745058784 53.69208283859102L224.7116933049432 53.24984631331837L226.34465045186377 52.82502835491823L228.12587711996497 52.42745138730038L230.05529762984804 52.066983457674695L231.25495558126295 51.88592911277138L232.0586814143673 52.87844785870563L232.75425789398577 53.94954170932361L232.21135028503866 55.03453535185962L231.27230118480261 56.75813258427711L230.34375370774222 58.32932177440783L229.43511631068193 59.751080341155756L228.55559743400528 61.02685365062972L228.32285385721866 61.34044431165657L228.1576235721202 61.60412884542693L228.12996722548547 61.79326669488147L229.62961228527556 64.10251758060825L229.81364715810292 64.15418154473113L230.1217401776694 64.11048633038745L230.50288484272707 64.0254133058097L232.02609431000764 63.74083658433061L233.6945115151783 63.489036324305545L235.50753854667454 63.279826211263455L237.46406864786692 63.12301232356781L238.67608007994252 63.06834821541807L239.37165655956227 64.1394420660354L239.95146280422534 65.27737589296899L239.29811658185474 66.29967652874753L238.18404672084714 67.91567435580234L237.09635193247445 69.38119676630511L236.04407790802782 70.70018832008111L235.03602250426593 71.8770380532855L234.77177477125312 72.1645825034428L234.57988709584228 72.40955127796076L234.5326119648189 72.59476213507284L235.78265936567652 75.0481182963735L235.9602857214386 75.11873612233953L236.2712583688151 75.1074847648307L236.65920763604237 75.06271824530407L238.2038191698631 74.93891920973057L239.8894169052453 74.86289542442202L241.7143803965792 74.84434431573422L243.67658393586197 74.89290255573762L244.88766979771853 74.96522759574964L245.46747604238197 76.10316142268312L245.92515957354112 77.29546778479636L245.16853293568298 78.24387487412045L243.8916482964351 79.73456808545008L242.65672320846636 81.07836714611514L241.47234149104764 82.28014053943932L240.34679402615336 83.34517288442551L240.05393729037462 83.60352072654479L239.8374945861783 83.82708981265375L239.77111862699473 84.00634446851498L240.75787258800685 86.57692642188852L240.9271443151792 86.66572440601868L241.2375895089658 86.68704017757206L241.62809292500737 86.68307063445248L243.17718343817296 86.72140565292493L244.86149394224384 86.82199127483375L246.6783992115062 86.99430242032906L248.62477787628546 87.24770077379257L249.82166925778455 87.44622255369296L250.279352788942 88.63852891580673L250.6098991300535 89.87214465509017L249.75828183648727 90.7362672514223L248.33257223431204 92.08532350025581L246.9639469444357 93.29267626736649L245.6604338679888 94.36406461945433L244.42972607552343 95.30561085897831L244.11146893666012 95.53193158003855L243.87284259523904 95.73165150804624L243.78809303679418 95.90298601113557L244.50074247507237 98.56262992277196L244.65980499718967 98.66863517576996L244.96632143487847 98.72228453633181L245.3551005625901 98.75915546076438L246.89169789527028 98.95920452679829L248.55626750968258 99.23529751880193L250.34520816253143 99.59658304151189L252.25443702085005 100.05204522304795L253.42402052955015 100.37458869667284L253.75456687066372 101.60820443595597L253.95435448684253 102.86961380021947L253.01707703484368 103.63998439556617L251.45816284249145 104.83262313933318L249.97083229578666 105.8903016033182L248.56246942235475 106.8195665591818L247.2400851944347 107.62731091561213L246.89991454429983 107.81912489843273L246.64171900578637 107.99280749501384L246.53952438197751 108.15434466866137L246.97026136114457 110.87391092329845L247.11737195592855 110.9959620294294L247.4166013792855 111.08135718537855L247.79939667318672 111.15866461179945L249.306665543451 111.51823594596438L250.93325689517565 111.96681137546628L252.67463292345855 112.51311295560025L254.52579406441282 113.16564882623636L255.6552554986419 113.60868013979201L255.85504311482003 114.87008950405554L255.92188309113567 116.14547222833724L254.9092144886123 116.81365048124444L253.23417549619825 117.83680492029252L251.64443519737858 118.73322093456702L250.14665284532188 119.51018127288874L248.74708050027493 120.175273930025L248.38872331969668 120.33047962047051L248.11378742844167 120.47622198275147L247.99526740495287 120.62619199187888L248.13937268052752 123.37588445252504L248.27291957351682 123.51264419432935L248.56158356236188 123.62884953846714L248.9342010371076 123.74574647053487L250.3956274917971 124.26090053404857L251.96641930559846 124.87704371477268L253.64115182914315 125.60237595789773L255.41396354389246 126.4448361980833L256.4909282878218 127.0035014077882L256.55776826413904 128.27888413206998L256.4909282878233 129.5542668563517L255.41396354389445 130.11293206605552L253.64115182914384 130.95539230624166L251.9664193055978 131.68072454936612L250.39562749179652 132.2968677300899L248.93420103711435 132.81202179360093L248.56158356235414 132.92891872564797L248.27291957351625 133.04512406980905L248.13937268052672 133.18188381161312L247.9952674049538 135.93157627225938L248.1137874284424 136.081546281387L248.38872331970697 136.22728864364552L248.74708050026868 136.3824943341101L250.1466528453226 137.0475869912498L251.64443519737938 137.82454732957186L253.23417549619757 138.7209633438468L254.90921448861047 139.7441177828942L255.92188309113646 140.41229603580263L255.8550431148209 141.6876787600843L255.6552554986419 142.94908812434767L254.52579406441487 143.39211943790255"/>
    <path d="M250.17826449005534 119.57455075858861L252.74910940572698 118.91362826930066L254.70730045754564 118.76234868286905L255.97486996501513 118.88624191860164L257.7662844343091 119.38582078607115L258.68465653754197 119.15109857903467L260.0613895325878 116.76652708315878L259.80547887509726 115.85383240811396L258.4771236500278 114.55221140273308L257.73604420679163 113.5164106260683L256.8879606458062 111.74492763651406L256.1749138536261 109.18804938570818L256.11474764320496 108.57248023652187L256.7657146735097 107.79668793949574L257.5415069705358 107.14572090919096L258.15707611972243 107.20588711961214L260.71395437052814 107.91893391179215L262.48543736008224 108.7670174727777L263.52123813674706 109.50809691601393L264.8228591421279 110.83645214108336L265.73555381717273 111.09236279857383L268.12012531304856 109.71562980352796L268.35484752008506 108.79725770029513L267.85526865261556 107.00584323100112L267.731375416883 105.73827372353169L267.8826550033147 103.78008267171296L268.5435774926027 101.20923775604112L268.7992566005217 100.6460561298492L269.75090673430486 100.29968380771669L270.74824608674214 100.1238259709597L271.2512615025131 100.48371601222718L273.10905962600475 102.37967177374492L274.21916711683787 103.99987517686742L274.7456571810711 105.15956918926483L275.2087164252957 106.96076906211519L275.87117787103807 107.63874153012353L278.6246438611297 107.6387415301235L279.2871053068721 106.96076906211518L279.75016455109665 105.15956918926479L280.2766546153299 103.99987517686743L281.38676210616313 102.37967177374492L283.2445602296549 100.48371601222702L283.7475756454256 100.1238259709597L284.7449149978629 100.2996838077167L285.6965651316461 100.64605612984921L285.9522442395652 101.20923775604136L286.6131667288531 103.78008267171303L286.7644463152848 105.73827372353166L286.64055307955215 107.00584323100117L286.14097421208265 108.79725770029515L286.37569641911915 109.71562980352797L288.76026791499504 111.0923627985738L289.67296259003984 110.83645214108333L290.97458359542077 109.50809691601388L292.01038437208547 108.76701747277768L293.78186736163974 107.9189339117922L296.3387456124456 107.20588711961213L296.95431476163196 107.14572090919097L297.73010705865806 107.79668793949577L298.38107408896286 108.57248023652187L298.3209078785417 109.18804938570847L297.60786108636165 111.74492763651416L296.7597775253761 113.51641062606828L296.01869808213985 114.55221140273309L294.69034285707045 115.85383240811396L294.43443219958 116.76652708315878L295.8111651946258 119.15109857903464L296.72953729785866 119.38582078607112L298.52095176715267 118.88624191860161L299.7885212746221 118.76234868286903L301.74671232644084 118.91362826930074L304.3175572421127 119.57455075858874L304.8807388683046 119.83022986650774L305.2271111904371 120.78188000029087L305.4029690271941 121.77921935272818L305.0430789859266 122.28223476849914L303.1471232244089 124.1400328919908L301.52691982128636 125.2501403828239L300.367225808889 125.77663044705716L298.5660259360386 126.2396896912817L297.8880534680303 126.90215113702406L297.8880534680303 129.65561712711576L298.5660259360386 130.31807857285813L300.36722580888903 130.78113781708268L301.52691982128636 131.3076278813159L303.1471232244089 132.41773537214914L305.0430789859268 134.27553349564093L305.4029690271941 134.77854891141166L305.2271111904371 135.77588826384897L304.8807388683046 136.7275383976321L304.31755724211246 136.9832175055512L301.7467123264408 137.64413999483918L299.7885212746221 137.79541958127078L298.5209517671526 137.67152634553818L296.72953729785866 137.1719474780687L295.8111651946258 137.40666968510516L294.43443219958 139.79124118098105L294.6903428570705 140.70393585602585L296.01869808213996 142.00555686140675L296.75977752537614 143.04135763807153L297.6078610863616 144.81284062762575L298.3209078785417 147.36971887843163L298.38107408896286 147.98528802761797L297.73010705865806 148.7610803246441L296.9543147616319 149.4120473549489L296.33874561244534 149.3518811445277L293.7818673616396 148.6388343523477L292.01038437208547 147.79075079136214L290.9745835954207 147.0496713481259L289.67296259003984 145.72131612305648L288.760267914995 145.46540546556602L286.37569641911915 146.84213846061186L286.1409742120827 147.7605105638447L286.6405530795522 149.55192503313873L286.7644463152848 150.81949454060816L286.61316672885306 152.77768559242688L285.95224423956506 155.34853050809872L285.696565131646 155.91171213429064L284.7449149978629 156.25808445642315L283.7475756454256 156.43394229318014L283.24456022965467 156.07405225191266L281.386762106163 154.17809649039492L280.2766546153299 152.55789308727242L279.75016455109665 151.398199074875L279.2871053068721 149.59699920202465L278.62464386112975 148.9190267340163L275.87117787103807 148.91902673401634L275.20871642529573 149.59699920202468L274.7456571810711 151.39819907487504L274.21916711683787 152.55789308727242L273.10905962600464 154.17809649039492L271.2512615025129 156.0740522519128L270.74824608674214 156.43394229318014L269.75090673430486 156.25808445642315L268.7992566005217 155.9117121342906L268.5435774926026 155.34853050809846L267.88265500331465 152.77768559242682L267.731375416883 150.81949454060816L267.8552686526156 149.55192503313867L268.3548475200851 147.7605105638447L268.1201253130487 146.84213846061186L265.7355538171728 145.46540546556605L264.8228591421279 145.7213161230565L263.52123813674706 147.04967134812597L262.4854373600823 147.79075079136217L260.71395437052803 148.63883435234766L258.15707611972215 149.3518811445277L257.5415069705358 149.41204735494887L256.7657146735097 148.76108032464407L256.1147476432049 147.98528802761797L256.1749138536261 147.36971887843137L256.8879606458061 144.81284062762566L257.7360442067917 143.04135763807156L258.47712365002786 142.00555686140675L259.8054788750973 140.70393585602588L260.0613895325878 139.79124118098105L258.6846565375419 137.40666968510521L257.7662844343091 137.17194747806872L255.9748699650151 137.6715263455382L254.70730045754564 137.7954195812708L252.74910940572693 137.6441399948391L250.17826449005508 136.9832175055511L249.61508286386317 136.7275383976321L249.26871054173066 135.77588826384897L249.09285270497367 134.77854891141166L249.45274274624114 134.2755334956407L251.34869850775888 132.41773537214905L252.96890191088139 131.30762788131594L254.1285959232788 130.78113781708268L255.92979579612916 130.31807857285813L256.60776826413746 129.6556171271158L256.60776826413746 126.90215113702409L255.92979579612916 126.23968969128173L254.12859592327874 125.77663044705717L252.9689019108814 125.25014038282393L251.34869850775888 124.1400328919907L249.45274274624097 122.28223476849892L249.09285270497367 121.77921935272818L249.26871054173068 120.78188000029087L249.61508286386317 119.83022986650772L250.17826449005534 119.57455075858861"/>
  </g>
</svg>
