999
DXF generated by OpenJsCad
  0
SECTION
  2
HEADER
  0
ENDSEC
  0
SECTION
  2
TABLES
  0
TABLE
  2
LTYPE
  70
1
  0
LTYPE
  2
CONTINUOUS
  3
Solid Line
  72
65
  73
0
  40
0.0
  0
ENDTAB
  0
TABLE
  2
LAYER
  70
1
  0
LAYER
  2
continuous
  0
ENDTAB
  0
TABLE
  2
STYLE
  70
0
  0
ENDTAB
  0
TABLE
  2
VIEW
  70
0
  0
ENDTAB
  0
ENDSEC
  0
SECTION
  2
BLOCKS
  0
ENDSEC
  0
SECTION
  2
ENTITIES
  0
LWPOLYLINE
  8
1891
  70
1
 10
39.59949673569816
 20
-9.418360414914385
 30
0.0
 10
39.85331858694728
 20
-8.471084369981492
 30
0.0
 10
40.00673266627034
 20
-7.502465994283075
 30
0.0
 10
39.872793884936236
 20
-7.397513558015327
 30
0.0
 10
39.571016119385035
 20
-7.171082914089598
 30
0.0
 10
39.27744035559751
 20
-6.960269312802256
 30
0.0
 10
38.992582692562124
 20
-6.7646258384331945
 30
0.0
 10
38.716944024304546
 20
-6.583690927921509
 30
0.0
 10
38.45100965489914
 20
-6.416988813175943
 30
0.0
 10
38.19524892663069
 20
-6.264029973814929
 30
0.0
 10
37.95011485828342
 20
-6.124311597976651
 30
0.0
 10
37.71604379788534
 20
-5.997318053416909
 30
0.0
 10
37.49345508654759
 20
-5.882521366428775
 30
0.0
 10
37.282750735781256
 20
-5.779381709541258
 30
0.0
 10
37.08431511769492
 20
-5.687347897199788
 30
0.0
 10
36.898514668261
 20
-5.60585788910661
 30
0.0
 10
36.725697603780716
 20
-5.5343393018011655
 30
0.0
 10
36.56619322173419
 20
-5.4722110229170315
 30
0.0
 10
36.42031381039109
 20
-5.41887824665216
 30
0.0
 10
36.288350019426176
 20
-5.373743971649211
 30
0.0
 10
36.1705751414355
 20
-5.336198609494739
 30
0.0
 10
36.067242453224395
 20
-5.305625927411143
 30
0.0
 10
36.00380725523018
 20
-5.288293771161433
 30
0.0
 10
35.851660833808474
 20
-5.2418425455252
 30
0.0
 10
35.71726716834824
 20
-5.191688911777895
 30
0.0
 10
35.60070725307223
 20
-5.138556292563369
 30
0.0
 10
35.502039561595964
 20
-5.08316973628461
 30
0.0
 10
35.42129962384535
 20
-5.026256299899405
 30
0.0
 10
35.3585020136767
 20
-4.968539289698628
 30
0.0
 10
35.313636351569166
 20
-4.910747908224377
 30
0.0
 10
35.286671313537155
 20
-4.853606383835614
 30
0.0
 10
35.277552687414186
 20
-4.797838433629259
 30
0.0
 10
35.36671220009323
 20
-4.09206821783845
 30
0.0
 10
35.44465350647022
 20
-3.3505062228675753
 30
0.0
 10
35.50418022196018
 20
-2.6416214745872173
 30
0.0
 10
35.52469439304596
 20
-2.5889680568726265
 30
0.0
 10
35.56295057125423
 20
-2.5386815585502363
 30
0.0
 10
35.61885131621146
 20
-2.491481160516135
 30
0.0
 10
35.69227686628857
 20
-2.448082847896179
 30
0.0
 10
35.78308523291004
 20
-2.409198791016578
 30
0.0
 10
35.89111231098773
 20
-2.375536728991822
 30
0.0
 10
36.016172005413424
 20
-2.347799356329943
 30
0.0
 10
36.15805637352957
 20
-2.326683712959002
 30
0.0
 10
36.316535783489044
 20
-2.312880578074386
 30
0.0
 10
36.38218833265573
 20
-2.3091160899403285
 30
0.0
 10
36.48961935898093
 20
-2.300695569375824
 30
0.0
 10
36.6126267122779
 20
-2.288457435357681
 30
0.0
 10
36.75109069523861
 20
-2.271746270884161
 30
0.0
 10
36.90487100675057
 20
-2.2499101426940613
 30
0.0
 10
37.07380683832995
 20
-2.222301176402078
 30
0.0
 10
37.257716985608525
 20
-2.188276129058814
 30
0.0
 10
37.456399974805215
 20
-2.1471969587530904
 30
0.0
 10
37.66963420407281
 20
-2.098431390899616
 30
0.0
 10
37.897178099435024
 20
-2.0413534798116157
 30
0.0
 10
38.13877028692072
 20
-1.9753441721901714
 30
0.0
 10
38.3941297756329
 20
-1.89979185120599
 30
0.0
 10
38.66295616016672
 20
-1.8140928957407214
 30
0.0
 10
38.944929833867846
 20
-1.7176522194473975
 30
0.0
 10
39.23971221768616
 20
-1.6098838103007618
 30
0.0
 10
39.54694600296252
 20
-1.4902112632364595
 30
0.0
 10
39.866255408164776
 20
-1.3580683065472094
 30
0.0
 10
40.197246449437834
 20
-1.2128993216782715
 30
0.0
 10
40.53950722479803
 20
-1.0541598560766963
 30
0.0
 10
40.69233996088523
 20
-0.9793483208433866
 30
0.0
 10
40.743665431525216
 20
7.823900491013153e-15
 30
0.0
 10
40.692339960885235
 20
0.9793483208433951
 30
0.0
 10
40.53950722479821
 20
1.0541598560766177
 30
0.0
 10
40.197246449437934
 20
1.2128993216782253
 30
0.0
 10
39.86625540816454
 20
1.358068306547312
 30
0.0
 10
39.5469460029623
 20
1.4902112632365527
 30
0.0
 10
39.23971221776425
 20
1.6098838102703545
 30
0.0
 10
38.944929833838046
 20
1.717652219456349
 30
0.0
 10
38.662956160203265
 20
1.8140928957292777
 30
0.0
 10
38.394129775632415
 20
1.8997918512067968
 30
0.0
 10
38.138770286930466
 20
1.9753441721877196
 30
0.0
 10
37.897178099693036
 20
2.041353480806174
 30
0.0
 10
37.66963420407292
 20
2.098431390900721
 30
0.0
 10
37.45639997480532
 20
2.1471969587541166
 30
0.0
 10
37.257716985608866
 20
2.188276129057732
 30
0.0
 10
37.07380683821005
 20
2.222301175560166
 30
0.0
 10
36.90487081409431
 20
2.249908976724267
 30
0.0
 10
36.751090710203364
 20
2.271746268800381
 30
0.0
 10
36.6126267012576
 20
2.288457436699139
 30
0.0
 10
36.4896193671964
 20
2.300695568590321
 30
0.0
 10
36.38218832812049
 20
2.309116090295673
 30
0.0
 10
36.31653578348899
 20
2.3128805780745325
 30
0.0
 10
36.158056373552526
 20
2.3266837132521005
 30
0.0
 10
36.01617200533572
 20
2.347799355549076
 30
0.0
 10
35.891112311168285
 20
2.3755367304878567
 30
0.0
 10
35.783085232916335
 20
2.4091987910609176
 30
0.0
 10
35.692276687733084
 20
2.448081755336372
 30
0.0
 10
35.61885131483501
 20
2.4914811530763115
 30
0.0
 10
35.56295057125219
 20
2.538681558540006
 30
0.0
 10
35.524694393045905
 20
2.588968056872947
 30
0.0
 10
35.504180221960894
 20
2.641621474589973
 30
0.0
 10
35.44465350647661
 20
3.3505062228687215
 30
0.0
 10
35.36671220008674
 20
4.092068217838241
 30
0.0
 10
35.27755268741292
 20
4.797838433631807
 30
0.0
 10
35.28667131353714
 20
4.853606383835937
 30
0.0
 10
35.313636351573294
 20
4.910747908214795
 30
0.0
 10
35.3585020165699
 20
4.968539282707562
 30
0.0
 10
35.421300025654936
 20
5.026255268338424
 30
0.0
 10
35.50203956158058
 20
5.083169736326671
 30
0.0
 10
35.600707252584584
 20
5.138556293989173
 30
0.0
 10
35.71726716858661
 20
5.191688911030248
 30
0.0
 10
35.851660833725084
 20
5.2418425458071205
 30
0.0
 10
36.00380725523021
 20
5.288293771161589
 30
0.0
 10
36.067242457586644
 20
5.30562592870165
 30
0.0
 10
36.170575133562885
 20
5.336198607018309
 30
0.0
 10
36.28835002992676
 20
5.373743975252606
 30
0.0
 10
36.420313796186605
 20
5.41887824150257
 30
0.0
 10
36.5661936525992
 20
5.472209922481965
 30
0.0
 10
36.725697604073055
 20
5.534339301002583
 30
0.0
 10
36.898514668260894
 20
5.605857889105482
 30
0.0
 10
37.08431511769461
 20
5.687347897200772
 30
0.0
 10
37.28275073578092
 20
5.779381709542316
 30
0.0
 10
37.493455086088446
 20
5.882521367347959
 30
0.0
 10
37.716043797876324
 20
5.997318053412486
 30
0.0
 10
37.95011485828373
 20
6.124311597977541
 30
0.0
 10
38.19524892659733
 20
6.264029973796139
 30
0.0
 10
38.45100965492643
 20
6.416988813190895
 30
0.0
 10
38.71694402423449
 20
6.583690927875533
 30
0.0
 10
38.992582692562316
 20
6.76462583843333
 30
0.0
 10
39.27744035559772
 20
6.960269312802406
 30
0.0
 10
39.57101611938495
 20
7.171082914089532
 30
0.0
 10
39.87279388493609
 20
7.397513558015214
 30
0.0
 10
40.00673266627034
 20
7.502465994283083
 30
0.0
 10
39.85331858694728
 20
8.471084369981504
 30
0.0
 10
39.59949673569817
 20
9.41836041491437
 30
0.0
 10
39.434449568798044
 20
9.459761426037801
 30
0.0
 10
39.066664221861366
 20
9.54387203695203
 30
0.0
 10
38.71272379987699
 20
9.617051824166008
 30
0.0
 10
38.37291800573176
 20
9.679918981875849
 30
0.0
 10
38.047516694277654
 20
9.733098900873799
 30
0.0
 10
37.73676970053105
 20
9.777223607888592
 30
0.0
 10
37.44090668412757
 20
9.812931200746599
 30
0.0
 10
37.16013698631101
 20
9.840865280279777
 30
0.0
 10
36.89464950431223
 20
9.861674378714754
 30
0.0
 10
36.64461257904533
 20
9.8760113854291
 30
0.0
 10
36.41017389868679
 20
9.884532970169344
 30
0.0
 10
36.19146041726828
 20
9.887899004216317
 30
0.0
 10
35.988578288323936
 20
9.886771979868369
 30
0.0
 10
35.8016128139467
 20
9.881816427765349
 30
0.0
 10
35.630628462660596
 20
9.873697157821619
 30
0.0
 10
35.47566859468065
 20
9.863084571258296
 30
0.0
 10
35.33675590936899
 20
9.850642273826605
 30
0.0
 10
35.21389212999042
 20
9.837038310365783
 30
0.0
 10
35.10705799196866
 20
9.822938654488219
 30
0.0
 10
35.042057431936115
 20
9.812970947616277
 30
0.0
 10
34.8841713441677
 20
9.793522729093128
 30
0.0
 10
34.74099730092214
 20
9.784677525047302
 30
0.0
 10
34.61290353660139
 20
9.78580739932682
 30
0.0
 10
34.50023837326481
 20
9.796273770618653
 30
0.0
 10
34.40332998982116
 20
9.815426890664355
 30
0.0
 10
34.32248589532335
 20
9.842611914008806
 30
0.0
 10
34.257993201001334
 20
9.877158459250508
 30
0.0
 10
34.210117861181914
 20
9.918392170249087
 30
0.0
 10
34.179104712849174
 20
9.96562984846342
 30
0.0
 10
33.97349337230911
 20
10.6466474641239
 30
0.0
 10
33.74307586224549
 20
11.355799641502644
 30
0.0
 10
33.50912681994655
 20
12.027609779718
 30
0.0
 10
33.506451373391556
 20
12.084054935383438
 30
0.0
 10
33.5209467697008
 20
12.145554127007948
 30
0.0
 10
33.55281650988709
 20
12.211410717580266
 30
0.0
 10
33.60224240364475
 20
12.28092191069794
 30
0.0
 10
33.669384403723356
 20
12.353379354437827
 30
0.0
 10
33.75438045609667
 20
12.428069749394034
 30
0.0
 10
33.8573463660292
 20
12.504275460491025
 30
0.0
 10
33.978375680131116
 20
12.58127513217024
 30
0.0
 10
34.11753958448258
 20
12.658344306548862
 30
0.0
 10
34.175985017289925
 20
12.688486635041505
 30
0.0
 10
34.27070320913184
 20
12.739875298363895
 30
0.0
 10
34.37809832044487
 20
12.80108698805984
 30
0.0
 10
34.497794420185876
 20
12.872671772072886
 30
0.0
 10
34.62939817176468
 20
12.955168155468977
 30
0.0
 10
34.77249915506871
 20
13.049102594247044
 30
0.0
 10
34.92667020119253
 20
13.15498901762522
 30
0.0
 10
35.09146773965354
 20
13.273328359123868
 30
0.0
 10
35.266432157848456
 20
13.404608096726927
 30
0.0
 10
35.4510881719212
 20
13.549301803285118
 30
0.0
 10
35.644945213206995
 20
13.707868701756093
 30
0.0
 10
35.84749781677225
 20
13.880753242621891
 30
0.0
 10
36.05822603379656
 20
14.068384675327394
 30
0.0
 10
36.27659584564952
 20
14.271176642564086
 30
0.0
 10
36.50205959241387
 20
14.48952678044951
 30
0.0
 10
36.734056411326165
 20
14.723816330687399
 30
0.0
 10
36.972012685421355
 20
14.974409764104823
 30
0.0
 10
37.215342502112435
 20
15.241654415837996
 30
0.0
 10
37.46344812140954
 20
15.525880132413455
 30
0.0
 10
37.57263918053695
 20
15.656386544633312
 30
0.0
 10
37.22119048267972
 20
16.571941704222095
 30
0.0
 10
36.77596548369343
 20
17.44574496454609
 30
0.0
 10
36.60591723915793
 20
17.451926028709543
 30
0.0
 10
36.22868130513588
 20
17.45773174763195
 30
0.0
 10
35.8672603972758
 20
17.45572402933399
 30
0.0
 10
35.52180935796085
 20
17.44656779160242
 30
0.0
 10
35.19246211900996
 20
17.430930864918743
 30
0.0
 10
34.87933165019919
 20
17.409483408331948
 30
0.0
 10
34.58250992455213
 20
17.3828973246231
 30
0.0
 10
34.30206789656692
 20
17.351845674893756
 30
0.0
 10
34.03805549818494
 20
17.317002093328046
 30
0.0
 10
33.79050164833302
 20
17.27904020214827
 30
0.0
 10
33.559414278529324
 20
17.238633027389962
 30
0.0
 10
33.344780373601616
 20
17.196452415790635
 30
0.0
 10
33.14656602748071
 20
17.1531684531632
 30
0.0
 10
32.96471651451523
 20
17.109448883861003
 30
0.0
 10
32.799156672683914
 20
17.065957393866558
 30
0.0
 10
32.64978953042563
 20
17.02335874962146
 30
0.0
 10
32.51649931967322
 20
16.982306774961852
 30
0.0
 10
32.39914883170195
 20
16.94345527463132
 30
0.0
 10
32.29758075921295
 20
16.907451663790344
 30
0.0
 10
32.236073020160084
 20
16.88418739888827
 30
0.0
 10
32.0856806342167
 20
16.83233780713677
 30
0.0
 10
31.94747430865749
 20
16.79391833460895
 30
0.0
 10
31.82194478634632
 20
16.768391327301448
 30
0.0
 10
31.70956554619036
 20
16.75520457866338
 30
0.0
 10
31.610792685860826
 20
16.753790771226466
 30
0.0
 10
31.526063144625823
 20
16.76357330420706
 30
0.0
 10
31.45579713977677
 20
16.783956139426987
 30
0.0
 10
31.400395020425684
 20
16.814334952059266
 30
0.0
 10
31.360238318244974
 20
16.854092377561415
 30
0.0
 10
31.017528554863397
 20
17.47747912291418
 30
0.0
 10
30.644705191981696
 20
18.12322812966101
 30
0.0
 10
30.276191315818146
 20
18.731716863555437
 30
0.0
 10
30.261838726436626
 20
18.786372300525688
 30
0.0
 10
30.263230962643615
 20
18.849541349616
 30
0.0
 10
30.28071191744546
 20
18.920584907244876
 30
0.0
 10
30.31460554714678
 20
18.998853335158405
 30
0.0
 10
30.36521558379185
 20
19.08368701666911
 30
0.0
 10
30.432825262189464
 20
19.174416920255155
 30
0.0
 10
30.517697061703192
 20
19.27036517015755
 30
0.0
 10
30.6200724629792
 20
19.370845623601312
 30
0.0
 10
30.740171719774352
 20
19.475164454264807
 30
0.0
 10
30.791073037166605
 20
19.516799589315966
 30
0.0
 10
30.873037105382394
 20
19.586758306466734
 30
0.0
 10
30.965358749941284
 20
19.668961073058338
 30
0.0
 10
31.06755588923917
 20
19.76386777627119
 30
0.0
 10
31.17913182053531
 20
19.871923374268
 30
0.0
 10
31.29957563602443
 20
19.993557487581466
 30
0.0
 10
31.42836264957387
 20
20.129184001433863
 30
0.0
 10
31.564954833845093
 20
20.279200679257215
 30
0.0
 10
31.708801267501077
 20
20.443988787638467
 30
0.0
 10
31.859338591446196
 20
20.62391273365517
 30
0.0
 10
32.01599147929642
 20
20.819319710181013
 30
0.0
 10
32.1781731052885
 20
21.030539363319654
 30
0.0
 10
32.34528563675338
 20
21.257883458947326
 30
0.0
 10
32.5167207234976
 20
21.501645571953887
 30
0.0
 10
32.69186000008957
 20
21.76210078425429
 30
0.0
 10
32.87007559535561
 20
22.039505396580886
 30
0.0
 10
33.050730649491726
 20
22.334096653525606
 30
0.0
 10
33.23317983847126
 20
22.646092482041972
 30
0.0
 10
33.41676990540821
 20
22.975691243586553
 30
0.0
 10
33.49644106908808
 20
23.126047875305144
 30
0.0
 10
32.96231774723097
 20
23.948525664989173
 30
0.0
 10
32.34514806938979
 20
24.71066674525489
 30
0.0
 10
32.17753067148712
 20
24.681357720294383
 30
0.0
 10
31.807331170875305
 20
24.608604809449126
 30
0.0
 10
31.454225605102952
 20
24.53149733256295
 30
0.0
 10
31.118227188694323
 20
24.45071787091534
 30
0.0
 10
30.79932807697221
 20
24.366947507280415
 30
0.0
 10
30.497499437151006
 20
24.280865243861193
 30
0.0
 10
30.212691535979786
 20
24.19314742301775
 30
0.0
 10
29.944833840159042
 20
24.104467150121394
 30
0.0
 10
29.69383513407521
 20
24.015493720267475
 30
0.0
 10
29.45958365077196
 20
23.926892047999505
 30
0.0
 10
29.241947218463764
 20
23.83932210117472
 30
0.0
 10
29.040773421599937
 20
23.753438339061013
 30
0.0
 10
28.855889776365913
 20
23.669889155020396
 30
0.0
 10
28.68710392113957
 20
23.5893163234873
 30
0.0
 10
28.534204348295322
 20
23.512353400250227
 30
0.0
 10
28.39695799261846
 20
23.43963046348783
 30
0.0
 10
28.275115678232577
 20
23.371762979882163
 30
0.0
 10
28.168407261103063
 20
23.30936193967655
 30
0.0
 10
28.076544266292288
 20
23.253027904430407
 30
0.0
 10
28.021217531562584
 20
23.21748384150875
 30
0.0
 10
27.8848917163727
 20
23.13549895249039
 30
0.0
 10
27.75769338811431
 20
23.069184326787113
 30
0.0
 10
27.640214350295196
 20
23.01811609060411
 30
0.0
 10
27.533032545370084
 20
22.98185254622866
 30
0.0
 10
27.436712056115834
 20
22.959933601478323
 30
0.0
 10
27.35180015567306
 20
22.95188610046201
 30
0.0
 10
27.27883180188258
 20
22.95721439795336
 30
0.0
 10
27.21832424146433
 20
22.975410612333594
 30
0.0
 10
27.170779026014177
 20
23.005950194851813
 30
0.0
 10
26.705948900954763
 20
23.54446107778346
 30
0.0
 10
26.207013855217898
 20
24.09858458365601
 30
0.0
 10
25.720040969903856
 20
24.617158035705426
 30
0.0
 10
25.694638514723135
 20
24.66763504911901
 30
0.0
 10
25.682866743424942
 20
24.72971316511115
 30
0.0
 10
25.68519491123457
 20
24.802838745423387
 30
0.0
 10
25.702074962621932
 20
24.886443702259363
 30
0.0
 10
25.733941134378167
 20
24.9799459825817
 30
0.0
 10
25.78120957142687
 20
25.082750062640493
 30
0.0
 10
25.844277955622974
 20
25.19424745241678
 30
0.0
 10
25.923525147785636
 20
25.31381720965088
 30
0.0
 10
26.019310843202344
 20
25.440826463121965
 30
0.0
 10
26.060443413357856
 20
25.492134749542362
 30
0.0
 10
26.126071134859256
 20
25.577605988882844
 30
0.0
 10
26.199284413788373
 20
25.677207177017422
 30
0.0
 10
26.279516087259537
 20
25.79128792108679
 30
0.0
 10
26.366187794674655
 20
25.920180185543572
 30
0.0
 10
26.458710469658435
 20
26.064197978975407
 30
0.0
 10
26.556484840152724
 20
26.223637053838452
 30
0.0
 10
26.658901936339493
 20
26.39877461930574
 30
0.0
 10
26.765343606054003
 20
26.589869067387845
 30
0.0
 10
26.875183036456875
 20
26.797159713051258
 30
0.0
 10
26.98778528796852
 20
27.020866545091074
 30
0.0
 10
27.102507821097788
 20
27.261189998116055
 30
0.0
 10
27.218701047483336
 20
27.518310728768956
 30
0.0
 10
27.335708873191276
 20
27.79238941350661
 30
0.0
 10
27.45286925281228
 20
28.083566557641696
 30
0.0
 10
27.569514747745643
 20
28.391962319363305
 30
0.0
 10
27.684973089177817
 20
28.71767634830115
 30
0.0
 10
27.798567745399048
 20
29.060787638772453
 30
0.0
 10
27.90961849308781
 20
29.421354397816327
 30
0.0
 10
27.956287749162666
 20
29.58498994273638
 30
0.0
 10
27.26283355547891
 20
30.27844413642014
 30
0.0
 10
26.500692475213192
 20
30.89561381426132
 30
0.0
 10
26.342831608549204
 20
30.83209564520793
 30
0.0
 10
25.995848035938653
 20
30.683963755906152
 30
0.0
 10
25.66649021986677
 20
30.535126487174406
 30
0.0
 10
25.354629169460818
 20
30.38625425170763
 30
0.0
 10
25.060115606397446
 20
30.238011617987095
 30
0.0
 10
24.782780155460493
 20
30.0910567557154
 30
0.0
 10
24.522433550706246
 20
29.946040887425017
 30
0.0
 10
24.278866853681162
 20
29.803607744822393
 30
0.0
 10
24.051851687776754
 20
29.66439303250677
 30
0.0
 10
23.841140484905864
 20
29.5290238973867
 30
0.0
 10
23.6464667465205
 20
29.398118405378906
 30
0.0
 10
23.467545317982488
 20
29.272285025271206
 30
0.0
 10
23.304072676102233
 20
29.152122120073454
 30
0.0
 10
23.155727230412804
 20
29.0382174456788
 30
0.0
 10
23.022170371582476
 20
28.931146738253634
 30
0.0
 10
22.9030431268112
 20
28.83147785027383
 30
0.0
 10
22.797973802594793
 20
28.73976099241999
 30
0.0
 10
22.706571126179394
 20
28.656537637229683
 30
0.0
 10
22.62842806272762
 20
28.58233524523933
 30
0.0
 10
22.581700376115904
 20
28.5360648304071
 30
0.0
 10
22.465399223967154
 20
28.427527777179126
 30
0.0
 10
22.35476807031977
 20
28.33621626565651
 30
0.0
 10
22.25047391467238
 20
28.261838727571785
 30
0.0
 10
22.153173904168703
 20
28.204083278359953
 30
0.0
 10
22.063515453567142
 20
28.162617159360547
 30
0.0
 10
21.982132251418456
 20
28.13709133875793
 30
0.0
 10
21.90965061588819
 20
28.127132226352327
 30
0.0
 10
21.84668208514055
 20
28.132350580596974
 30
0.0
 10
21.793826310483375
 20
28.152337593830048
 30
0.0
 10
21.22719113071363
 20
28.582437104694545
 30
0.0
 10
20.623950257776276
 20
29.020717253506596
 30
0.0
 10
20.039801415155132
 20
29.42671127546494
 30
0.0
 10
20.004459303361113
 20
29.470803777620095
 30
0.0
 10
19.98003800745069
 20
29.529077848961354
 30
0.0
 10
19.96711163616304
 20
29.601089513201845
 30
0.0
 10
19.966240369991336
 20
29.686377061165448
 30
0.0
 10
19.977969972242136
 20
29.78446144197561
 30
0.0
 10
20.002831310423772
 20
29.89484666689987
 30
0.0
 10
20.041339888277196
 20
30.017020225592983
 30
0.0
 10
20.09399538875878
 20
30.150453514466935
 30
0.0
 10
20.16128122827658
 20
30.29460227691092
 30
0.0
 10
20.190847360503582
 20
30.353341296379504
 30
0.0
 10
20.237270488944233
 20
30.450589554614016
 30
0.0
 10
20.28817563063809
 20
30.56323611443055
 30
0.0
 10
20.342935329157555
 20
30.691505023420458
 30
0.0
 10
20.400914843180615
 20
30.83560074388675
 30
0.0
 10
20.46147269278922
 20
30.995707948789935
 30
0.0
 10
20.52396121106427
 20
31.171991332018553
 30
0.0
 10
20.587727100611474
 20
31.36459543311558
 30
0.0
 10
20.652111994654188
 20
31.573644476544445
 30
0.0
 10
20.716453021338136
 20
31.79924222594819
 30
0.0
 10
20.780083377794593
 20
32.041471851477375
 30
0.0
 10
20.842332892863503
 20
32.30039581629162
 30
0.0
 10
20.9025286126197
 20
32.57605577223807
 30
0.0
 10
20.959995373842094
 20
32.86847247500833
 30
0.0
 10
21.01405638570483
 20
33.17764571255645
 30
0.0
 10
21.064033812449736
 20
33.50355424903878
 30
0.0
 10
21.109249357626787
 20
33.84615578395585
 30
0.0
 10
21.149024849525215
 20
34.20538692655785
 30
0.0
 10
21.182682827411185
 20
34.58116318553953
 30
0.0
 10
21.194310505446623
 20
34.750925985137584
 30
0.0
 10
20.371832715762597
 20
35.28504930699469
 30
0.0
 10
19.4980294554386
 20
35.73027430598098
 30
0.0
 10
19.356824397387
 20
35.63532304161634
 30
0.0
 10
19.04822159991271
 20
35.418286248236186
 30
0.0
 10
18.757006050537786
 20
35.20422409050291
 30
0.0
 10
18.482912190512597
 20
34.9937655122751
 30
0.0
 10
18.22565583204671
 20
34.78752952290963
 30
0.0
 10
17.9849344600031
 20
34.586124694434396
 30
0.0
 10
17.7604275475752
 20
34.39014866800472
 30
0.0
 10
17.551796882768453
 20
34.2001876674976
 30
0.0
 10
17.358686909133123
 20
34.01681602367476
 30
0.0
 10
17.180725077364578
 20
33.84059570648053
 30
0.0
 10
17.01752220941772
 20
33.672075867444704
 30
0.0
 10
16.868672874192907
 20
33.51179239186927
 30
0.0
 10
16.73375577454536
 20
33.36026746107712
 30
0.0
 10
16.612334146209893
 20
33.21800912466721
 30
0.0
 10
16.503957077001285
 20
33.08551013675069
 30
0.0
 10
16.408155375368036
 20
32.96325130622259
 30
0.0
 10
16.32445107496792
 20
32.85169354091509
 30
0.0
 10
16.252348874824694
 20
32.75128513071189
 30
0.0
 10
16.191340969576792
 20
32.662457382569876
 30
0.0
 10
16.155254555212306
 20
32.60748285498532
 30
0.0
 10
16.06406098452843
 20
32.477137227592365
 30
0.0
 10
15.974832117773625
 20
32.3648195814652
 30
0.0
 10
15.88828099935863
 20
32.27038339679607
 30
0.0
 10
15.805115260632656
 20
32.19366023301981
 30
0.0
 10
15.726037353204044
 20
32.13445920814814
 30
0.0
 10
15.651739685803273
 20
32.092570668806026
 30
0.0
 10
15.582912563811377
 20
32.0677594075047
 30
0.0
 10
15.520235089684547
 20
32.059771834492835
 30
0.0
 10
15.46437880680302
 20
32.06833275005415
 30
0.0
 10
14.82070324869615
 20
32.37122347638029
 30
0.0
 10
14.139521069376539
 20
32.67450532252727
 30
0.0
 10
13.483726376927976
 20
32.950176027459484
 30
0.0
 10
13.439989228396323
 20
32.98595696443274
 30
0.0
 10
13.403985735691341
 20
33.03788013457548
 30
0.0
 10
13.376369769759288
 20
33.10563062746662
 30
0.0
 10
13.357785264541022
 20
33.18887329145677
 30
0.0
 10
13.348865657383149
 20
33.28725301465227
 30
0.0
 10
13.350233336921248
 20
33.400395020425734
 30
0.0
 10
13.362499098795139
 20
33.52790517726701
 30
0.0
 10
13.386261609555481
 20
33.66937032277307
 30
0.0
 10
13.422106879114159
 20
33.82435860156863
 30
0.0
 10
13.43881439156029
 20
33.88796117707355
 30
0.0
 10
13.46400401346445
 20
33.99273623866832
 30
0.0
 10
13.49037621896105
 20
34.11350497496467
 30
0.0
 10
13.51727068093733
 20
34.25035608204975
 30
0.0
 10
13.544024018588948
 20
34.40335758409318
 30
0.0
 10
13.569970374205678
 20
34.57255674733385
 30
0.0
 10
13.594441992159693
 20
34.75798000917941
 30
0.0
 10
13.616769799711427
 20
34.95963292247122
 30
0.0
 10
13.636283989259676
 20
35.1775001149204
 30
0.0
 10
13.65231460061612
 20
35.411545263877436
 30
0.0
 10
13.664192110107912
 20
35.66171108591365
 30
0.0
 10
13.671248004601644
 20
35.927919342799754
 30
0.0
 10
13.672815375924037
 20
36.21007086120167
 30
0.0
 10
13.668229499439343
 20
36.508045568922455
 30
0.0
 10
13.65682841791189
 20
36.82170254582495
 30
0.0
 10
13.637953523101288
 20
37.15088009014106
 30
0.0
 10
13.610950135730722
 20
37.49539579997692
 30
0.0
 10
13.5751680834464
 20
37.855046669995644
 30
0.0
 10
13.529962276387057
 20
38.22960920322307
 30
0.0
 10
13.50604019105714
 20
38.398079808544395
 30
0.0
 10
12.59048503146836
 20
38.749528506401646
 30
0.0
 10
11.643208986535493
 20
39.00335035765075
 30
0.0
 10
11.524831075710178
 20
38.88111582385431
 30
0.0
 10
11.26809647646229
 20
38.604659675724584
 30
0.0
 10
11.027750710699253
 20
38.33472817246692
 30
0.0
 10
10.803403257986195
 20
38.07188130123893
 30
0.0
 10
10.594647441435718
 20
37.816665458593874
 30
0.0
 10
10.40106082735306
 20
37.56961302136706
 30
0.0
 10
10.222205636628296
 20
37.331241929550366
 30
0.0
 10
10.057629165212946
 20
37.10205527839493
 30
0.0
 10
9.906864216339015
 20
36.882540923814716
 30
0.0
 10
9.769429541676717
 20
36.6731710980066
 30
0.0
 10
9.644830292631896
 20
36.47440203755653
 30
0.0
 10
9.532558480927957
 20
36.28667362352145
 30
0.0
 10
9.432093448171786
 20
36.110409033707796
 30
0.0
 10
9.342902344994163
 20
35.946014407214996
 30
0.0
 10
9.264441663382565
 20
35.79387798037976
 30
0.0
 10
9.19615249895629
 20
35.65437250486038
 30
0.0
 10
9.137471501957748
 20
35.52784944175673
 30
0.0
 10
9.087820990217692
 20
35.414644305879506
 30
0.0
 10
9.0466145813814
 20
35.31507340042247
 30
0.0
 10
9.022746588733705
 20
35.2537974107381
 30
0.0
 10
8.960646196148895
 20
35.10733993856494
 30
0.0
 10
8.896719345931455
 20
34.978924977928834
 30
0.0
 10
8.831693963941934
 20
34.868557461100444
 30
0.0
 10
8.76629723884948
 20
34.77621975317537
 30
0.0
 10
8.701255958606346
 20
34.701871191296334
 30
0.0
 10
8.637290990538668
 20
34.64545066338751
 30
0.0
 10
8.57512645758536
 20
34.60687162436699
 30
0.0
 10
8.515479346458575
 20
34.58602721936784
 30
0.0
 10
8.459063742942801
 20
34.58278788416753
 30
0.0
 10
7.7664795170860845
 20
34.745232047783894
 30
0.0
 10
7.0371269612952325
 20
34.90026071928141
 30
0.0
 10
6.338347793931327
 20
35.03355997456717
 30
0.0
 10
6.288127131927
 20
35.059465547716805
 30
0.0
 10
6.2421149678225865
 20
35.102768524970784
 30
0.0
 10
6.201016357473472
 20
35.16329682487028
 30
0.0
 10
6.165530845265031
 20
35.240856501028
 30
0.0
 10
6.13635185833231
 20
35.335231900626916
 30
0.0
 10
6.114166105068201
 20
35.4461858386817
 30
0.0
 10
6.099652978311013
 20
35.57345978795555
 30
0.0
 10
6.093483963604707
 20
35.71677408441002
 30
0.0
 10
6.096322052919863
 20
35.87582814805753
 30
0.0
 10
6.0994407471196865
 20
35.94151454185018
 30
0.0
 10
6.1022959551369285
 20
36.049237233847
 30
0.0
 10
6.102982632508188
 20
36.172849973334316
 30
0.0
 10
6.100836440898973
 20
36.31230222845047
 30
0.0
 10
6.095194352947016
 20
36.46752261224909
 30
0.0
 10
6.085395234326989
 20
36.63841891848595
 30
0.0
 10
6.070780424827528
 20
36.824878172646294
 30
0.0
 10
6.050694318053078
 20
37.02676669818399
 30
0.0
 10
6.024484939384134
 20
37.24393019790069
 30
0.0
 10
5.991504520773383
 20
37.47619385032836
 30
0.0
 10
5.951110079141107
 20
37.72336242201982
 30
0.0
 10
5.902663976612344
 20
37.98522039274292
 30
0.0
 10
5.845534497853064
 20
38.26153209833292
 30
0.0
 10
5.779096408469143
 20
38.552041886435546
 30
0.0
 10
5.702731515522712
 20
38.85647428770862
 30
0.0
 10
5.615829222631615
 20
39.17453420160279
 30
0.0
 10
5.517787080318155
 20
39.50590709666782
 30
0.0
 10
5.408011331237244
 20
39.850259225287104
 30
0.0
 10
5.285917449922615
 20
40.2072378527078
 30
0.0
 10
5.227491111147159
 20
40.36705328988818
 30
0.0
 10
4.258872735448735
 20
40.520467369211254
 30
0.0
 10
3.279524414605347
 20
40.571792839851234
 30
0.0
 10
3.1891473337496246
 20
40.42761727229625
 30
0.0
 10
2.995501466664562
 20
40.10382422967401
 30
0.0
 10
2.816529747784202
 20
39.78982068285937
 30
0.0
 10
2.651733762605352
 20
39.4860731881831
 30
0.0
 10
2.5006021188750887
 20
39.19303164924353
 30
0.0
 10
2.36261092672043
 20
38.91112898026107
 30
0.0
 10
2.2372242877758994
 20
38.64078078360115
 30
0.0
 10
2.1238947912783255
 20
38.38238503821246
 30
0.0
 10
2.0220640188820775
 20
38.136321803516765
 30
0.0
 10
1.931163056093503
 20
37.90295293515047
 30
0.0
 10
1.8506130110275092
 20
37.68262181502759
 30
0.0
 10
1.7798255397558345
 20
37.47565309504708
 30
0.0
 10
1.7182033779071983
 20
37.282352454598126
 30
0.0
 10
1.6651408790826774
 20
37.10300637205311
 30
0.0
 10
1.6200256933506396
 20
36.937881598183424
 30
0.0
 10
1.5822336303045312
 20
36.78722653637451
 30
0.0
 10
1.5511405778590621
 20
36.65126784045735
 30
0.0
 10
1.5261117201348084
 20
36.53021358656245
 30
0.0
 10
1.5065077255065606
 20
36.424251250153084
 30
0.0
 10
1.495901300385695
 20
36.359351853152916
 30
0.0
 10
1.4656081710466529
 20
36.20318343051445
 30
0.0
 10
1.4297772474761423
 20
36.064283505352556
 30
0.0
 10
1.3891195231314408
 20
35.94280824645241
 30
0.0
 10
1.3443499623673483
 20
35.83889159530031
 30
0.0
 10
1.2961879253590105
 20
35.75264488533203
 30
0.0
 10
1.245351232666954
 20
35.684158216661814
 30
0.0
 10
1.1925661771408174
 20
35.633497489050065
 30
0.0
 10
1.1385562939889122
 20
35.60070725258466
 30
0.0
 10
1.0840470024246316
 20
35.58580924111503
 30
0.0
 10
0.3728233628758471
 20
35.60070725257801
 30
0.0
 10
-0.37282336287632484
 20
35.60070725257153
 30
0.0
 10
-1.0840470024273046
 20
35.585809241114035
 30
0.0
 10
-1.138556293989243
 20
35.60070725258468
 30
0.0
 10
-1.1925661771308635
 20
35.633497489053156
 30
0.0
 10
-1.2453512254117713
 20
35.6841582188084
 30
0.0
 10
-1.296186857448498
 20
35.752645177112974
 30
0.0
 10
-1.344349962410794
 20
35.83889159528942
 30
0.0
 10
-1.3891195246004142
 20
35.94280824611647
 30
0.0
 10
-1.4297772467076824
 20
36.06428350551146
 30
0.0
 10
-1.4656081713357536
 20
36.20318343046098
 30
0.0
 10
-1.4959013003858548
 20
36.359351853152965
 30
0.0
 10
-1.5065077263340263
 20
36.42425125462633
 30
0.0
 10
-1.5261117184948652
 20
36.53021357847411
 30
0.0
 10
-1.551140580345113
 20
36.65126785127706
 30
0.0
 10
-1.5822336266679304
 20
36.78722652170956
 30
0.0
 10
-1.6200245539062195
 20
36.93788191166133
 30
0.0
 10
-1.6651408782579171
 20
37.10300637226036
 30
0.0
 10
-1.718203377906093
 20
37.28235245459791
 30
0.0
 10
-1.779825539756851
 20
37.475653095046866
 30
0.0
 10
-1.8506130110286025
 20
37.68262181502737
 30
0.0
 10
-1.9311630570556506
 20
37.90295293478992
 30
0.0
 10
-2.0220640188786265
 20
38.13632180350733
 30
0.0
 10
-2.123894791279185
 20
38.38238503821286
 30
0.0
 10
-2.237224287760705
 20
38.640780783566015
 30
0.0
 10
-2.3626109267324527
 20
38.911128980289774
 30
0.0
 10
-2.5006021188366927
 20
39.19303164916904
 30
0.0
 10
-2.651733762605474
 20
39.486073188183305
 30
0.0
 10
-2.816529747784334
 20
39.78982068285959
 30
0.0
 10
-2.9955014666645123
 20
40.10382422967392
 30
0.0
 10
-3.1891473337495344
 20
40.4276172722961
 30
0.0
 10
-3.279524414605362
 20
40.57179283985122
 30
0.0
 10
-4.258872735448748
 20
40.520467369211254
 30
0.0
 10
-5.227491111147165
 20
40.367053289888204
 30
0.0
 10
-5.285917449922552
 20
40.20723785270798
 30
0.0
 10
-5.408011331237205
 20
39.85025922528721
 30
0.0
 10
-5.517787080318229
 20
39.505907096667585
 30
0.0
 10
-5.615829222631683
 20
39.17453420160257
 30
0.0
 10
-5.7027315155006315
 20
38.85647428778946
 30
0.0
 10
-5.779096408474929
 20
38.55204188640498
 30
0.0
 10
-5.8455344978455015
 20
38.26153209837046
 30
0.0
 10
-5.902663976613093
 20
37.98522039274235
 30
0.0
 10
-5.951110079139685
 20
37.723362422029766
 30
0.0
 10
-5.9915045217894605
 20
37.47619385048099
 30
0.0
 10
-6.024484939385242
 20
37.24393019790068
 30
0.0
 10
-6.050694318054108
 20
37.02676669818399
 30
0.0
 10
-6.070780424826485
 20
36.82487817264674
 30
0.0
 10
-6.085395233477154
 20
36.638418918454704
 30
0.0
 10
-6.095193173226461
 20
36.46752254252526
 30
0.0
 10
-6.1008364403908475
 20
36.31230224355106
 30
0.0
 10
-6.102982632690357
 20
36.17284996223416
 30
0.0
 10
-6.102295955214474
 20
36.049237242099565
 30
0.0
 10
-6.09944074699902
 20
35.94151453730265
 30
0.0
 10
-6.096322052919999
 20
35.87582814805746
 30
0.0
 10
-6.0934839638985965
 20
35.71677408440221
 30
0.0
 10
-6.099652977526298
 20
35.57345978795989
 30
0.0
 10
-6.114166106574911
 20
35.44618583870489
 30
0.0
 10
-6.136351858377061
 20
35.33523190062855
 30
0.0
 10
-6.165529740026246
 20
35.24085643765425
 30
0.0
 10
-6.201016349930523
 20
35.163296824279044
 30
0.0
 10
-6.242114967812196
 20
35.102768524969825
 30
0.0
 10
-6.28812713192731
 20
35.05946554771672
 30
0.0
 10
-6.338347793934138
 20
35.033559974567595
 30
0.0
 10
-7.037126961297039
 20
34.90026071928766
 30
0.0
 10
-7.766479517085195
 20
34.74523204777746
 30
0.0
 10
-8.459063742945201
 20
34.582787884166
 30
0.0
 10
-8.515479346458893
 20
34.58602721936779
 30
0.0
 10
-8.575126457576259
 20
34.60687162437209
 30
0.0
 10
-8.637290983888322
 20
34.64545066699562
 30
0.0
 10
-8.701254974696901
 20
34.70187169873225
 30
0.0
 10
-8.7662972388897
 20
34.77621975315568
 30
0.0
 10
-8.83169396530895
 20
34.86855746046644
 30
0.0
 10
-8.896719345212816
 20
34.978924978244045
 30
0.0
 10
-8.960646196420553
 20
35.10733993845254
 30
0.0
 10
-9.022746588733861
 20
35.25379741073812
 30
0.0
 10
-9.046614583120814
 20
35.315073404625934
 30
0.0
 10
-9.087820986931913
 20
35.41464429830888
 30
0.0
 10
-9.13747150663901
 20
35.52784945182314
 30
0.0
 10
-9.196152492350132
 20
35.654372491271985
 30
0.0
 10
-9.26444061401345
 20
35.793878523911246
 30
0.0
 10
-9.342902344230508
 20
35.9460144075892
 30
0.0
 10
-9.432093448170649
 20
36.11040903370782
 30
0.0
 10
-9.532558480928898
 20
36.28667362352103
 30
0.0
 10
-9.644830292632907
 20
36.47440203755609
 30
0.0
 10
-9.769429542542866
 20
36.67317109745389
 30
0.0
 10
-9.906864216333668
 20
36.88254092380621
 30
0.0
 10
-10.057629165213859
 20
37.10205527839515
 30
0.0
 10
-10.222205636606118
 20
37.33124192951915
 30
0.0
 10
-10.40106082737078
 20
37.56961302139264
 30
0.0
 10
-10.594647441382666
 20
37.816665458529
 30
0.0
 10
-10.803403257986348
 20
38.07188130123911
 30
0.0
 10
-11.02775071069942
 20
38.334728172467116
 30
0.0
 10
-11.268096476462212
 20
38.60465967572451
 30
0.0
 10
-11.524831075710045
 20
38.881115823854174
 30
0.0
 10
-11.643208986535495
 20
39.003350357650746
 30
0.0
 10
-12.590485031468365
 20
38.749528506401646
 30
0.0
 10
-13.506040191057137
 20
38.3980798085444
 30
0.0
 10
-13.529962276387026
 20
38.22960920322326
 30
0.0
 10
-13.575168083446377
 20
37.85504666999576
 30
0.0
 10
-13.610950135730738
 20
37.49539579997667
 30
0.0
 10
-13.6379535231013
 20
37.150880090140824
 30
0.0
 10
-13.656828417907095
 20
36.82170254590861
 30
0.0
 10
-13.66822949943864
 20
36.508045568891355
 30
0.0
 10
-13.672815375924436
 20
36.210070861239956
 30
0.0
 10
-13.671248004602253
 20
35.92791934279906
 30
0.0
 10
-13.66419211010858
 20
35.66171108592368
 30
0.0
 10
-13.65231460164172
 20
35.41154526381548
 30
0.0
 10
-13.636283989260752
 20
35.17750011492017
 30
0.0
 10
-13.616769799712428
 20
34.959632922471
 30
0.0
 10
-13.594441992158758
 20
34.75798000918007
 30
0.0
 10
-13.569970373367907
 20
34.57255674747997
 30
0.0
 10
-13.544022850151707
 20
34.403357761170675
 30
0.0
 10
-13.51727068357989
 20
34.250356096926
 30
0.0
 10
-13.490376216831379
 20
34.1135049640692
 30
0.0
 10
-13.464004015256101
 20
33.99273624672443
 30
0.0
 10
-13.438814390496768
 20
33.88796117265048
 30
0.0
 10
-13.42210687911427
 20
33.824358601568534
 30
0.0
 10
-13.386261609841318
 20
33.66937032270433
 30
0.0
 10
-13.36249909802847
 20
33.52790517743441
 30
0.0
 10
-13.350233338399848
 20
33.40039502013516
 30
0.0
 10
-13.348865657427258
 20
33.28725301464456
 30
0.0
 10
-13.357784170278206
 20
33.18887345925996
 30
0.0
 10
-13.376369762258241
 20
33.10563062845657
 30
0.0
 10
-13.40398573568097
 20
33.03788013457671
 30
0.0
 10
-13.439989228396604
 20
32.985956964432596
 30
0.0
 10
-13.483726376930809
 20
32.95017602745931
 30
0.0
 10
-14.139521069379597
 20
32.674505322533
 30
0.0
 10
-14.820703248693935
 20
32.371223476374176
 30
0.0
 10
-15.464378806805046
 20
32.068332750052164
 30
0.0
 10
-15.520235089684844
 20
32.05977183449273
 30
0.0
 10
-15.58291256380353
 20
32.067759407511595
 30
0.0
 10
-15.651739680048417
 20
32.09257067371799
 30
0.0
 10
-15.726036496297231
 20
32.13445990906163
 30
0.0
 10
-15.805115260667899
 20
32.193660232992194
 30
0.0
 10
-15.88828100056395
 20
32.2703833958917
 30
0.0
 10
-15.97483211713622
 20
32.36481958192293
 30
0.0
 10
-16.06406098477078
 20
32.47713722742594
 30
0.0
 10
-16.155254555212462
 20
32.607482854985314
 30
0.0
 10
-16.191340972152144
 20
32.662457386319836
 30
0.0
 10
-16.252348870036695
 20
32.751285123989845
 30
0.0
 10
-16.324451081639808
 20
32.85169354978824
 30
0.0
 10
-16.40815536608105
 20
32.96325129430463
 30
0.0
 10
-16.50395616356995
 20
33.08551088658082
 30
0.0
 10
-16.61233414554073
 20
33.21800912519202
 30
0.0
 10
-16.73375577454425
 20
33.36026746107737
 30
0.0
 10
-16.868672874193738
 20
33.51179239186867
 30
0.0
 10
-17.017522209418615
 20
33.672075867444065
 30
0.0
 10
-17.180725078096884
 20
33.84059570575981
 30
0.0
 10
-17.35868690912612
 20
34.01681602366756
 30
0.0
 10
-17.55179688276939
 20
34.200187667497616
 30
0.0
 10
-17.760427547547014
 20
34.3901486679788
 30
0.0
 10
-17.984934460025748
 20
34.586124694455734
 30
0.0
 10
-18.225655831981328
 20
34.78752952285721
 30
0.0
 10
-18.48291219051278
 20
34.99376551227524
 30
0.0
 10
-18.757006050537985
 20
35.20422409050307
 30
0.0
 10
-19.048221599912612
 20
35.418286248236136
 30
0.0
 10
-19.356824397386838
 20
35.63532304161623
 30
0.0
 10
-19.498029455438598
 20
35.73027430598097
 30
0.0
 10
-20.37183271576261
 20
35.28504930699469
 30
0.0
 10
-21.194310505446634
 20
34.750925985137584
 30
0.0
 10
-21.182682827411202
 20
34.58116318553972
 30
0.0
 10
-21.149024849525226
 20
34.20538692655796
 30
0.0
 10
-21.10924935762676
 20
33.8461557839556
 30
0.0
 10
-21.064033812449708
 20
33.503554249038544
 30
0.0
 10
-21.01405638571754
 20
33.17764571263928
 30
0.0
 10
-20.959995373834946
 20
32.86847247497805
 30
0.0
 10
-20.902528612628064
 20
32.57605577227544
 30
0.0
 10
-20.84233289286396
 20
32.3003958162908
 30
0.0
 10
-20.78008337779734
 20
32.041471851487046
 30
0.0
 10
-20.716453022328455
 20
31.799242225674355
 30
0.0
 10
-20.652111994655197
 20
31.57364447654399
 30
0.0
 10
-20.587727100612415
 20
31.36459543311516
 30
0.0
 10
-20.523961211063504
 20
31.17199133201939
 30
0.0
 10
-20.46147269200015
 20
30.995707949107054
 30
0.0
 10
-20.40091373709302
 20
30.835601160026435
 30
0.0
 10
-20.34293533483532
 20
30.69150503742221
 30
0.0
 10
-20.28817562628967
 20
30.56323610421596
 30
0.0
 10
-20.237270492371703
 20
30.45058956212157
 30
0.0
 10
-20.190847358543703
 20
30.353341292274205
 30
0.0
 10
-20.161281228276675
 20
30.294602276910798
 30
0.0
 10
-20.09399538902409
 20
30.150453514340267
 30
0.0
 10
-20.041339887562096
 20
30.017020225916124
 30
0.0
 10
-20.002831311809654
 20
29.89484666630822
 30
0.0
 10
-19.977969972283685
 20
29.784461441958896
 30
0.0
 10
-19.966239334529043
 20
29.686377452811765
 30
0.0
 10
-19.967111629031738
 20
29.601089515729715
 30
0.0
 10
-19.98003800744081
 20
29.529077848964707
 30
0.0
 10
-20.00445930336136
 20
29.470803777619896
 30
0.0
 10
-20.039801415157875
 20
29.42671127546418
 30
0.0
 10
-20.62395025778047
 20
29.02071725351157
 30
0.0
 10
-21.2271911307102
 20
28.58243710468903
 30
0.0
 10
-21.793826310484945
 20
28.152337593827678
 30
0.0
 10
-21.846682085140817
 20
28.132350580596803
 30
0.0
 10
-21.909650615881947
 20
28.127132226360693
 30
0.0
 10
-21.98213224681061
 20
28.137091344759057
 30
0.0
 10
-22.06351476111391
 20
28.16261802311835
 30
0.0
 10
-22.153173904197434
 20
28.20408327832561
 30
0.0
 10
-22.250473915663335
 20
28.261838726436572
 30
0.0
 10
-22.354768069791465
 20
28.336216266236764
 30
0.0
 10
-22.465399224169605
 20
28.427527776965952
 30
0.0
 10
-22.58170037611605
 20
28.53606483040705
 30
0.0
 10
-22.628428066026355
 20
28.5823352483719
 30
0.0
 10
-22.706571120098427
 20
28.656537631650018
 30
0.0
 10
-22.79797381096571
 20
28.739760999712068
 30
0.0
 10
-22.903043115249268
 20
28.83147784054718
 30
0.0
 10
-23.022169634010258
 20
28.93114766161122
 30
0.0
 10
-23.155727229867377
 20
29.038217446331267
 30
0.0
 10
-23.304072676101207
 20
29.152122120073933
 30
0.0
 10
-23.46754531798318
 20
29.27228502527045
 30
0.0
 10
-23.646466746521245
 20
29.398118405378092
 30
0.0
 10
-23.841140485472327
 20
29.52902389652948
 30
0.0
 10
-24.051851687768416
 20
29.664393032501174
 30
0.0
 10
-24.278866853682086
 20
29.80360774482222
 30
0.0
 10
-24.522433550673295
 20
29.946040887405534
 30
0.0
 10
-24.78278015548709
 20
30.09105675573156
 30
0.0
 10
-25.060115606322597
 20
30.238011617949418
 30
0.0
 10
-25.35462916946103
 20
30.38625425170773
 30
0.0
 10
-25.666490219867004
 20
30.53512648717452
 30
0.0
 10
-25.99584803593855
 20
30.683963755906113
 30
0.0
 10
-26.34283160854903
 20
30.83209564520786
 30
0.0
 10
-26.500692475213196
 20
30.895613814261313
 30
0.0
 10
-27.262833555478917
 20
30.27844413642014
 30
0.0
 10
-27.95628774916268
 20
29.58498994273639
 30
0.0
 10
-27.909618493087862
 20
29.421354397816515
 30
0.0
 10
-27.79856774539908
 20
29.060787638772567
 30
0.0
 10
-27.684973089177728
 20
28.717676348300916
 30
0.0
 10
-27.569514747745558
 20
28.39196231936309
 30
0.0
 10
-27.45286925284193
 20
28.083566557720083
 30
0.0
 10
-27.33570887317798
 20
27.79238941347848
 30
0.0
 10
-27.21870104749927
 20
27.518310728803776
 30
0.0
 10
-27.102507821098058
 20
27.26118999811516
 30
0.0
 10
-26.987785287973207
 20
27.020866545099967
 30
0.0
 10
-26.87518303736861
 20
26.79715971257751
 30
0.0
 10
-26.76534360605489
 20
26.589869067387195
 30
0.0
 10
-26.658901936340317
 20
26.39877461930514
 30
0.0
 10
-26.55648484015214
 20
26.223637053839436
 30
0.0
 10
-26.458710468952532
 20
26.064197979449656
 30
0.0
 10
-26.366186799278026
 20
25.92018082255815
 30
0.0
 10
-26.27951609572435
 20
25.791287933602092
 30
0.0
 10
-26.199284407411234
 20
25.67720716793013
 30
0.0
 10
-26.126071139772723
 20
25.577605995513736
 30
0.0
 10
-26.060443410587254
 20
25.49213474593426
 30
0.0
 10
-26.0193108432024
 20
25.440826463121827
 30
0.0
 10
-25.923525148018797
 20
25.313817209471814
 30
0.0
 10
-25.844277954990673
 20
25.19424745288154
 30
0.0
 10
-25.781209572659446
 20
25.082750061773638
 30
0.0
 10
-25.733941134415325
 20
24.97994598255672
 30
0.0
 10
-25.702074031214813
 20
24.88644430063199
 30
0.0
 10
-25.68519490478467
 20
24.802838749378704
 30
0.0
 10
-25.682866743415964
 20
24.729713165116483
 30
0.0
 10
-25.694638514723326
 20
24.667635049118765
 30
0.0
 10
-25.72004096990637
 20
24.617158035704115
 30
0.0
 10
-26.20701385522302
 20
24.098584583660003
 30
0.0
 10
-26.705948900950254
 20
23.544461077778777
 30
0.0
 10
-27.170779026015214
 20
23.005950194849174
 30
0.0
 10
-27.218324241464558
 20
22.975410612333373
 30
0.0
 10
-27.278831801878212
 20
22.95721439796284
 30
0.0
 10
-27.351800152413613
 20
22.95188610729002
 30
0.0
 10
-27.436711558379713
 20
22.959934590330064
 30
0.0
 10
-27.533032545391038
 20
22.981852546189092
 30
0.0
 10
-27.64021435102847
 20
23.018116089287673
 30
0.0
 10
-27.757693387718184
 20
23.06918432746453
 30
0.0
 10
-27.884891716526404
 20
23.135498952239786
 30
0.0
 10
-28.021217531562712
 20
23.217483841508674
 30
0.0
 10
-28.076544270170228
 20
23.253027906808683
 30
0.0
 10
-28.1684072539949
 20
23.30936193548311
 30
0.0
 10
-28.275115687936676
 20
23.371762985274483
 30
0.0
 10
-28.396957979286903
 20
23.439630456377593
 30
0.0
 10
-28.534203818817655
 20
23.512354456780127
 30
0.0
 10
-28.68710392074171
 20
23.589316324238908
 30
0.0
 10
-28.855889776365
 20
23.66988915502108
 30
0.0
 10
-29.04077342160045
 20
23.753438339060125
 30
0.0
 10
-29.24194721846432
 20
23.83932210117376
 30
0.0
 10
-29.459583651147813
 20
23.92689204704324
 30
0.0
 10
-29.69383513406588
 20
24.015493720263738
 30
0.0
 10
-29.944833840159898
 20
24.104467150121028
 30
0.0
 10
-30.21269153594349
 20
24.19314742300553
 30
0.0
 10
-30.497499437180366
 20
24.28086524387147
 30
0.0
 10
-30.799328076891154
 20
24.366947507259116
 30
0.0
 10
-31.118227188694547
 20
24.450717870915394
 30
0.0
 10
-31.454225605103193
 20
24.531497332563006
 30
0.0
 10
-31.807331170875187
 20
24.60860480944911
 30
0.0
 10
-32.17753067148692
 20
24.681357720294347
 30
0.0
 10
-32.345148069389786
 20
24.710666745254883
 30
0.0
 10
-32.96231774723096
 20
23.948525664989162
 30
0.0
 10
-33.49644106908808
 20
23.126047875305144
 30
0.0
 10
-33.41676990540829
 20
22.975691243586724
 30
0.0
 10
-33.2331798384713
 20
22.64609248204207
 30
0.0
 10
-33.050730649491584
 20
22.334096653525393
 30
0.0
 10
-32.87007559535548
 20
22.039505396580687
 30
0.0
 10
-32.69186000013485
 20
21.762100784324794
 30
0.0
 10
-32.51672072347874
 20
21.501645571929135
 30
0.0
 10
-32.34528563677621
 20
21.25788345897806
 30
0.0
 10
-32.17817310528858
 20
21.03053936331872
 30
0.0
 10
-32.015991479302855
 20
20.819319710188726
 30
0.0
 10
-31.85933859223951
 20
20.623912733002214
 30
0.0
 10
-31.7088012675018
 20
20.44398878763764
 30
0.0
 10
-31.564954833845768
 20
20.27920067925645
 30
0.0
 10
-31.428362649573494
 20
20.12918400143494
 30
0.0
 10
-31.299575635432543
 20
19.993557488192113
 30
0.0
 10
-31.17913097933326
 20
19.871924204316873
 30
0.0
 10
-31.067555900121086
 20
19.763867786753067
 30
0.0
 10
-30.965358741814146
 20
19.668961065495505
 30
0.0
 10
-30.873037111567125
 20
19.58675831193115
 30
0.0
 10
-30.791073033706382
 20
19.516799586362744
 30
0.0
 10
-30.740171719774374
 20
19.475164454264654
 30
0.0
 10
-30.620072463170036
 20
19.370845623377683
 30
0.0
 10
-30.517697061181337
 20
19.270365170743617
 30
0.0
 10
-30.432825263214866
 20
19.174416919150968
 30
0.0
 10
-30.365215583822998
 20
19.083687016636944
 30
0.0
 10
-30.314604760501805
 20
18.998854114105576
 30
0.0
 10
-30.280711911958857
 20
18.920584912454764
 30
0.0
 10
-30.263230962635944
 20
18.84954134962308
 30
0.0
 10
-30.261838726436757
 20
18.7863723005254
 30
0.0
 10
-30.27619131582033
 20
18.731716863553626
 30
0.0
 10
-30.64470519198754
 20
18.123228129663843
 30
0.0
 10
-31.01752855485801
 20
17.477479122910534
 30
0.0
 10
-31.36023831824544
 20
16.85409237755861
 30
0.0
 10
-31.400395020425858
 20
16.814334952059003
 30
0.0
 10
-31.455797139774464
 20
16.78395613943717
 30
0.0
 10
-31.52606314285722
 20
16.763573311563537
 30
0.0
 10
-31.610792404595266
 20
16.75379184195458
 30
0.0
 10
-31.70956554620263
 20
16.755204578620315
 30
0.0
 10
-31.821944786789867
 20
16.768391325861323
 30
0.0
 10
-31.947474308410865
 20
16.793918335353915
 30
0.0
 10
-32.08568063431494
 20
16.832337806859684
 30
0.0
 10
-32.2360730201602
 20
16.884187398888162
 30
0.0
 10
-32.29758076350062
 20
16.907451665310372
 30
0.0
 10
-32.39914882387725
 20
16.943455272007384
 30
0.0
 10
-32.51649933028638
 20
16.982306778218735
 30
0.0
 10
-32.64978951590709
 20
17.02335874543838
 30
0.0
 10
-32.799156374441516
 20
17.065958537393335
 30
0.0
 10
-32.96471651428233
 20
17.109448884678905
 30
0.0
 10
-33.146566027479956
 20
17.153168453164053
 30
0.0
 10
-33.34478037360193
 20
17.19645241578966
 30
0.0
 10
-33.559414278529665
 20
17.23863302738891
 30
0.0
 10
-33.79050164850183
 20
17.27904020113476
 30
0.0
 10
-34.038055498175034
 20
17.317002093326327
 30
0.0
 10
-34.30206789656768
 20
17.35184567489322
 30
0.0
 10
-34.582509924514085
 20
17.3828973246187
 30
0.0
 10
-34.87933165023004
 20
17.4094834083359
 30
0.0
 10
-35.192462118926244
 20
17.430930864914764
 30
0.0
 10
-35.521809357961075
 20
17.446567791602426
 30
0.0
 10
-35.86726039727604
 20
17.455724029333993
 30
0.0
 10
-36.22868130513576
 20
17.457731747631957
 30
0.0
 10
-36.60591723915773
 20
17.451926028709554
 30
0.0
 10
-36.775965483693426
 20
17.44574496454609
 30
0.0
 10
-37.221190482679724
 20
16.57194170422208
 30
0.0
 10
-37.57263918053697
 20
15.656386544633307
 30
0.0
 10
-37.46344812140968
 20
15.525880132413599
 30
0.0
 10
-37.21534250211251
 20
15.24165441583808
 30
0.0
 10
-36.972012685421184
 20
14.974409764104635
 30
0.0
 10
-36.73405641132601
 20
14.723816330687226
 30
0.0
 10
-36.50205959247285
 20
14.489526780509049
 30
0.0
 10
-36.276595845625934
 20
14.271176642543788
 30
0.0
 10
-36.05822603382529
 20
14.06838467535271
 30
0.0
 10
-35.84749781677214
 20
13.880753242620957
 30
0.0
 10
-35.644945213214896
 20
13.707868701762294
 30
0.0
 10
-35.45108817256143
 20
13.549301802481484
 30
0.0
 10
-35.26643215784901
 20
13.404608096725964
 30
0.0
 10
-35.09146773965405
 20
13.273328359122972
 30
0.0
 10
-34.92667020119241
 20
13.154989017626347
 30
0.0
 10
-34.772499154616725
 20
13.049102594967396
 30
0.0
 10
-34.62939752152178
 20
12.955169142275025
 30
0.0
 10
-34.49779443300931
 20
12.872671780063225
 30
0.0
 10
-34.37809831092294
 20
12.801086982351993
 30
0.0
 10
-34.27070321631754
 20
12.739875302423018
 30
0.0
 10
-34.17598501329131
 20
12.688486632872236
 30
0.0
 10
-34.117539584482586
 20
12.6583443065487
 30
0.0
 10
-33.9783756802713
 20
12.581275131911818
 30
0.0
 10
-33.85734636564061
 20
12.504275461172776
 30
0.0
 10
-33.75438045687011
 20
12.428069748100775
 30
0.0
 10
-33.669384403747145
 20
12.353379354399882
 30
0.0
 10
-33.60224179614208
 20
12.280922836175927
 30
0.0
 10
-33.55281650560359
 20
12.21141072381703
 30
0.0
 10
-33.520946769694774
 20
12.145554127016466
 30
0.0
 10
-33.50645137339164
 20
12.084054935383124
 30
0.0
 10
-33.50912681994832
 20
12.027609779715773
 30
0.0
 10
-33.7430758622518
 20
11.3557996415042
 30
0.0
 10
-33.973493372303096
 20
10.646647464121449
 30
0.0
 10
-34.17910471284905
 20
9.965629848460575
 30
0.0
 10
-34.21011786118203
 20
9.918392170248783
 30
0.0
 10
-34.2579932010012
 20
9.877158459260938
 30
0.0
 10
-34.322485895122895
 20
9.842611921572233
 30
0.0
 10
-34.40332993731884
 20
9.815427996472883
 30
0.0
 10
-34.50023837326787
 20
9.796273770573974
 30
0.0
 10
-34.61290353673583
 20
9.78580739782594
 30
0.0
 10
-34.740997300835794
 20
9.784677525827261
 30
0.0
 10
-34.88417134420619
 20
9.793522728801662
 30
0.0
 10
-35.04205743193621
 20
9.812970947616146
 30
0.0
 10
-35.10705799647867
 20
9.822938655083567
 30
0.0
 10
-35.21389212179117
 20
9.837038309426028
 30
0.0
 10
-35.33675592042738
 20
9.850642274805713
 30
0.0
 10
-35.475668579609675
 20
9.863084570185194
 30
0.0
 10
-35.6306284086881
 20
9.873698338367666
 30
0.0
 10
-35.801612813888944
 20
9.881816428613794
 30
0.0
 10
-35.988578288323374
 20
9.886771979869359
 30
0.0
 10
-36.191460417268395
 20
9.88789900421529
 30
0.0
 10
-36.41017389868692
 20
9.88453297016824
 30
0.0
 10
-36.64461257899974
 20
9.87601138440263
 30
0.0
 10
-36.894649504302194
 20
9.86167437871513
 30
0.0
 10
-37.16013698631165
 20
9.840865280279088
 30
0.0
 10
-37.440906684089455
 20
9.812931200750196
 30
0.0
 10
-37.73676970056206
 20
9.77722360788603
 30
0.0
 10
-38.047516694194954
 20
9.733098900887306
 30
0.0
 10
-38.372918005732
 20
9.679918981875804
 30
0.0
 10
-38.71272379987724
 20
9.617051824165957
 30
0.0
 10
-39.06666422186126
 20
9.543872036952054
 30
0.0
 10
-39.43444956879786
 20
9.459761426037844
 30
0.0
 10
-39.59949673569817
 20
9.418360414914362
 30
0.0
 10
-39.85331858694728
 20
8.471084369981497
 30
0.0
 10
-40.00673266627034
 20
7.502465994283081
 30
0.0
 10
-39.872793884936236
 20
7.397513558015332
 30
0.0
 10
-39.571016119385035
 20
7.171082914089602
 30
0.0
 10
-39.27744035559751
 20
6.960269312802261
 30
0.0
 10
-38.992582692562124
 20
6.764625838433199
 30
0.0
 10
-38.716944024304546
 20
6.583690927921514
 30
0.0
 10
-38.45100965489914
 20
6.416988813175948
 30
0.0
 10
-38.19524892663069
 20
6.264029973814933
 30
0.0
 10
-37.95011485828342
 20
6.124311597976655
 30
0.0
 10
-37.71604379788534
 20
5.9973180534169135
 30
0.0
 10
-37.49345508654759
 20
5.882521366428779
 30
0.0
 10
-37.282750735781256
 20
5.779381709541262
 30
0.0
 10
-37.08431511769492
 20
5.687347897199793
 30
0.0
 10
-36.898514668261
 20
5.605857889106614
 30
0.0
 10
-36.725697603780716
 20
5.53433930180117
 30
0.0
 10
-36.56619322173419
 20
5.472211022917036
 30
0.0
 10
-36.42031381039109
 20
5.418878246652165
 30
0.0
 10
-36.288350019426176
 20
5.3737439716492155
 30
0.0
 10
-36.1705751414355
 20
5.336198609494743
 30
0.0
 10
-36.067242453224395
 20
5.305625927411147
 30
0.0
 10
-36.00380725523018
 20
5.288293771161437
 30
0.0
 10
-35.851660833808474
 20
5.241842545525205
 30
0.0
 10
-35.71726716834824
 20
5.1916889117778995
 30
0.0
 10
-35.60070725307223
 20
5.138556292563374
 30
0.0
 10
-35.502039561595964
 20
5.083169736284614
 30
0.0
 10
-35.42129962384535
 20
5.026256299899409
 30
0.0
 10
-35.3585020136767
 20
4.968539289698632
 30
0.0
 10
-35.313636351569166
 20
4.910747908224382
 30
0.0
 10
-35.286671313537155
 20
4.8536063838356185
 30
0.0
 10
-35.277552687414186
 20
4.797838433629264
 30
0.0
 10
-35.36671220009323
 20
4.092068217838454
 30
0.0
 10
-35.44465350647022
 20
3.3505062228675797
 30
0.0
 10
-35.50418022196018
 20
2.6416214745872217
 30
0.0
 10
-35.52469439304596
 20
2.588968056872631
 30
0.0
 10
-35.56295057125423
 20
2.5386815585502407
 30
0.0
 10
-35.61885131621146
 20
2.4914811605161393
 30
0.0
 10
-35.69227686628857
 20
2.4480828478961834
 30
0.0
 10
-35.78308523291004
 20
2.4091987910165824
 30
0.0
 10
-35.89111231098773
 20
2.3755367289918263
 30
0.0
 10
-36.016172005413424
 20
2.3477993563299475
 30
0.0
 10
-36.15805637352957
 20
2.3266837129590066
 30
0.0
 10
-36.316535783489044
 20
2.3128805780743904
 30
0.0
 10
-36.38218833265573
 20
2.309116089940333
 30
0.0
 10
-36.48961935898093
 20
2.3006955693758284
 30
0.0
 10
-36.6126267122779
 20
2.2884574353576856
 30
0.0
 10
-36.75109069523861
 20
2.2717462708841656
 30
0.0
 10
-36.90487100675057
 20
2.2499101426940658
 30
0.0
 10
-37.07380683832995
 20
2.2223011764020826
 30
0.0
 10
-37.257716985608525
 20
2.1882761290588184
 30
0.0
 10
-37.456399974805215
 20
2.147196958753095
 30
0.0
 10
-37.66963420407281
 20
2.0984313908996204
 30
0.0
 10
-37.897178099435024
 20
2.04135347981162
 30
0.0
 10
-38.13877028692072
 20
1.975344172190176
 30
0.0
 10
-38.3941297756329
 20
1.8997918512059946
 30
0.0
 10
-38.66295616016672
 20
1.814092895740726
 30
0.0
 10
-38.944929833867846
 20
1.7176522194474022
 30
0.0
 10
-39.23971221768616
 20
1.6098838103007667
 30
0.0
 10
-39.54694600296252
 20
1.4902112632364644
 30
0.0
 10
-39.866255408164776
 20
1.3580683065472143
 30
0.0
 10
-40.197246449437834
 20
1.2128993216782764
 30
0.0
 10
-40.53950722479803
 20
1.0541598560767012
 30
0.0
 10
-40.69233996088523
 20
0.9793483208433916
 30
0.0
 10
-40.74366543152521
 20
-1.4929327848614153e-14
 30
0.0
 10
-40.692339960885235
 20
-0.9793483208434031
 30
0.0
 10
-40.5395072247982
 20
-1.0541598560766257
 30
0.0
 10
-40.197246449437934
 20
-1.2128993216782316
 30
0.0
 10
-39.86625540816454
 20
-1.3580683065473182
 30
0.0
 10
-39.54694600296231
 20
-1.4902112632365598
 30
0.0
 10
-39.23971221776425
 20
-1.6098838102703616
 30
0.0
 10
-38.94492983383804
 20
-1.7176522194563562
 30
0.0
 10
-38.66295616020326
 20
-1.8140928957292848
 30
0.0
 10
-38.39412977563241
 20
-1.899791851206803
 30
0.0
 10
-38.13877028693046
 20
-1.9753441721877258
 30
0.0
 10
-37.89717809969303
 20
-2.041353480806181
 30
0.0
 10
-37.66963420407291
 20
-2.098431390900728
 30
0.0
 10
-37.456399974805315
 20
-2.1471969587541238
 30
0.0
 10
-37.25771698560886
 20
-2.1882761290577384
 30
0.0
 10
-37.07380683821004
 20
-2.222301175560173
 30
0.0
 10
-36.9048708140943
 20
-2.249908976724274
 30
0.0
 10
-36.75109071020336
 20
-2.271746268800387
 30
0.0
 10
-36.61262670125759
 20
-2.288457436699144
 30
0.0
 10
-36.48961936719639
 20
-2.3006955685903274
 30
0.0
 10
-36.38218832812049
 20
-2.3091160902956793
 30
0.0
 10
-36.31653578348898
 20
-2.3128805780745396
 30
0.0
 10
-36.15805637355252
 20
-2.3266837132521068
 30
0.0
 10
-36.01617200533571
 20
-2.3477993555490833
 30
0.0
 10
-35.89111231116828
 20
-2.375536730487864
 30
0.0
 10
-35.783085232916335
 20
-2.4091987910609247
 30
0.0
 10
-35.69227668773308
 20
-2.448081755336378
 30
0.0
 10
-35.618851314835005
 20
-2.4914811530763186
 30
0.0
 10
-35.56295057125219
 20
-2.5386815585400124
 30
0.0
 10
-35.524694393045905
 20
-2.5889680568729534
 30
0.0
 10
-35.504180221960894
 20
-2.64162147458998
 30
0.0
 10
-35.44465350647661
 20
-3.3505062228687286
 30
0.0
 10
-35.36671220008673
 20
-4.092068217838246
 30
0.0
 10
-35.27755268741292
 20
-4.797838433631814
 30
0.0
 10
-35.28667131353714
 20
-4.853606383835944
 30
0.0
 10
-35.31363635157329
 20
-4.9107479082148
 30
0.0
 10
-35.358502016569894
 20
-4.968539282707569
 30
0.0
 10
-35.42130002565493
 20
-5.02625526833843
 30
0.0
 10
-35.50203956158058
 20
-5.083169736326678
 30
0.0
 10
-35.60070725258458
 20
-5.138556293989179
 30
0.0
 10
-35.7172671685866
 20
-5.191688911030255
 30
0.0
 10
-35.851660833725084
 20
-5.241842545807128
 30
0.0
 10
-36.00380725523021
 20
-5.288293771161595
 30
0.0
 10
-36.067242457586644
 20
-5.305625928701656
 30
0.0
 10
-36.17057513356288
 20
-5.336198607018316
 30
0.0
 10
-36.28835002992676
 20
-5.373743975252613
 30
0.0
 10
-36.4203137961866
 20
-5.4188782415025765
 30
0.0
 10
-36.5661936525992
 20
-5.472209922481971
 30
0.0
 10
-36.72569760407305
 20
-5.534339301002589
 30
0.0
 10
-36.898514668260894
 20
-5.605857889105488
 30
0.0
 10
-37.0843151176946
 20
-5.687347897200778
 30
0.0
 10
-37.282750735780915
 20
-5.779381709542322
 30
0.0
 10
-37.493455086088446
 20
-5.882521367347965
 30
0.0
 10
-37.71604379787632
 20
-5.997318053412492
 30
0.0
 10
-37.950114858283726
 20
-6.124311597977547
 30
0.0
 10
-38.19524892659732
 20
-6.264029973796146
 30
0.0
 10
-38.45100965492642
 20
-6.416988813190902
 30
0.0
 10
-38.716944024234486
 20
-6.583690927875538
 30
0.0
 10
-38.99258269256231
 20
-6.7646258384333375
 30
0.0
 10
-39.27744035559772
 20
-6.960269312802413
 30
0.0
 10
-39.57101611938495
 20
-7.171082914089539
 30
0.0
 10
-39.87279388493609
 20
-7.397513558015221
 30
0.0
 10
-40.00673266627033
 20
-7.5024659942830905
 30
0.0
 10
-39.85331858694728
 20
-8.471084369981504
 30
0.0
 10
-39.59949673569817
 20
-9.41836041491437
 30
0.0
 10
-39.434449568798044
 20
-9.459761426037801
 30
0.0
 10
-39.066664221861366
 20
-9.54387203695203
 30
0.0
 10
-38.71272379987699
 20
-9.617051824166008
 30
0.0
 10
-38.37291800573176
 20
-9.679918981875849
 30
0.0
 10
-38.047516694277654
 20
-9.733098900873799
 30
0.0
 10
-37.73676970053105
 20
-9.777223607888592
 30
0.0
 10
-37.44090668412757
 20
-9.812931200746599
 30
0.0
 10
-37.16013698631101
 20
-9.840865280279777
 30
0.0
 10
-36.89464950431223
 20
-9.861674378714754
 30
0.0
 10
-36.64461257904533
 20
-9.8760113854291
 30
0.0
 10
-36.41017389868679
 20
-9.884532970169344
 30
0.0
 10
-36.19146041726828
 20
-9.887899004216317
 30
0.0
 10
-35.988578288323936
 20
-9.886771979868369
 30
0.0
 10
-35.8016128139467
 20
-9.881816427765349
 30
0.0
 10
-35.630628462660596
 20
-9.873697157821619
 30
0.0
 10
-35.47566859468065
 20
-9.863084571258296
 30
0.0
 10
-35.33675590936899
 20
-9.850642273826605
 30
0.0
 10
-35.21389212999042
 20
-9.837038310365783
 30
0.0
 10
-35.10705799196866
 20
-9.822938654488219
 30
0.0
 10
-35.042057431936115
 20
-9.812970947616277
 30
0.0
 10
-34.8841713441677
 20
-9.793522729093128
 30
0.0
 10
-34.74099730092214
 20
-9.784677525047302
 30
0.0
 10
-34.61290353660139
 20
-9.78580739932682
 30
0.0
 10
-34.50023837326481
 20
-9.796273770618653
 30
0.0
 10
-34.40332998982116
 20
-9.815426890664355
 30
0.0
 10
-34.32248589532335
 20
-9.842611914008806
 30
0.0
 10
-34.257993201001334
 20
-9.877158459250508
 30
0.0
 10
-34.210117861181914
 20
-9.918392170249087
 30
0.0
 10
-34.179104712849174
 20
-9.96562984846342
 30
0.0
 10
-33.97349337230911
 20
-10.6466474641239
 30
0.0
 10
-33.74307586224549
 20
-11.355799641502644
 30
0.0
 10
-33.50912681994655
 20
-12.027609779718
 30
0.0
 10
-33.506451373391556
 20
-12.084054935383438
 30
0.0
 10
-33.5209467697008
 20
-12.145554127007948
 30
0.0
 10
-33.55281650988709
 20
-12.211410717580266
 30
0.0
 10
-33.60224240364475
 20
-12.28092191069794
 30
0.0
 10
-33.669384403723356
 20
-12.353379354437827
 30
0.0
 10
-33.75438045609667
 20
-12.428069749394034
 30
0.0
 10
-33.8573463660292
 20
-12.504275460491025
 30
0.0
 10
-33.978375680131116
 20
-12.58127513217024
 30
0.0
 10
-34.11753958448258
 20
-12.658344306548862
 30
0.0
 10
-34.175985017289925
 20
-12.688486635041505
 30
0.0
 10
-34.27070320913184
 20
-12.739875298363895
 30
0.0
 10
-34.37809832044487
 20
-12.80108698805984
 30
0.0
 10
-34.497794420185876
 20
-12.872671772072886
 30
0.0
 10
-34.62939817176468
 20
-12.955168155468977
 30
0.0
 10
-34.77249915506871
 20
-13.049102594247044
 30
0.0
 10
-34.92667020119253
 20
-13.15498901762522
 30
0.0
 10
-35.09146773965354
 20
-13.273328359123868
 30
0.0
 10
-35.266432157848456
 20
-13.404608096726927
 30
0.0
 10
-35.4510881719212
 20
-13.549301803285118
 30
0.0
 10
-35.644945213206995
 20
-13.707868701756093
 30
0.0
 10
-35.84749781677225
 20
-13.880753242621891
 30
0.0
 10
-36.05822603379656
 20
-14.068384675327394
 30
0.0
 10
-36.27659584564952
 20
-14.271176642564086
 30
0.0
 10
-36.50205959241387
 20
-14.48952678044951
 30
0.0
 10
-36.734056411326165
 20
-14.723816330687399
 30
0.0
 10
-36.972012685421355
 20
-14.974409764104823
 30
0.0
 10
-37.215342502112435
 20
-15.241654415837996
 30
0.0
 10
-37.46344812140954
 20
-15.525880132413455
 30
0.0
 10
-37.57263918053695
 20
-15.656386544633312
 30
0.0
 10
-37.22119048267972
 20
-16.571941704222095
 30
0.0
 10
-36.77596548369343
 20
-17.44574496454609
 30
0.0
 10
-36.605917239157925
 20
-17.45192602870954
 30
0.0
 10
-36.22868130513588
 20
-17.457731747631943
 30
0.0
 10
-35.8672603972758
 20
-17.455724029333986
 30
0.0
 10
-35.52180935796085
 20
-17.446567791602416
 30
0.0
 10
-35.19246211900995
 20
-17.430930864918736
 30
0.0
 10
-34.87933165019919
 20
-17.409483408331944
 30
0.0
 10
-34.58250992455212
 20
-17.382897324623094
 30
0.0
 10
-34.30206789656691
 20
-17.35184567489375
 30
0.0
 10
-34.03805549818494
 20
-17.317002093328043
 30
0.0
 10
-33.79050164833302
 20
-17.279040202148266
 30
0.0
 10
-33.559414278529324
 20
-17.23863302738996
 30
0.0
 10
-33.344780373601616
 20
-17.19645241579063
 30
0.0
 10
-33.14656602748071
 20
-17.153168453163193
 30
0.0
 10
-32.96471651451523
 20
-17.109448883861
 30
0.0
 10
-32.799156672683914
 20
-17.065957393866555
 30
0.0
 10
-32.64978953042563
 20
-17.023358749621455
 30
0.0
 10
-32.51649931967322
 20
-16.98230677496185
 30
0.0
 10
-32.39914883170195
 20
-16.94345527463131
 30
0.0
 10
-32.29758075921295
 20
-16.907451663790344
 30
0.0
 10
-32.236073020160084
 20
-16.884187398888265
 30
0.0
 10
-32.0856806342167
 20
-16.832337807136767
 30
0.0
 10
-31.94747430865749
 20
-16.793918334608943
 30
0.0
 10
-31.82194478634632
 20
-16.768391327301448
 30
0.0
 10
-31.70956554619036
 20
-16.755204578663378
 30
0.0
 10
-31.610792685860826
 20
-16.75379077122646
 30
0.0
 10
-31.526063144625823
 20
-16.763573304207057
 30
0.0
 10
-31.45579713977677
 20
-16.783956139426984
 30
0.0
 10
-31.400395020425684
 20
-16.814334952059262
 30
0.0
 10
-31.360238318244974
 20
-16.85409237756141
 30
0.0
 10
-31.017528554863397
 20
-17.477479122914175
 30
0.0
 10
-30.644705191981696
 20
-18.123228129661005
 30
0.0
 10
-30.276191315818146
 20
-18.731716863555434
 30
0.0
 10
-30.261838726436626
 20
-18.786372300525684
 30
0.0
 10
-30.263230962643615
 20
-18.849541349615997
 30
0.0
 10
-30.28071191744546
 20
-18.920584907244873
 30
0.0
 10
-30.31460554714678
 20
-18.998853335158397
 30
0.0
 10
-30.36521558379185
 20
-19.083687016669106
 30
0.0
 10
-30.432825262189464
 20
-19.17441692025515
 30
0.0
 10
-30.517697061703192
 20
-19.270365170157547
 30
0.0
 10
-30.6200724629792
 20
-19.370845623601305
 30
0.0
 10
-30.740171719774352
 20
-19.475164454264803
 30
0.0
 10
-30.791073037166605
 20
-19.516799589315962
 30
0.0
 10
-30.873037105382394
 20
-19.58675830646673
 30
0.0
 10
-30.965358749941284
 20
-19.668961073058334
 30
0.0
 10
-31.06755588923917
 20
-19.763867776271187
 30
0.0
 10
-31.17913182053531
 20
-19.871923374267997
 30
0.0
 10
-31.29957563602443
 20
-19.993557487581466
 30
0.0
 10
-31.42836264957387
 20
-20.12918400143386
 30
0.0
 10
-31.564954833845093
 20
-20.27920067925721
 30
0.0
 10
-31.708801267501077
 20
-20.44398878763846
 30
0.0
 10
-31.859338591446196
 20
-20.623912733655168
 30
0.0
 10
-32.01599147929642
 20
-20.819319710181006
 30
0.0
 10
-32.1781731052885
 20
-21.030539363319647
 30
0.0
 10
-32.34528563675338
 20
-21.25788345894732
 30
0.0
 10
-32.5167207234976
 20
-21.50164557195388
 30
0.0
 10
-32.69186000008957
 20
-21.762100784254287
 30
0.0
 10
-32.87007559535561
 20
-22.039505396580882
 30
0.0
 10
-33.050730649491726
 20
-22.334096653525602
 30
0.0
 10
-33.23317983847126
 20
-22.646092482041965
 30
0.0
 10
-33.41676990540821
 20
-22.975691243586546
 30
0.0
 10
-33.49644106908808
 20
-23.126047875305137
 30
0.0
 10
-32.962317747230976
 20
-23.94852566498916
 30
0.0
 10
-32.34514806938981
 20
-24.71066674525488
 30
0.0
 10
-32.177530671487126
 20
-24.681357720294372
 30
0.0
 10
-31.807331170875308
 20
-24.608604809449115
 30
0.0
 10
-31.454225605102955
 20
-24.53149733256294
 30
0.0
 10
-31.118227188694334
 20
-24.45071787091533
 30
0.0
 10
-30.799328076972216
 20
-24.3669475072804
 30
0.0
 10
-30.49749943715101
 20
-24.280865243861186
 30
0.0
 10
-30.212691535979793
 20
-24.19314742301774
 30
0.0
 10
-29.94483384015905
 20
-24.104467150121387
 30
0.0
 10
-29.693835134075215
 20
-24.015493720267468
 30
0.0
 10
-29.45958365077197
 20
-23.926892047999498
 30
0.0
 10
-29.24194721846377
 20
-23.83932210117471
 30
0.0
 10
-29.040773421599948
 20
-23.753438339061006
 30
0.0
 10
-28.855889776365924
 20
-23.669889155020385
 30
0.0
 10
-28.687103921139578
 20
-23.589316323487292
 30
0.0
 10
-28.534204348295326
 20
-23.512353400250216
 30
0.0
 10
-28.396957992618468
 20
-23.439630463487823
 30
0.0
 10
-28.275115678232584
 20
-23.371762979882156
 30
0.0
 10
-28.16840726110307
 20
-23.309361939676535
 30
0.0
 10
-28.07654426629229
 20
-23.2530279044304
 30
0.0
 10
-28.02121753156259
 20
-23.217483841508738
 30
0.0
 10
-27.884891716372707
 20
-23.13549895249038
 30
0.0
 10
-27.757693388114316
 20
-23.069184326787106
 30
0.0
 10
-27.640214350295203
 20
-23.018116090604103
 30
0.0
 10
-27.533032545370087
 20
-22.981852546228648
 30
0.0
 10
-27.43671205611584
 20
-22.959933601478316
 30
0.0
 10
-27.35180015567307
 20
-22.951886100461998
 30
0.0
 10
-27.27883180188259
 20
-22.95721439795335
 30
0.0
 10
-27.218324241464337
 20
-22.975410612333583
 30
0.0
 10
-27.17077902601418
 20
-23.005950194851806
 30
0.0
 10
-26.70594890095477
 20
-23.544461077783453
 30
0.0
 10
-26.207013855217905
 20
-24.098584583656002
 30
0.0
 10
-25.720040969903863
 20
-24.617158035705415
 30
0.0
 10
-25.69463851472314
 20
-24.667635049119003
 30
0.0
 10
-25.68286674342495
 20
-24.72971316511114
 30
0.0
 10
-25.68519491123458
 20
-24.80283874542338
 30
0.0
 10
-25.70207496262194
 20
-24.886443702259356
 30
0.0
 10
-25.733941134378174
 20
-24.979945982581693
 30
0.0
 10
-25.781209571426878
 20
-25.082750062640486
 30
0.0
 10
-25.84427795562298
 20
-25.19424745241677
 30
0.0
 10
-25.923525147785643
 20
-25.313817209650868
 30
0.0
 10
-26.019310843202348
 20
-25.440826463121958
 30
0.0
 10
-26.060443413357863
 20
-25.492134749542355
 30
0.0
 10
-26.126071134859263
 20
-25.577605988882837
 30
0.0
 10
-26.19928441378838
 20
-25.677207177017408
 30
0.0
 10
-26.279516087259545
 20
-25.79128792108678
 30
0.0
 10
-26.366187794674662
 20
-25.920180185543565
 30
0.0
 10
-26.458710469658442
 20
-26.0641979789754
 30
0.0
 10
-26.556484840152734
 20
-26.223637053838445
 30
0.0
 10
-26.658901936339504
 20
-26.398774619305733
 30
0.0
 10
-26.765343606054014
 20
-26.589869067387834
 30
0.0
 10
-26.875183036456885
 20
-26.797159713051244
 30
0.0
 10
-26.987785287968528
 20
-27.020866545091067
 30
0.0
 10
-27.102507821097795
 20
-27.26118999811604
 30
0.0
 10
-27.218701047483343
 20
-27.518310728768945
 30
0.0
 10
-27.335708873191283
 20
-27.7923894135066
 30
0.0
 10
-27.45286925281229
 20
-28.08356655764169
 30
0.0
 10
-27.569514747745654
 20
-28.39196231936329
 30
0.0
 10
-27.684973089177824
 20
-28.717676348301143
 30
0.0
 10
-27.79856774539906
 20
-29.060787638772446
 30
0.0
 10
-27.90961849308782
 20
-29.42135439781632
 30
0.0
 10
-27.956287749162673
 20
-29.584989942736375
 30
0.0
 10
-27.262833555478924
 20
-30.27844413642014
 30
0.0
 10
-26.500692475213203
 20
-30.89561381426131
 30
0.0
 10
-26.342831608549215
 20
-30.83209564520793
 30
0.0
 10
-25.995848035938668
 20
-30.68396375590614
 30
0.0
 10
-25.666490219866784
 20
-30.535126487174402
 30
0.0
 10
-25.354629169460832
 20
-30.38625425170762
 30
0.0
 10
-25.06011560639746
 20
-30.238011617987087
 30
0.0
 10
-24.782780155460507
 20
-30.091056755715393
 30
0.0
 10
-24.52243355070626
 20
-29.946040887425017
 30
0.0
 10
-24.278866853681176
 20
-29.803607744822386
 30
0.0
 10
-24.051851687776768
 20
-29.66439303250676
 30
0.0
 10
-23.84114048490588
 20
-29.529023897386697
 30
0.0
 10
-23.64646674652051
 20
-29.398118405378902
 30
0.0
 10
-23.467545317982502
 20
-29.272285025271202
 30
0.0
 10
-23.304072676102248
 20
-29.15212212007345
 30
0.0
 10
-23.15572723041282
 20
-29.038217445678793
 30
0.0
 10
-23.02217037158249
 20
-28.93114673825363
 30
0.0
 10
-22.903043126811212
 20
-28.831477850273824
 30
0.0
 10
-22.797973802594807
 20
-28.73976099241998
 30
0.0
 10
-22.70657112617941
 20
-28.65653763722968
 30
0.0
 10
-22.628428062727636
 20
-28.582335245239324
 30
0.0
 10
-22.58170037611592
 20
-28.536064830407092
 30
0.0
 10
-22.46539922396716
 20
-28.42752777717912
 30
0.0
 10
-22.354768070319782
 20
-28.336216265656503
 30
0.0
 10
-22.25047391467239
 20
-28.261838727571778
 30
0.0
 10
-22.153173904168714
 20
-28.204083278359946
 30
0.0
 10
-22.06351545356715
 20
-28.162617159360543
 30
0.0
 10
-21.982132251418466
 20
-28.137091338757926
 30
0.0
 10
-21.909650615888204
 20
-28.127132226352323
 30
0.0
 10
-21.84668208514056
 20
-28.132350580596967
 30
0.0
 10
-21.793826310483386
 20
-28.15233759383004
 30
0.0
 10
-21.227191130713642
 20
-28.58243710469454
 30
0.0
 10
-20.623950257776286
 20
-29.020717253506593
 30
0.0
 10
-20.039801415155143
 20
-29.426711275464932
 30
0.0
 10
-20.004459303361124
 20
-29.47080377762009
 30
0.0
 10
-19.980038007450702
 20
-29.52907784896135
 30
0.0
 10
-19.96711163616305
 20
-29.601089513201842
 30
0.0
 10
-19.966240369991347
 20
-29.686377061165445
 30
0.0
 10
-19.977969972242146
 20
-29.7844614419756
 30
0.0
 10
-20.002831310423783
 20
-29.894846666899866
 30
0.0
 10
-20.04133988827721
 20
-30.017020225592976
 30
0.0
 10
-20.093995388758795
 20
-30.150453514466932
 30
0.0
 10
-20.161281228276593
 20
-30.29460227691091
 30
0.0
 10
-20.190847360503597
 20
-30.3533412963795
 30
0.0
 10
-20.237270488944247
 20
-30.450589554614012
 30
0.0
 10
-20.288175630638104
 20
-30.563236114430545
 30
0.0
 10
-20.34293532915757
 20
-30.691505023420454
 30
0.0
 10
-20.40091484318063
 20
-30.835600743886747
 30
0.0
 10
-20.461472692789233
 20
-30.995707948789928
 30
0.0
 10
-20.523961211064286
 20
-31.171991332018543
 30
0.0
 10
-20.587727100611488
 20
-31.36459543311557
 30
0.0
 10
-20.652111994654202
 20
-31.573644476544438
 30
0.0
 10
-20.71645302133815
 20
-31.799242225948184
 30
0.0
 10
-20.780083377794607
 20
-32.04147185147737
 30
0.0
 10
-20.842332892863517
 20
-32.30039581629162
 30
0.0
 10
-20.902528612619715
 20
-32.576055772238064
 30
0.0
 10
-20.95999537384211
 20
-32.868472475008325
 30
0.0
 10
-21.014056385704844
 20
-33.17764571255643
 30
0.0
 10
-21.06403381244975
 20
-33.50355424903877
 30
0.0
 10
-21.1092493576268
 20
-33.84615578395585
 30
0.0
 10
-21.14902484952523
 20
-34.20538692655785
 30
0.0
 10
-21.1826828274112
 20
-34.58116318553953
 30
0.0
 10
-21.194310505446637
 20
-34.75092598513758
 30
0.0
 10
-20.371832715762604
 20
-35.28504930699469
 30
0.0
 10
-19.49802945543861
 20
-35.73027430598098
 30
0.0
 10
-19.356824397387005
 20
-35.63532304161634
 30
0.0
 10
-19.048221599912715
 20
-35.418286248236186
 30
0.0
 10
-18.75700605053779
 20
-35.20422409050291
 30
0.0
 10
-18.482912190512604
 20
-34.99376551227509
 30
0.0
 10
-18.225655832046712
 20
-34.78752952290963
 30
0.0
 10
-17.984934460003103
 20
-34.586124694434396
 30
0.0
 10
-17.760427547575205
 20
-34.39014866800472
 30
0.0
 10
-17.55179688276846
 20
-34.200187667497595
 30
0.0
 10
-17.358686909133127
 20
-34.01681602367476
 30
0.0
 10
-17.18072507736458
 20
-33.84059570648053
 30
0.0
 10
-17.017522209417724
 20
-33.672075867444704
 30
0.0
 10
-16.86867287419291
 20
-33.51179239186927
 30
0.0
 10
-16.733755774545365
 20
-33.360267461077115
 30
0.0
 10
-16.6123341462099
 20
-33.21800912466721
 30
0.0
 10
-16.50395707700129
 20
-33.08551013675069
 30
0.0
 10
-16.408155375368043
 20
-32.96325130622259
 30
0.0
 10
-16.32445107496793
 20
-32.85169354091509
 30
0.0
 10
-16.252348874824698
 20
-32.75128513071189
 30
0.0
 10
-16.191340969576796
 20
-32.662457382569876
 30
0.0
 10
-16.155254555212313
 20
-32.60748285498532
 30
0.0
 10
-16.064060984528435
 20
-32.477137227592365
 30
0.0
 10
-15.97483211777363
 20
-32.3648195814652
 30
0.0
 10
-15.888280999358633
 20
-32.27038339679607
 30
0.0
 10
-15.805115260632663
 20
-32.19366023301981
 30
0.0
 10
-15.726037353204047
 20
-32.13445920814814
 30
0.0
 10
-15.651739685803276
 20
-32.092570668806026
 30
0.0
 10
-15.582912563811382
 20
-32.0677594075047
 30
0.0
 10
-15.520235089684551
 20
-32.059771834492835
 30
0.0
 10
-15.464378806803024
 20
-32.06833275005415
 30
0.0
 10
-14.820703248696153
 20
-32.37122347638029
 30
0.0
 10
-14.139521069376542
 20
-32.67450532252727
 30
0.0
 10
-13.48372637692798
 20
-32.950176027459484
 30
0.0
 10
-13.43998922839633
 20
-32.98595696443274
 30
0.0
 10
-13.403985735691345
 20
-33.03788013457548
 30
0.0
 10
-13.376369769759291
 20
-33.10563062746662
 30
0.0
 10
-13.357785264541025
 20
-33.18887329145677
 30
0.0
 10
-13.348865657383152
 20
-33.28725301465227
 30
0.0
 10
-13.350233336921255
 20
-33.400395020425734
 30
0.0
 10
-13.362499098795142
 20
-33.52790517726701
 30
0.0
 10
-13.386261609555486
 20
-33.66937032277307
 30
0.0
 10
-13.422106879114162
 20
-33.82435860156863
 30
0.0
 10
-13.438814391560294
 20
-33.88796117707355
 30
0.0
 10
-13.464004013464455
 20
-33.99273623866832
 30
0.0
 10
-13.490376218961053
 20
-34.11350497496467
 30
0.0
 10
-13.517270680937333
 20
-34.25035608204975
 30
0.0
 10
-13.544024018588951
 20
-34.40335758409318
 30
0.0
 10
-13.569970374205681
 20
-34.57255674733384
 30
0.0
 10
-13.594441992159698
 20
-34.75798000917941
 30
0.0
 10
-13.616769799711433
 20
-34.959632922471215
 30
0.0
 10
-13.636283989259683
 20
-35.1775001149204
 30
0.0
 10
-13.652314600616123
 20
-35.41154526387743
 30
0.0
 10
-13.664192110107916
 20
-35.66171108591365
 30
0.0
 10
-13.671248004601647
 20
-35.927919342799754
 30
0.0
 10
-13.672815375924042
 20
-36.21007086120167
 30
0.0
 10
-13.668229499439349
 20
-36.508045568922455
 30
0.0
 10
-13.656828417911898
 20
-36.82170254582495
 30
0.0
 10
-13.637953523101292
 20
-37.15088009014106
 30
0.0
 10
-13.610950135730725
 20
-37.49539579997692
 30
0.0
 10
-13.575168083446405
 20
-37.855046669995644
 30
0.0
 10
-13.529962276387062
 20
-38.22960920322307
 30
0.0
 10
-13.506040191057144
 20
-38.398079808544395
 30
0.0
 10
-12.590485031468356
 20
-38.74952850640165
 30
0.0
 10
-11.64320898653549
 20
-39.00335035765076
 30
0.0
 10
-11.524831075710175
 20
-38.881115823854316
 30
0.0
 10
-11.268096476462288
 20
-38.60465967572459
 30
0.0
 10
-11.027750710699252
 20
-38.334728172466924
 30
0.0
 10
-10.803403257986192
 20
-38.07188130123893
 30
0.0
 10
-10.594647441435717
 20
-37.81666545859388
 30
0.0
 10
-10.401060827353056
 20
-37.56961302136707
 30
0.0
 10
-10.222205636628292
 20
-37.33124192955037
 30
0.0
 10
-10.057629165212942
 20
-37.102055278394936
 30
0.0
 10
-9.906864216339013
 20
-36.882540923814716
 30
0.0
 10
-9.769429541676713
 20
-36.673171098006605
 30
0.0
 10
-9.644830292631893
 20
-36.47440203755654
 30
0.0
 10
-9.532558480927955
 20
-36.28667362352145
 30
0.0
 10
-9.432093448171782
 20
-36.1104090337078
 30
0.0
 10
-9.34290234499416
 20
-35.946014407214996
 30
0.0
 10
-9.264441663382563
 20
-35.79387798037977
 30
0.0
 10
-9.196152498956288
 20
-35.65437250486039
 30
0.0
 10
-9.137471501957744
 20
-35.52784944175673
 30
0.0
 10
-9.08782099021769
 20
-35.41464430587951
 30
0.0
 10
-9.046614581381396
 20
-35.31507340042247
 30
0.0
 10
-9.022746588733702
 20
-35.2537974107381
 30
0.0
 10
-8.960646196148893
 20
-35.10733993856494
 30
0.0
 10
-8.896719345931452
 20
-34.97892497792884
 30
0.0
 10
-8.831693963941932
 20
-34.86855746110045
 30
0.0
 10
-8.766297238849477
 20
-34.776219753175376
 30
0.0
 10
-8.701255958606344
 20
-34.70187119129634
 30
0.0
 10
-8.637290990538665
 20
-34.64545066338751
 30
0.0
 10
-8.575126457585357
 20
-34.60687162436699
 30
0.0
 10
-8.515479346458573
 20
-34.58602721936784
 30
0.0
 10
-8.459063742942798
 20
-34.58278788416753
 30
0.0
 10
-7.766479517086081
 20
-34.7452320477839
 30
0.0
 10
-7.037126961295229
 20
-34.90026071928142
 30
0.0
 10
-6.338347793931323
 20
-35.033559974567176
 30
0.0
 10
-6.288127131926997
 20
-35.05946554771681
 30
0.0
 10
-6.242114967822584
 20
-35.10276852497079
 30
0.0
 10
-6.201016357473469
 20
-35.16329682487028
 30
0.0
 10
-6.165530845265028
 20
-35.240856501028
 30
0.0
 10
-6.136351858332307
 20
-35.335231900626916
 30
0.0
 10
-6.114166105068198
 20
-35.4461858386817
 30
0.0
 10
-6.09965297831101
 20
-35.57345978795555
 30
0.0
 10
-6.0934839636047045
 20
-35.71677408441003
 30
0.0
 10
-6.09632205291986
 20
-35.87582814805753
 30
0.0
 10
-6.099440747119684
 20
-35.94151454185019
 30
0.0
 10
-6.102295955136925
 20
-36.049237233847
 30
0.0
 10
-6.102982632508184
 20
-36.17284997333432
 30
0.0
 10
-6.100836440898969
 20
-36.31230222845047
 30
0.0
 10
-6.095194352947012
 20
-36.4675226122491
 30
0.0
 10
-6.085395234326986
 20
-36.638418918485954
 30
0.0
 10
-6.070780424827525
 20
-36.824878172646294
 30
0.0
 10
-6.050694318053075
 20
-37.02676669818399
 30
0.0
 10
-6.024484939384131
 20
-37.24393019790069
 30
0.0
 10
-5.99150452077338
 20
-37.47619385032836
 30
0.0
 10
-5.951110079141103
 20
-37.723362422019825
 30
0.0
 10
-5.902663976612341
 20
-37.98522039274292
 30
0.0
 10
-5.845534497853062
 20
-38.26153209833292
 30
0.0
 10
-5.77909640846914
 20
-38.55204188643555
 30
0.0
 10
-5.702731515522708
 20
-38.85647428770862
 30
0.0
 10
-5.6158292226316116
 20
-39.17453420160279
 30
0.0
 10
-5.5177870803181515
 20
-39.505907096667826
 30
0.0
 10
-5.4080113312372395
 20
-39.850259225287104
 30
0.0
 10
-5.285917449922612
 20
-40.2072378527078
 30
0.0
 10
-5.227491111147155
 20
-40.36705328988819
 30
0.0
 10
-4.258872735448722
 20
-40.520467369211254
 30
0.0
 10
-3.2795244146053335
 20
-40.571792839851234
 30
0.0
 10
-3.1891473337496112
 20
-40.42761727229626
 30
0.0
 10
-2.9955014666645496
 20
-40.10382422967401
 30
0.0
 10
-2.816529747784189
 20
-39.78982068285937
 30
0.0
 10
-2.6517337626053394
 20
-39.4860731881831
 30
0.0
 10
-2.500602118875076
 20
-39.19303164924353
 30
0.0
 10
-2.3626109267204174
 20
-38.911128980261076
 30
0.0
 10
-2.237224287775887
 20
-38.64078078360116
 30
0.0
 10
-2.1238947912783135
 20
-38.38238503821246
 30
0.0
 10
-2.0220640188820656
 20
-38.136321803516765
 30
0.0
 10
-1.931163056093491
 20
-37.90295293515047
 30
0.0
 10
-1.8506130110274972
 20
-37.682621815027595
 30
0.0
 10
-1.779825539755823
 20
-37.47565309504708
 30
0.0
 10
-1.7182033779071864
 20
-37.282352454598126
 30
0.0
 10
-1.6651408790826654
 20
-37.10300637205311
 30
0.0
 10
-1.620025693350628
 20
-36.937881598183424
 30
0.0
 10
-1.5822336303045197
 20
-36.78722653637452
 30
0.0
 10
-1.5511405778590506
 20
-36.65126784045735
 30
0.0
 10
-1.526111720134797
 20
-36.53021358656245
 30
0.0
 10
-1.506507725506549
 20
-36.424251250153084
 30
0.0
 10
-1.4959013003856834
 20
-36.35935185315292
 30
0.0
 10
-1.4656081710466418
 20
-36.20318343051445
 30
0.0
 10
-1.4297772474761308
 20
-36.064283505352556
 30
0.0
 10
-1.3891195231314293
 20
-35.94280824645241
 30
0.0
 10
-1.3443499623673372
 20
-35.83889159530032
 30
0.0
 10
-1.296187925358999
 20
-35.75264488533203
 30
0.0
 10
-1.245351232666943
 20
-35.68415821666182
 30
0.0
 10
-1.1925661771408063
 20
-35.633497489050065
 30
0.0
 10
-1.1385562939889007
 20
-35.60070725258466
 30
0.0
 10
-1.0840470024246205
 20
-35.58580924111504
 30
0.0
 10
-0.37282336287583556
 20
-35.60070725257801
 30
0.0
 10
0.37282336287633594
 20
-35.60070725257153
 30
0.0
 10
1.0840470024273157
 20
-35.585809241114035
 30
0.0
 10
1.1385562939892546
 20
-35.600707252584684
 30
0.0
 10
1.1925661771308746
 20
-35.633497489053156
 30
0.0
 10
1.245351225411783
 20
-35.6841582188084
 30
0.0
 10
1.2961868574485091
 20
-35.752645177112974
 30
0.0
 10
1.344349962410805
 20
-35.83889159528942
 30
0.0
 10
1.3891195246004253
 20
-35.94280824611647
 30
0.0
 10
1.429777246707694
 20
-36.06428350551146
 30
0.0
 10
1.4656081713357652
 20
-36.20318343046098
 30
0.0
 10
1.4959013003858663
 20
-36.359351853152965
 30
0.0
 10
1.5065077263340383
 20
-36.424251254626334
 30
0.0
 10
1.5261117184948767
 20
-36.53021357847411
 30
0.0
 10
1.5511405803451246
 20
-36.65126785127706
 30
0.0
 10
1.582233626667942
 20
-36.78722652170956
 30
0.0
 10
1.620024553906231
 20
-36.93788191166133
 30
0.0
 10
1.6651408782579291
 20
-37.10300637226036
 30
0.0
 10
1.718203377906105
 20
-37.28235245459791
 30
0.0
 10
1.779825539756863
 20
-37.475653095046866
 30
0.0
 10
1.8506130110286145
 20
-37.68262181502737
 30
0.0
 10
1.9311630570556626
 20
-37.90295293478992
 30
0.0
 10
2.022064018878639
 20
-38.13632180350733
 30
0.0
 10
2.1238947912791972
 20
-38.38238503821286
 30
0.0
 10
2.2372242877607174
 20
-38.640780783566015
 30
0.0
 10
2.362610926732465
 20
-38.911128980289774
 30
0.0
 10
2.500602118836705
 20
-39.19303164916904
 30
0.0
 10
2.6517337626054864
 20
-39.486073188183305
 30
0.0
 10
2.8165297477843474
 20
-39.78982068285959
 30
0.0
 10
2.9955014666645248
 20
-40.10382422967392
 30
0.0
 10
3.1891473337495477
 20
-40.4276172722961
 30
0.0
 10
3.2795244146053744
 20
-40.57179283985122
 30
0.0
 10
4.258872735448745
 20
-40.520467369211254
 30
0.0
 10
5.227491111147161
 20
-40.367053289888204
 30
0.0
 10
5.285917449922547
 20
-40.207237852707976
 30
0.0
 10
5.4080113312372
 20
-39.85025922528721
 30
0.0
 10
5.517787080318225
 20
-39.505907096667585
 30
0.0
 10
5.615829222631677
 20
-39.17453420160257
 30
0.0
 10
5.702731515500626
 20
-38.85647428778946
 30
0.0
 10
5.779096408474923
 20
-38.55204188640498
 30
0.0
 10
5.845534497845496
 20
-38.26153209837046
 30
0.0
 10
5.9026639766130895
 20
-37.98522039274235
 30
0.0
 10
5.95111007913968
 20
-37.723362422029766
 30
0.0
 10
5.991504521789455
 20
-37.47619385048099
 30
0.0
 10
6.024484939385238
 20
-37.24393019790068
 30
0.0
 10
6.050694318054105
 20
-37.02676669818399
 30
0.0
 10
6.070780424826482
 20
-36.82487817264674
 30
0.0
 10
6.085395233477149
 20
-36.638418918454704
 30
0.0
 10
6.0951931732264555
 20
-36.46752254252526
 30
0.0
 10
6.100836440390844
 20
-36.31230224355106
 30
0.0
 10
6.102982632690353
 20
-36.17284996223416
 30
0.0
 10
6.102295955214471
 20
-36.049237242099565
 30
0.0
 10
6.099440746999015
 20
-35.94151453730265
 30
0.0
 10
6.096322052919995
 20
-35.87582814805745
 30
0.0
 10
6.093483963898591
 20
-35.71677408440221
 30
0.0
 10
6.099652977526294
 20
-35.57345978795989
 30
0.0
 10
6.114166106574905
 20
-35.44618583870489
 30
0.0
 10
6.136351858377058
 20
-35.33523190062855
 30
0.0
 10
6.165529740026242
 20
-35.24085643765425
 30
0.0
 10
6.201016349930519
 20
-35.163296824279044
 30
0.0
 10
6.242114967812192
 20
-35.102768524969825
 30
0.0
 10
6.288127131927305
 20
-35.05946554771672
 30
0.0
 10
6.338347793934134
 20
-35.033559974567595
 30
0.0
 10
7.037126961297034
 20
-34.90026071928766
 30
0.0
 10
7.766479517085191
 20
-34.74523204777746
 30
0.0
 10
8.459063742945197
 20
-34.582787884166
 30
0.0
 10
8.51547934645889
 20
-34.58602721936779
 30
0.0
 10
8.575126457576255
 20
-34.60687162437209
 30
0.0
 10
8.637290983888319
 20
-34.64545066699562
 30
0.0
 10
8.701254974696896
 20
-34.70187169873225
 30
0.0
 10
8.766297238889697
 20
-34.77621975315568
 30
0.0
 10
8.831693965308947
 20
-34.86855746046644
 30
0.0
 10
8.89671934521281
 20
-34.978924978244045
 30
0.0
 10
8.96064619642055
 20
-35.10733993845254
 30
0.0
 10
9.022746588733856
 20
-35.25379741073812
 30
0.0
 10
9.04661458312081
 20
-35.315073404625934
 30
0.0
 10
9.08782098693191
 20
-35.41464429830888
 30
0.0
 10
9.137471506639004
 20
-35.52784945182314
 30
0.0
 10
9.196152492350128
 20
-35.654372491271985
 30
0.0
 10
9.264440614013447
 20
-35.793878523911246
 30
0.0
 10
9.342902344230504
 20
-35.9460144075892
 30
0.0
 10
9.432093448170646
 20
-36.11040903370782
 30
0.0
 10
9.532558480928895
 20
-36.28667362352103
 30
0.0
 10
9.644830292632903
 20
-36.47440203755609
 30
0.0
 10
9.769429542542861
 20
-36.67317109745389
 30
0.0
 10
9.906864216333664
 20
-36.88254092380621
 30
0.0
 10
10.057629165213855
 20
-37.10205527839515
 30
0.0
 10
10.222205636606114
 20
-37.33124192951915
 30
0.0
 10
10.401060827370772
 20
-37.56961302139264
 30
0.0
 10
10.59464744138266
 20
-37.816665458529
 30
0.0
 10
10.803403257986345
 20
-38.07188130123911
 30
0.0
 10
11.027750710699417
 20
-38.334728172467116
 30
0.0
 10
11.268096476462206
 20
-38.60465967572451
 30
0.0
 10
11.524831075710042
 20
-38.881115823854174
 30
0.0
 10
11.643208986535491
 20
-39.003350357650746
 30
0.0
 10
12.590485031468377
 20
-38.74952850640164
 30
0.0
 10
13.506040191057151
 20
-38.3980798085444
 30
0.0
 10
13.529962276387037
 20
-38.22960920322326
 30
0.0
 10
13.575168083446387
 20
-37.85504666999576
 30
0.0
 10
13.610950135730748
 20
-37.49539579997666
 30
0.0
 10
13.637953523101311
 20
-37.15088009014083
 30
0.0
 10
13.656828417907105
 20
-36.82170254590861
 30
0.0
 10
13.66822949943865
 20
-36.50804556889135
 30
0.0
 10
13.672815375924449
 20
-36.21007086123995
 30
0.0
 10
13.671248004602264
 20
-35.92791934279905
 30
0.0
 10
13.664192110108592
 20
-35.661711085923685
 30
0.0
 10
13.652314601641732
 20
-35.411545263815476
 30
0.0
 10
13.636283989260765
 20
-35.177500114920164
 30
0.0
 10
13.616769799712438
 20
-34.959632922470995
 30
0.0
 10
13.594441992158771
 20
-34.757980009180066
 30
0.0
 10
13.569970373367918
 20
-34.57255674747997
 30
0.0
 10
13.54402285015172
 20
-34.40335776117067
 30
0.0
 10
13.517270683579902
 20
-34.250356096926
 30
0.0
 10
13.490376216831391
 20
-34.1135049640692
 30
0.0
 10
13.464004015256114
 20
-33.99273624672443
 30
0.0
 10
13.43881439049678
 20
-33.88796117265048
 30
0.0
 10
13.422106879114281
 20
-33.824358601568534
 30
0.0
 10
13.386261609841329
 20
-33.66937032270433
 30
0.0
 10
13.362499098028481
 20
-33.527905177434405
 30
0.0
 10
13.350233338399859
 20
-33.40039502013516
 30
0.0
 10
13.348865657427268
 20
-33.28725301464456
 30
0.0
 10
13.357784170278219
 20
-33.18887345925995
 30
0.0
 10
13.376369762258252
 20
-33.10563062845656
 30
0.0
 10
13.403985735680983
 20
-33.03788013457671
 30
0.0
 10
13.439989228396614
 20
-32.98595696443259
 30
0.0
 10
13.48372637693082
 20
-32.95017602745931
 30
0.0
 10
14.139521069379608
 20
-32.674505322532994
 30
0.0
 10
14.820703248693947
 20
-32.371223476374176
 30
0.0
 10
15.464378806805056
 20
-32.06833275005216
 30
0.0
 10
15.520235089684855
 20
-32.05977183449272
 30
0.0
 10
15.582912563803541
 20
-32.067759407511595
 30
0.0
 10
15.651739680048427
 20
-32.09257067371799
 30
0.0
 10
15.726036496297242
 20
-32.13445990906163
 30
0.0
 10
15.80511526066791
 20
-32.19366023299219
 30
0.0
 10
15.88828100056396
 20
-32.27038339589169
 30
0.0
 10
15.97483211713623
 20
-32.36481958192293
 30
0.0
 10
16.064060984770794
 20
-32.47713722742594
 30
0.0
 10
16.155254555212473
 20
-32.60748285498531
 30
0.0
 10
16.191340972152155
 20
-32.662457386319836
 30
0.0
 10
16.252348870036705
 20
-32.751285123989845
 30
0.0
 10
16.32445108163982
 20
-32.85169354978823
 30
0.0
 10
16.40815536608106
 20
-32.96325129430462
 30
0.0
 10
16.50395616356996
 20
-33.08551088658081
 30
0.0
 10
16.61233414554074
 20
-33.21800912519202
 30
0.0
 10
16.73375577454426
 20
-33.36026746107737
 30
0.0
 10
16.86867287419375
 20
-33.511792391868674
 30
0.0
 10
17.017522209418626
 20
-33.672075867444065
 30
0.0
 10
17.180725078096895
 20
-33.84059570575981
 30
0.0
 10
17.35868690912613
 20
-34.01681602366755
 30
0.0
 10
17.551796882769402
 20
-34.20018766749761
 30
0.0
 10
17.760427547547028
 20
-34.3901486679788
 30
0.0
 10
17.98493446002576
 20
-34.586124694455734
 30
0.0
 10
18.22565583198134
 20
-34.787529522857206
 30
0.0
 10
18.482912190512792
 20
-34.99376551227524
 30
0.0
 10
18.757006050537996
 20
-35.20422409050306
 30
0.0
 10
19.048221599912626
 20
-35.41828624823613
 30
0.0
 10
19.356824397386852
 20
-35.635323041616225
 30
0.0
 10
19.498029455438612
 20
-35.73027430598097
 30
0.0
 10
20.37183271576259
 20
-35.2850493069947
 30
0.0
 10
21.194310505446612
 20
-34.7509259851376
 30
0.0
 10
21.18268282741118
 20
-34.58116318553974
 30
0.0
 10
21.14902484952521
 20
-34.20538692655798
 30
0.0
 10
21.10924935762674
 20
-33.846155783955616
 30
0.0
 10
21.064033812449686
 20
-33.50355424903856
 30
0.0
 10
21.01405638571752
 20
-33.17764571263929
 30
0.0
 10
20.95999537383493
 20
-32.86847247497806
 30
0.0
 10
20.902528612628043
 20
-32.57605577227545
 30
0.0
 10
20.84233289286394
 20
-32.300395816290816
 30
0.0
 10
20.78008337779732
 20
-32.04147185148705
 30
0.0
 10
20.716453022328437
 20
-31.799242225674366
 30
0.0
 10
20.652111994655183
 20
-31.573644476544004
 30
0.0
 10
20.587727100612398
 20
-31.36459543311517
 30
0.0
 10
20.523961211063487
 20
-31.1719913320194
 30
0.0
 10
20.46147269200013
 20
-30.99570794910706
 30
0.0
 10
20.400913737093003
 20
-30.835601160026442
 30
0.0
 10
20.342935334835307
 20
-30.691505037422218
 30
0.0
 10
20.288175626289654
 20
-30.563236104215967
 30
0.0
 10
20.23727049237168
 20
-30.45058956212158
 30
0.0
 10
20.190847358543685
 20
-30.353341292274216
 30
0.0
 10
20.16128122827666
 20
-30.294602276910805
 30
0.0
 10
20.09399538902407
 20
-30.150453514340278
 30
0.0
 10
20.041339887562078
 20
-30.01702022591613
 30
0.0
 10
20.00283131180964
 20
-29.894846666308233
 30
0.0
 10
19.977969972283667
 20
-29.78446144195891
 30
0.0
 10
19.966239334529025
 20
-29.686377452811772
 30
0.0
 10
19.96711162903172
 20
-29.60108951572973
 30
0.0
 10
19.980038007440797
 20
-29.529077848964718
 30
0.0
 10
20.004459303361347
 20
-29.470803777619903
 30
0.0
 10
20.039801415157857
 20
-29.426711275464186
 30
0.0
 10
20.623950257780454
 20
-29.020717253511577
 30
0.0
 10
21.22719113071018
 20
-28.58243710468904
 30
0.0
 10
21.793826310484924
 20
-28.152337593827692
 30
0.0
 10
21.846682085140802
 20
-28.132350580596817
 30
0.0
 10
21.909650615881933
 20
-28.127132226360704
 30
0.0
 10
21.982132246810597
 20
-28.137091344759067
 30
0.0
 10
22.063514761113893
 20
-28.162618023118362
 30
0.0
 10
22.15317390419742
 20
-28.204083278325616
 30
0.0
 10
22.250473915663314
 20
-28.26183872643658
 30
0.0
 10
22.354768069791447
 20
-28.336216266236775
 30
0.0
 10
22.465399224169587
 20
-28.427527776965963
 30
0.0
 10
22.581700376116032
 20
-28.536064830407064
 30
0.0
 10
22.62842806602634
 20
-28.582335248371912
 30
0.0
 10
22.706571120098413
 20
-28.656537631650025
 30
0.0
 10
22.797973810965697
 20
-28.73976099971208
 30
0.0
 10
22.903043115249254
 20
-28.83147784054719
 30
0.0
 10
23.02216963401024
 20
-28.931147661611234
 30
0.0
 10
23.15572722986736
 20
-29.038217446331274
 30
0.0
 10
23.30407267610119
 20
-29.152122120073948
 30
0.0
 10
23.467545317983166
 20
-29.27228502527046
 30
0.0
 10
23.646466746521227
 20
-29.398118405378103
 30
0.0
 10
23.841140485472312
 20
-29.52902389652949
 30
0.0
 10
24.051851687768398
 20
-29.664393032501184
 30
0.0
 10
24.278866853682068
 20
-29.80360774482223
 30
0.0
 10
24.522433550673277
 20
-29.94604088740554
 30
0.0
 10
24.782780155487067
 20
-30.091056755731575
 30
0.0
 10
25.060115606322583
 20
-30.23801161794943
 30
0.0
 10
25.354629169461013
 20
-30.386254251707744
 30
0.0
 10
25.666490219866986
 20
-30.535126487174534
 30
0.0
 10
25.995848035938533
 20
-30.683963755906127
 30
0.0
 10
26.342831608549012
 20
-30.832095645207875
 30
0.0
 10
26.500692475213178
 20
-30.895613814261328
 30
0.0
 10
27.262833555478917
 20
-30.27844413642015
 30
0.0
 10
27.956287749162676
 20
-29.584989942736392
 30
0.0
 10
27.90961849308786
 20
-29.42135439781652
 30
0.0
 10
27.798567745399076
 20
-29.06078763877257
 30
0.0
 10
27.684973089177724
 20
-28.717676348300923
 30
0.0
 10
27.569514747745558
 20
-28.391962319363092
 30
0.0
 10
27.45286925284193
 20
-28.083566557720086
 30
0.0
 10
27.33570887317798
 20
-27.792389413478485
 30
0.0
 10
27.21870104749927
 20
-27.51831072880378
 30
0.0
 10
27.102507821098058
 20
-27.261189998115164
 30
0.0
 10
26.987785287973207
 20
-27.02086654509997
 30
0.0
 10
26.87518303736861
 20
-26.797159712577514
 30
0.0
 10
26.76534360605489
 20
-26.5898690673872
 30
0.0
 10
26.658901936340317
 20
-26.398774619305147
 30
0.0
 10
26.55648484015214
 20
-26.22363705383944
 30
0.0
 10
26.458710468952532
 20
-26.06419797944966
 30
0.0
 10
26.366186799278022
 20
-25.920180822558155
 30
0.0
 10
26.27951609572435
 20
-25.791287933602096
 30
0.0
 10
26.199284407411234
 20
-25.677207167930135
 30
0.0
 10
26.126071139772723
 20
-25.57760599551374
 30
0.0
 10
26.060443410587254
 20
-25.492134745934262
 30
0.0
 10
26.0193108432024
 20
-25.440826463121834
 30
0.0
 10
25.923525148018797
 20
-25.31381720947182
 30
0.0
 10
25.844277954990673
 20
-25.19424745288154
 30
0.0
 10
25.781209572659446
 20
-25.082750061773638
 30
0.0
 10
25.733941134415325
 20
-24.979945982556725
 30
0.0
 10
25.702074031214813
 20
-24.886444300631993
 30
0.0
 10
25.68519490478467
 20
-24.802838749378708
 30
0.0
 10
25.682866743415964
 20
-24.72971316511649
 30
0.0
 10
25.694638514723326
 20
-24.66763504911877
 30
0.0
 10
25.72004096990637
 20
-24.61715803570412
 30
0.0
 10
26.20701385522302
 20
-24.098584583660006
 30
0.0
 10
26.705948900950254
 20
-23.54446107777878
 30
0.0
 10
27.170779026015214
 20
-23.005950194849177
 30
0.0
 10
27.218324241464558
 20
-22.975410612333377
 30
0.0
 10
27.27883180187821
 20
-22.957214397962844
 30
0.0
 10
27.351800152413613
 20
-22.951886107290022
 30
0.0
 10
27.43671155837971
 20
-22.95993459033007
 30
0.0
 10
27.533032545391038
 20
-22.981852546189096
 30
0.0
 10
27.64021435102847
 20
-23.018116089287677
 30
0.0
 10
27.757693387718184
 20
-23.069184327464534
 30
0.0
 10
27.884891716526404
 20
-23.13549895223979
 30
0.0
 10
28.021217531562712
 20
-23.217483841508678
 30
0.0
 10
28.076544270170228
 20
-23.253027906808686
 30
0.0
 10
28.1684072539949
 20
-23.309361935483114
 30
0.0
 10
28.275115687936676
 20
-23.37176298527449
 30
0.0
 10
28.396957979286903
 20
-23.439630456377596
 30
0.0
 10
28.534203818817655
 20
-23.51235445678013
 30
0.0
 10
28.68710392074171
 20
-23.589316324238915
 30
0.0
 10
28.855889776365
 20
-23.669889155021085
 30
0.0
 10
29.04077342160045
 20
-23.75343833906013
 30
0.0
 10
29.24194721846432
 20
-23.839322101173764
 30
0.0
 10
29.459583651147813
 20
-23.926892047043243
 30
0.0
 10
29.69383513406588
 20
-24.01549372026374
 30
0.0
 10
29.944833840159898
 20
-24.10446715012103
 30
0.0
 10
30.21269153594349
 20
-24.193147423005534
 30
0.0
 10
30.497499437180366
 20
-24.280865243871474
 30
0.0
 10
30.799328076891154
 20
-24.36694750725912
 30
0.0
 10
31.118227188694547
 20
-24.450717870915398
 30
0.0
 10
31.454225605103193
 20
-24.53149733256301
 30
0.0
 10
31.807331170875187
 20
-24.608604809449112
 30
0.0
 10
32.17753067148692
 20
-24.68135772029435
 30
0.0
 10
32.345148069389786
 20
-24.710666745254887
 30
0.0
 10
32.96231774723098
 20
-23.948525664989155
 30
0.0
 10
33.496441069088085
 20
-23.126047875305137
 30
0.0
 10
33.4167699054083
 20
-22.975691243586713
 30
0.0
 10
33.233179838471315
 20
-22.64609248204206
 30
0.0
 10
33.05073064949159
 20
-22.334096653525382
 30
0.0
 10
32.87007559535549
 20
-22.03950539658068
 30
0.0
 10
32.69186000013487
 20
-21.762100784324783
 30
0.0
 10
32.51672072347875
 20
-21.501645571929124
 30
0.0
 10
32.34528563677622
 20
-21.257883458978053
 30
0.0
 10
32.178173105288586
 20
-21.030539363318713
 30
0.0
 10
32.01599147930286
 20
-20.81931971018872
 30
0.0
 10
31.859338592239517
 20
-20.623912733002204
 30
0.0
 10
31.70880126750182
 20
-20.443988787637632
 30
0.0
 10
31.56495483384578
 20
-20.27920067925644
 30
0.0
 10
31.428362649573504
 20
-20.129184001434933
 30
0.0
 10
31.29957563543255
 20
-19.993557488192106
 30
0.0
 10
31.179130979333266
 20
-19.871924204316866
 30
0.0
 10
31.067555900121096
 20
-19.76386778675306
 30
0.0
 10
30.965358741814153
 20
-19.668961065495495
 30
0.0
 10
30.873037111567136
 20
-19.58675831193114
 30
0.0
 10
30.79107303370639
 20
-19.516799586362737
 30
0.0
 10
30.74017171977438
 20
-19.475164454264647
 30
0.0
 10
30.620072463170043
 20
-19.370845623377676
 30
0.0
 10
30.517697061181345
 20
-19.270365170743606
 30
0.0
 10
30.43282526321488
 20
-19.174416919150957
 30
0.0
 10
30.36521558382301
 20
-19.083687016636933
 30
0.0
 10
30.314604760501815
 20
-18.998854114105566
 30
0.0
 10
30.280711911958868
 20
-18.920584912454753
 30
0.0
 10
30.26323096263595
 20
-18.84954134962307
 30
0.0
 10
30.261838726436768
 20
-18.786372300525393
 30
0.0
 10
30.27619131582034
 20
-18.73171686355362
 30
0.0
 10
30.644705191987548
 20
-18.123228129663833
 30
0.0
 10
31.017528554858018
 20
-17.477479122910523
 30
0.0
 10
31.360238318245447
 20
-16.8540923775586
 30
0.0
 10
31.400395020425865
 20
-16.814334952058992
 30
0.0
 10
31.45579713977447
 20
-16.78395613943716
 30
0.0
 10
31.52606314285723
 20
-16.763573311563526
 30
0.0
 10
31.610792404595276
 20
-16.75379184195457
 30
0.0
 10
31.709565546202636
 20
-16.755204578620305
 30
0.0
 10
31.821944786789874
 20
-16.768391325861312
 30
0.0
 10
31.947474308410875
 20
-16.793918335353904
 30
0.0
 10
32.08568063431495
 20
-16.832337806859673
 30
0.0
 10
32.236073020160205
 20
-16.884187398888155
 30
0.0
 10
32.297580763500626
 20
-16.907451665310365
 30
0.0
 10
32.399148823877255
 20
-16.943455272007373
 30
0.0
 10
32.51649933028639
 20
-16.982306778218728
 30
0.0
 10
32.6497895159071
 20
-17.02335874543837
 30
0.0
 10
32.79915637444153
 20
-17.065958537393325
 30
0.0
 10
32.96471651428234
 20
-17.109448884678894
 30
0.0
 10
33.14656602747996
 20
-17.153168453164042
 30
0.0
 10
33.344780373601935
 20
-17.19645241578965
 30
0.0
 10
33.55941427852967
 20
-17.238633027388904
 30
0.0
 10
33.790501648501845
 20
-17.27904020113475
 30
0.0
 10
34.03805549817504
 20
-17.317002093326316
 30
0.0
 10
34.302067896567685
 20
-17.35184567489321
 30
0.0
 10
34.58250992451409
 20
-17.38289732461869
 30
0.0
 10
34.87933165023005
 20
-17.409483408335888
 30
0.0
 10
35.19246211892625
 20
-17.430930864914753
 30
0.0
 10
35.52180935796108
 20
-17.446567791602416
 30
0.0
 10
35.867260397276056
 20
-17.455724029333982
 30
0.0
 10
36.228681305135765
 20
-17.45773174763195
 30
0.0
 10
36.60591723915774
 20
-17.451926028709543
 30
0.0
 10
36.77596548369343
 20
-17.445744964546076
 30
0.0
 10
37.22119048267971
 20
-16.571941704222102
 30
0.0
 10
37.57263918053695
 20
-15.65638654463333
 30
0.0
 10
37.46344812140966
 20
-15.52588013241362
 30
0.0
 10
37.2153425021125
 20
-15.2416544158381
 30
0.0
 10
36.97201268542117
 20
-14.974409764104655
 30
0.0
 10
36.734056411326
 20
-14.723816330687248
 30
0.0
 10
36.50205959247283
 20
-14.48952678050907
 30
0.0
 10
36.27659584562592
 20
-14.271176642543809
 30
0.0
 10
36.05822603382528
 20
-14.06838467535273
 30
0.0
 10
35.847497816772126
 20
-13.880753242620978
 30
0.0
 10
35.64494521321489
 20
-13.707868701762314
 30
0.0
 10
35.45108817256142
 20
-13.549301802481503
 30
0.0
 10
35.266432157848996
 20
-13.404608096725983
 30
0.0
 10
35.091467739654036
 20
-13.273328359122992
 30
0.0
 10
34.926670201192394
 20
-13.154989017626367
 30
0.0
 10
34.77249915461672
 20
-13.049102594967417
 30
0.0
 10
34.629397521521774
 20
-12.955169142275045
 30
0.0
 10
34.497794433009304
 20
-12.872671780063245
 30
0.0
 10
34.37809831092293
 20
-12.801086982352013
 30
0.0
 10
34.270703216317536
 20
-12.739875302423037
 30
0.0
 10
34.1759850132913
 20
-12.688486632872255
 30
0.0
 10
34.11753958448258
 20
-12.658344306548722
 30
0.0
 10
33.97837568027129
 20
-12.581275131911838
 30
0.0
 10
33.857346365640595
 20
-12.504275461172796
 30
0.0
 10
33.7543804568701
 20
-12.428069748100794
 30
0.0
 10
33.66938440374714
 20
-12.353379354399902
 30
0.0
 10
33.602241796142074
 20
-12.280922836175947
 30
0.0
 10
33.55281650560358
 20
-12.211410723817048
 30
0.0
 10
33.520946769694774
 20
-12.145554127016483
 30
0.0
 10
33.506451373391634
 20
-12.084054935383142
 30
0.0
 10
33.50912681994831
 20
-12.02760977971579
 30
0.0
 10
33.7430758622518
 20
-11.355799641504218
 30
0.0
 10
33.97349337230309
 20
-10.646647464121468
 30
0.0
 10
34.17910471284905
 20
-9.965629848460596
 30
0.0
 10
34.21011786118203
 20
-9.918392170248802
 30
0.0
 10
34.25799320100119
 20
-9.877158459260958
 30
0.0
 10
34.32248589512289
 20
-9.842611921572251
 30
0.0
 10
34.40332993731883
 20
-9.815427996472902
 30
0.0
 10
34.50023837326786
 20
-9.796273770573992
 30
0.0
 10
34.61290353673582
 20
-9.78580739782596
 30
0.0
 10
34.74099730083579
 20
-9.78467752582728
 30
0.0
 10
34.88417134420619
 20
-9.793522728801682
 30
0.0
 10
35.0420574319362
 20
-9.812970947616165
 30
0.0
 10
35.10705799647867
 20
-9.822938655083588
 30
0.0
 10
35.21389212179116
 20
-9.837038309426047
 30
0.0
 10
35.33675592042738
 20
-9.850642274805734
 30
0.0
 10
35.47566857960967
 20
-9.863084570185213
 30
0.0
 10
35.6306284086881
 20
-9.873698338367685
 30
0.0
 10
35.80161281388894
 20
-9.881816428613815
 30
0.0
 10
35.988578288323374
 20
-9.886771979869378
 30
0.0
 10
36.19146041726839
 20
-9.88789900421531
 30
0.0
 10
36.410173898686914
 20
-9.88453297016826
 30
0.0
 10
36.64461257899974
 20
-9.876011384402652
 30
0.0
 10
36.89464950430219
 20
-9.861674378715149
 30
0.0
 10
37.16013698631164
 20
-9.84086528027911
 30
0.0
 10
37.44090668408945
 20
-9.812931200750217
 30
0.0
 10
37.73676970056205
 20
-9.777223607886054
 30
0.0
 10
38.04751669419495
 20
-9.733098900887327
 30
0.0
 10
38.37291800573199
 20
-9.679918981875824
 30
0.0
 10
38.71272379987724
 20
-9.617051824165978
 30
0.0
 10
39.06666422186126
 20
-9.543872036952077
 30
0.0
 10
39.43444956879786
 20
-9.459761426037867
 30
0.0
 10
39.59949673569816
 20
-9.418360414914385
 30
0.0
  0
LWPOLYLINE
  8
OpenJsCad
  90
329
  70
1
 10
36.97146312374655
 20
5.530199248698519
 30
0.0
 10
36.61990314628813
 20
4.872476792022168
 30
0.0
 10
36.403413581088245
 20
4.15880633871299
 30
0.0
 10
36.58399421931736
 20
3.8536833606772647
 30
0.0
 10
36.92006190383438
 20
3.37583153671945
 30
0.0
 10
37.25465595737368
 20
2.97163941856092
 30
0.0
 10
37.57852364893296
 20
2.637647161423484
 30
0.0
 10
37.88296751769533
 20
2.3694163536030475
 30
0.0
 10
38.159940307866066
 20
2.1615974405234266
 30
0.0
 10
38.40213262437291
 20
2.0080058841160926
 30
0.0
 10
38.60305253446619
 20
1.901706321753141
 30
0.0
 10
38.75709641151498
 20
1.8351039221055414
 30
0.0
 10
38.78447321590161
 20
1.8257405035454264
 30
0.0
 10
38.92481643922408
 20
1.8457599839764018
 30
0.0
 10
39.40493658438788
 20
1.8430550830789563
 30
0.0
 10
39.824431304879596
 20
1.7809471393411114
 30
0.0
 10
40.1773026258623
 20
1.669066757842962
 30
0.0
 10
40.458699409415686
 20
1.517590562596157
 30
0.0
 10
40.664963759933165
 20
1.3371199867324988
 30
0.0
 10
40.79366543152517
 20
1.1385562939890752
 30
0.0
 10
40.84362395445626
 20
0.9329730230845938
 30
0.0
 10
40.79366543152538
 20
0.29818980240387116
 30
0.0
 10
40.79366543152553
 20
-0.2981898024038703
 30
0.0
 10
40.843623954456426
 20
-0.9329730230849769
 30
0.0
 10
40.793665431525206
 20
-1.1385562939891545
 30
0.0
 10
40.66496375993315
 20
-1.3371199867325145
 30
0.0
 10
40.4586994094157
 20
-1.5175905625962571
 30
0.0
 10
40.17730262581333
 20
-1.6690667573231626
 30
0.0
 10
39.8244313049056
 20
-1.7809471410301656
 30
0.0
 10
39.404936584387904
 20
-1.8430550830785863
 30
0.0
 10
38.92481643922409
 20
-1.8457599839763905
 30
0.0
 10
38.784473215901876
 20
-1.8257405035454737
 30
0.0
 10
38.75709641151502
 20
-1.8351039221056642
 30
0.0
 10
38.60305253446924
 20
-1.9017063217613774
 30
0.0
 10
38.4021326243538
 20
-2.008005884128101
 30
0.0
 10
38.15994030786615
 20
-2.1615974405235834
 30
0.0
 10
37.88296751769546
 20
-2.3694163536025714
 30
0.0
 10
37.57852364893296
 20
-2.6376471614234847
 30
0.0
 10
37.25465595737368
 20
-2.9716394185609145
 30
0.0
 10
36.920061903834394
 20
-3.375831536719427
 30
0.0
 10
36.58399421931737
 20
-3.8536833606772545
 30
0.0
 10
36.403413581088245
 20
-4.1588063387129885
 30
0.0
 10
36.61990314628813
 20
-4.8724767920221606
 30
0.0
 10
36.97146312374656
 20
-5.530199248698526
 30
0.0
 10
37.314907444454256
 20
-5.618263981720616
 30
0.0
 10
37.89043544823683
 20
-5.718520508183904
 30
0.0
 10
38.41283616009122
 20
-5.767733771633621
 30
0.0
 10
38.8780133908857
 20
-5.774892920610499
 30
0.0
 10
39.28295553811121
 20
-5.7492864196509395
 30
0.0
 10
39.625755038942515
 20
-5.700387244214472
 30
0.0
 10
39.90561649936441
 20
-5.637737045929821
 30
0.0
 10
40.12285347165076
 20
-5.570830356411484
 30
0.0
 10
40.27887395014634
 20
-5.50899989478413
 30
0.0
 10
40.3048532109343
 20
-5.496262507514064
 30
0.0
 10
40.389934945470614
 20
-5.382868952240597
 30
0.0
 10
40.73134380966723
 20
-5.045285395578026
 30
0.0
 10
41.07188831938146
 20
-4.792574782228961
 30
0.0
 10
41.40051739977366
 20
-4.622168454714916
 30
0.0
 10
41.7066048184757
 20
-4.5303007257075905
 30
0.0
 10
41.980067707441485
 20
-4.512061772737472
 30
0.0
 10
42.21147926581055
 20
-4.5614616816410365
 30
0.0
 10
42.39217460110826
 20
-4.671504996253469
 30
0.0
 10
42.80570811069255
 20
-5.155690526522733
 30
0.0
 10
43.22741217341356
 20
-5.577394589243534
 30
0.0
 10
43.711597703683104
 20
-5.990928098828086
 30
0.0
 10
43.82164101829523
 20
-6.171623434125667
 30
0.0
 10
43.87104092719872
 20
-6.4030349924947245
 30
0.0
 10
43.85280197422868
 20
-6.6764978814605485
 30
0.0
 10
43.76093424481909
 20
-6.982585299829596
 30
0.0
 10
43.59052791891995
 20
-7.3112143817306805
 30
0.0
 10
43.33781730435792
 20
-7.651758890268679
 30
0.0
 10
43.00023374769559
 20
-7.993167754465556
 30
0.0
 10
42.88684019242234
 20
-8.078249489001742
 30
0.0
 10
42.87410280515218
 20
-8.104228749789904
 30
0.0
 10
42.81227234353269
 20
-8.260249228289089
 30
0.0
 10
42.74536565400135
 20
-8.477486200593782
 30
0.0
 10
42.68271545572189
 20
-8.757347660993718
 30
0.0
 10
42.633816280285004
 20
-9.100147161824545
 30
0.0
 10
42.60820977932568
 20
-9.505089309050492
 30
0.0
 10
42.61536892830256
 20
-9.970266539844967
 30
0.0
 10
42.664582191752274
 20
-10.49266725169933
 30
0.0
 10
42.76483871821557
 20
-11.06819525548192
 30
0.0
 10
42.85290345123766
 20
-11.41163957618963
 30
0.0
 10
43.51062590791402
 20
-11.763199553648057
 30
0.0
 10
44.224296361223196
 20
-11.979689118847947
 30
0.0
 10
44.52941933925892
 20
-11.799108480618825
 30
0.0
 10
45.007271163216735
 20
-11.463040796101811
 30
0.0
 10
45.41146328137527
 20
-11.128446742562513
 30
0.0
 10
45.7454555385127
 20
-10.804579051003227
 30
0.0
 10
46.01368634633314
 20
-10.50013518224086
 30
0.0
 10
46.22150525941276
 20
-10.223162392070126
 30
0.0
 10
46.37509681582009
 20
-9.980970075563274
 30
0.0
 10
46.48139637818305
 20
-9.780050165470005
 30
0.0
 10
46.54799877783064
 20
-9.626006288421213
 30
0.0
 10
46.55736219639076
 20
-9.598629484034573
 30
0.0
 10
46.53734271595979
 20
-9.458286260712107
 30
0.0
 10
46.54004761685723
 20
-8.978166115548307
 30
0.0
 10
46.60215556059508
 20
-8.55867139505659
 30
0.0
 10
46.714035942093226
 20
-8.205800074073887
 30
0.0
 10
46.86551213734003
 20
-7.924403290520505
 30
0.0
 10
47.04598271320369
 20
-7.718138940003021
 30
0.0
 10
47.24454640594711
 20
-7.5894372684110145
 30
0.0
 10
47.450129676851596
 20
-7.539478745479925
 30
0.0
 10
48.08491289753232
 20
-7.589437268410803
 30
0.0
 10
48.68129250234006
 20
-7.589437268410654
 30
0.0
 10
49.316075723021164
 20
-7.539478745479764
 30
0.0
 10
49.52165899392534
 20
-7.589437268410981
 30
0.0
 10
49.720222686668706
 20
-7.718138940003034
 30
0.0
 10
49.90069326253244
 20
-7.9244032905204875
 30
0.0
 10
50.05216945725935
 20
-8.205800074122857
 30
0.0
 10
50.164049840966356
 20
-8.558671395030586
 30
0.0
 10
50.22615778301478
 20
-8.978166115548282
 30
0.0
 10
50.22886268391258
 20
-9.458286260712097
 30
0.0
 10
50.20884320348166
 20
-9.598629484034312
 30
0.0
 10
50.218206622041855
 20
-9.62600628842117
 30
0.0
 10
50.28480902169756
 20
-9.780050165466946
 30
0.0
 10
50.39110858406429
 20
-9.980970075582388
 30
0.0
 10
50.54470014045977
 20
-10.223162392070034
 30
0.0
 10
50.75251905353876
 20
-10.500135182240728
 30
0.0
 10
51.020749861359675
 20
-10.804579051003232
 30
0.0
 10
51.3547421184971
 20
-11.12844674256251
 30
0.0
 10
51.75893423665561
 20
-11.463040796101797
 30
0.0
 10
52.23678606061344
 20
-11.799108480618822
 30
0.0
 10
52.54190903864917
 20
-11.979689118847947
 30
0.0
 10
53.25557949195835
 20
-11.76319955364806
 30
0.0
 10
53.91330194863471
 20
-11.411639576189632
 30
0.0
 10
54.001366681656805
 20
-11.06819525548193
 30
0.0
 10
54.10162320812009
 20
-10.492667251699359
 30
0.0
 10
54.15083647156981
 20
-9.970266539844975
 30
0.0
 10
54.157995620546686
 20
-9.50508930905049
 30
0.0
 10
54.13238911958713
 20
-9.100147161824976
 30
0.0
 10
54.08348994415066
 20
-8.757347660993673
 30
0.0
 10
54.02083974586601
 20
-8.477486200571777
 30
0.0
 10
53.95393305634767
 20
-8.26024922828543
 30
0.0
 10
53.89210259472032
 20
-8.104228749789847
 30
0.0
 10
53.87936520745025
 20
-8.078249489001893
 30
0.0
 10
53.76597165217679
 20
-7.993167754465573
 30
0.0
 10
53.428388095514215
 20
-7.651758890268959
 30
0.0
 10
53.17567748216515
 20
-7.311214380554728
 30
0.0
 10
53.005271154651105
 20
-6.982585300162523
 30
0.0
 10
52.91340342564378
 20
-6.676497881460491
 30
0.0
 10
52.89516447267366
 20
-6.403034992494703
 30
0.0
 10
52.94456438157722
 20
-6.171623434125635
 30
0.0
 10
53.054607696189656
 20
-5.990928098827928
 30
0.0
 10
53.53879322645892
 20
-5.5773945892436405
 30
0.0
 10
53.96049728917972
 20
-5.155690526522629
 30
0.0
 10
54.374030798764274
 20
-4.671504996253086
 30
0.0
 10
54.55472613406185
 20
-4.561461681640958
 30
0.0
 10
54.78613769243091
 20
-4.51206177273747
 30
0.0
 10
55.05960058139674
 20
-4.530300725707508
 30
0.0
 10
55.36568799976578
 20
-4.622168455117097
 30
0.0
 10
55.69431708166687
 20
-4.792574781016232
 30
0.0
 10
56.03486159020487
 20
-5.04528539557827
 30
0.0
 10
56.37627045440175
 20
-5.3828689522405995
 30
0.0
 10
56.46135218893793
 20
-5.4962625075138485
 30
0.0
 10
56.48733144972609
 20
-5.508999894784013
 30
0.0
 10
56.64335192822528
 20
-5.570830356403496
 30
0.0
 10
56.86058890052997
 20
-5.637737045934845
 30
0.0
 10
57.140450360929904
 20
-5.700387244214298
 30
0.0
 10
57.48324986176073
 20
-5.749286419651183
 30
0.0
 10
57.88819200898668
 20
-5.774892920610504
 30
0.0
 10
58.35336923978116
 20
-5.767733771633626
 30
0.0
 10
58.87576995163552
 20
-5.718520508183911
 30
0.0
 10
59.451297955418106
 20
-5.61826398172062
 30
0.0
 10
59.79474227612582
 20
-5.53019924869853
 30
0.0
 10
60.146302253584246
 20
-4.872476792022169
 30
0.0
 10
60.36279181878413
 20
-4.158806338712992
 30
0.0
 10
60.182211180555015
 20
-3.8536833606772665
 30
0.0
 10
59.846143496037996
 20
-3.375831536719452
 30
0.0
 10
59.511549442498705
 20
-2.9716394185609207
 30
0.0
 10
59.18768175093942
 20
-2.637647161423485
 30
0.0
 10
58.88323788217705
 20
-2.3694163536030484
 30
0.0
 10
58.60626509200631
 20
-2.1615974405234275
 30
0.0
 10
58.364072775499466
 20
-2.0080058841160935
 30
0.0
 10
58.16315286540619
 20
-1.9017063217531418
 30
0.0
 10
58.0091089883574
 20
-1.8351039221055423
 30
0.0
 10
57.98173218397076
 20
-1.8257405035454273
 30
0.0
 10
57.841388960648295
 20
-1.8457599839764027
 30
0.0
 10
57.36126881548449
 20
-1.8430550830789576
 30
0.0
 10
56.94177409499278
 20
-1.7809471393411127
 30
0.0
 10
56.58890277401007
 20
-1.669066757842962
 30
0.0
 10
56.30750599045669
 20
-1.5175905625961579
 30
0.0
 10
56.10124163993921
 20
-1.3371199867324997
 30
0.0
 10
55.9725399683472
 20
-1.138556293989076
 30
0.0
 10
55.922581445416114
 20
-0.9329730230845947
 30
0.0
 10
55.97253996834699
 20
-0.29818980240387205
 30
0.0
 10
55.972539968346844
 20
0.2981898024038694
 30
0.0
 10
55.92258144541595
 20
0.932973023084976
 30
0.0
 10
55.97253996834717
 20
1.1385562939891536
 30
0.0
 10
56.101241639939225
 20
1.3371199867325136
 30
0.0
 10
56.307505990456676
 20
1.5175905625962565
 30
0.0
 10
56.588902774059044
 20
1.6690667573231615
 30
0.0
 10
56.941774094966775
 20
1.7809471410301645
 30
0.0
 10
57.36126881548447
 20
1.8430550830785855
 30
0.0
 10
57.84138896064829
 20
1.8457599839763894
 30
0.0
 10
57.9817321839705
 20
1.8257405035454728
 30
0.0
 10
58.009108988357355
 20
1.8351039221056633
 30
0.0
 10
58.163152865403134
 20
1.9017063217613763
 30
0.0
 10
58.36407277551858
 20
2.0080058841281
 30
0.0
 10
58.606265092006225
 20
2.1615974405235825
 30
0.0
 10
58.883237882176914
 20
2.3694163536025705
 30
0.0
 10
59.18768175093942
 20
2.6376471614234833
 30
0.0
 10
59.5115494424987
 20
2.9716394185609136
 30
0.0
 10
59.84614349603798
 20
3.375831536719425
 30
0.0
 10
60.18221118055501
 20
3.8536833606772527
 30
0.0
 10
60.36279181878413
 20
4.158806338712987
 30
0.0
 10
60.14630225358425
 20
4.8724767920221606
 30
0.0
 10
59.794742276125824
 20
5.530199248698526
 30
0.0
 10
59.45129795541812
 20
5.618263981720615
 30
0.0
 10
58.87576995163555
 20
5.718520508183904
 30
0.0
 10
58.35336923978116
 20
5.767733771633621
 30
0.0
 10
57.88819200898668
 20
5.774892920610498
 30
0.0
 10
57.483249861761166
 20
5.74928641965094
 30
0.0
 10
57.14045036092986
 20
5.700387244214472
 30
0.0
 10
56.86058890050796
 20
5.63773704592982
 30
0.0
 10
56.64335192822162
 20
5.570830356411484
 30
0.0
 10
56.487331449726035
 20
5.50899989478413
 30
0.0
 10
56.46135218893808
 20
5.496262507514064
 30
0.0
 10
56.37627045440176
 20
5.382868952240596
 30
0.0
 10
56.034861590205146
 20
5.045285395578026
 30
0.0
 10
55.69431708049092
 20
4.79257478222896
 30
0.0
 10
55.365688000098714
 20
4.622168454714916
 30
0.0
 10
55.05960058139668
 20
4.5303007257075905
 30
0.0
 10
54.78613769243089
 20
4.512061772737471
 30
0.0
 10
54.55472613406182
 20
4.5614616816410365
 30
0.0
 10
54.37403079876412
 20
4.671504996253469
 30
0.0
 10
53.96049728917983
 20
5.155690526522732
 30
0.0
 10
53.538793226458814
 20
5.577394589243534
 30
0.0
 10
53.05460769618927
 20
5.990928098828086
 30
0.0
 10
52.944564381577145
 20
6.171623434125667
 30
0.0
 10
52.895164472673656
 20
6.4030349924947245
 30
0.0
 10
52.91340342564369
 20
6.6764978814605485
 30
0.0
 10
53.005271155053286
 20
6.982585299829596
 30
0.0
 10
53.17567748095242
 20
7.3112143817306805
 30
0.0
 10
53.42838809551446
 20
7.651758890268679
 30
0.0
 10
53.76597165217679
 20
7.993167754465556
 30
0.0
 10
53.879365207450036
 20
8.078249489001742
 30
0.0
 10
53.8921025947202
 20
8.104228749789902
 30
0.0
 10
53.953933056339686
 20
8.260249228289089
 30
0.0
 10
54.02083974587104
 20
8.477486200593782
 30
0.0
 10
54.083489944150486
 20
8.75734766099372
 30
0.0
 10
54.13238911958737
 20
9.100147161824545
 30
0.0
 10
54.15799562054669
 20
9.505089309050494
 30
0.0
 10
54.15083647156982
 20
9.970266539844967
 30
0.0
 10
54.1016232081201
 20
10.49266725169933
 30
0.0
 10
54.00136668165681
 20
11.06819525548192
 30
0.0
 10
53.91330194863472
 20
11.41163957618963
 30
0.0
 10
53.25557949195836
 20
11.763199553648057
 30
0.0
 10
52.54190903864918
 20
11.979689118847947
 30
0.0
 10
52.236786060613454
 20
11.799108480618823
 30
0.0
 10
51.75893423665564
 20
11.46304079610181
 30
0.0
 10
51.354742118497114
 20
11.12844674256251
 30
0.0
 10
51.020749861359675
 20
10.804579051003225
 30
0.0
 10
50.75251905353924
 20
10.50013518224086
 30
0.0
 10
50.54470014045962
 20
10.223162392070126
 30
0.0
 10
50.39110858405228
 20
9.980970075563274
 30
0.0
 10
50.284809021689334
 20
9.780050165470003
 30
0.0
 10
50.218206622041734
 20
9.62600628842121
 30
0.0
 10
50.208843203481614
 20
9.598629484034571
 30
0.0
 10
50.228862683912595
 20
9.458286260712105
 30
0.0
 10
50.22615778301515
 20
8.978166115548307
 30
0.0
 10
50.164049839277304
 20
8.55867139505659
 30
0.0
 10
50.05216945777915
 20
8.205800074073885
 30
0.0
 10
49.90069326253234
 20
7.924403290520505
 30
0.0
 10
49.72022268666869
 20
7.71813894000302
 30
0.0
 10
49.521658993925264
 20
7.5894372684110145
 30
0.0
 10
49.31607572302078
 20
7.539478745479924
 30
0.0
 10
48.681292502340064
 20
7.589437268410803
 30
0.0
 10
48.08491289753232
 20
7.589437268410654
 30
0.0
 10
47.45012967685121
 20
7.539478745479765
 30
0.0
 10
47.244546405947034
 20
7.589437268410982
 30
0.0
 10
47.04598271320368
 20
7.718138940003034
 30
0.0
 10
46.865512137339934
 20
7.924403290520488
 30
0.0
 10
46.71403594261303
 20
8.205800074122857
 30
0.0
 10
46.60215555890603
 20
8.558671395030586
 30
0.0
 10
46.540047616857606
 20
8.978166115548282
 30
0.0
 10
46.5373427159598
 20
9.458286260712097
 30
0.0
 10
46.55736219639071
 20
9.598629484034314
 30
0.0
 10
46.54799877783053
 20
9.62600628842117
 30
0.0
 10
46.481396378174814
 20
9.780050165466946
 30
0.0
 10
46.37509681580809
 20
9.980970075582388
 30
0.0
 10
46.22150525941261
 20
10.223162392070035
 30
0.0
 10
46.01368634633362
 20
10.50013518224073
 30
0.0
 10
45.74545553851271
 20
10.804579051003232
 30
0.0
 10
45.411463281375276
 20
11.12844674256251
 30
0.0
 10
45.007271163216764
 20
11.463040796101797
 30
0.0
 10
44.529419339258936
 20
11.799108480618823
 30
0.0
 10
44.2242963612232
 20
11.979689118847947
 30
0.0
 10
43.51062590791402
 20
11.763199553648056
 30
0.0
 10
42.85290345123765
 20
11.411639576189629
 30
0.0
 10
42.764838718215564
 20
11.068195255481927
 30
0.0
 10
42.664582191752274
 20
10.492667251699354
 30
0.0
 10
42.61536892830256
 20
9.97026653984497
 30
0.0
 10
42.60820977932568
 20
9.505089309050483
 30
0.0
 10
42.633816280285245
 20
9.100147161824971
 30
0.0
 10
42.682715455721706
 20
8.757347660993668
 30
0.0
 10
42.74536565400636
 20
8.477486200571773
 30
0.0
 10
42.8122723435247
 20
8.260249228285426
 30
0.0
 10
42.87410280515205
 20
8.104228749789844
 30
0.0
 10
42.88684019242211
 20
8.078249489001887
 30
0.0
 10
43.00023374769559
 20
7.993167754465569
 30
0.0
 10
43.337817304358154
 20
7.651758890268955
 30
0.0
 10
43.59052791770722
 20
7.311214380554723
 30
0.0
 10
43.760934245221264
 20
6.982585300162519
 30
0.0
 10
43.85280197422859
 20
6.676497881460486
 30
0.0
 10
43.87104092719871
 20
6.4030349924947005
 30
0.0
 10
43.821641018295146
 20
6.171623434125633
 30
0.0
 10
43.71159770368271
 20
5.990928098827926
 30
0.0
 10
43.22741217341345
 20
5.577394589243637
 30
0.0
 10
42.80570811069265
 20
5.155690526522624
 30
0.0
 10
42.392174601108096
 20
4.671504996253081
 30
0.0
 10
42.21147926581052
 20
4.561461681640953
 30
0.0
 10
41.980067707441464
 20
4.512061772737466
 30
0.0
 10
41.70660481847564
 20
4.5303007257075025
 30
0.0
 10
41.40051740010659
 20
4.622168455117091
 30
0.0
 10
41.0718883182055
 20
4.792574781016227
 30
0.0
 10
40.73134380966751
 20
5.045285395578265
 30
0.0
 10
40.38993494547063
 20
5.382868952240594
 30
0.0
 10
40.30485321093444
 20
5.496262507513843
 30
0.0
 10
40.27887395014628
 20
5.508999894784006
 30
0.0
 10
40.12285347164709
 20
5.570830356403491
 30
0.0
 10
39.9056164993424
 20
5.637737045934838
 30
0.0
 10
39.625755038942465
 20
5.700387244214291
 30
0.0
 10
39.282955538111636
 20
5.749286419651175
 30
0.0
 10
38.87801339088569
 20
5.774892920610496
 30
0.0
 10
38.41283616009122
 20
5.7677337716336154
 30
0.0
 10
37.89043544823686
 20
5.718520508183904
 30
0.0
 10
37.31490744445426
 20
5.618263981720611
 30
0.0
 10
36.97146312374655
 20
5.530199248698519
 30
0.0
  0
ENDSEC
  0
EOF
